M48
;DRILL file {KiCad 4.0.7} date Wednesday, January 10, 2018 'AMt' 07:06:21 AM
;FORMAT={-:-/ absolute / inch / decimal}
FMAT,2
INCH,TZ
T1C0.016
T2C0.031
T3C0.039
T4C0.047
%
G90
G05
M72
T1
X1.875Y-4.85
X1.875Y-5.025
X2.4Y-3.375
X2.825Y-4.875
T2
X1.8Y-3.9
X1.8Y-3.9
X1.8Y-3.9
X1.8Y-3.9
X1.8Y-4.
X1.8Y-4.
X1.8Y-4.
X1.8Y-4.
X1.8Y-4.1
X1.8Y-4.1
X1.8Y-4.1
X1.8Y-4.1
X1.8Y-4.2
X1.8Y-4.2
X1.8Y-4.2
X1.8Y-4.2
X1.8Y-4.3
X1.8Y-4.3
X1.8Y-4.3
X1.8Y-4.3
X1.8Y-4.4
X1.8Y-4.4
X1.8Y-4.4
X1.8Y-4.4
X1.8Y-4.5
X1.8Y-4.5
X1.8Y-4.5
X1.8Y-4.5
X1.8Y-4.6
X1.8Y-4.6
X1.8Y-4.6
X1.8Y-4.6
X2.1Y-3.9
X2.1Y-3.9
X2.1Y-3.9
X2.1Y-3.9
X2.1Y-4.
X2.1Y-4.
X2.1Y-4.
X2.1Y-4.
X2.1Y-4.1
X2.1Y-4.1
X2.1Y-4.1
X2.1Y-4.1
X2.1Y-4.2
X2.1Y-4.2
X2.1Y-4.2
X2.1Y-4.2
X2.1Y-4.3
X2.1Y-4.3
X2.1Y-4.3
X2.1Y-4.3
X2.1Y-4.4
X2.1Y-4.4
X2.1Y-4.4
X2.1Y-4.4
X2.1Y-4.5
X2.1Y-4.5
X2.1Y-4.5
X2.1Y-4.5
X2.1Y-4.6
X2.1Y-4.6
X2.1Y-4.6
X2.1Y-4.6
X2.725Y-3.9
X2.725Y-3.9
X2.725Y-3.9
X2.725Y-3.9
X2.725Y-4.
X2.725Y-4.
X2.725Y-4.
X2.725Y-4.
X2.725Y-4.1
X2.725Y-4.1
X2.725Y-4.1
X2.725Y-4.1
X2.725Y-4.2
X2.725Y-4.2
X2.725Y-4.2
X2.725Y-4.2
X2.725Y-4.3
X2.725Y-4.3
X2.725Y-4.3
X2.725Y-4.3
X2.725Y-4.4
X2.725Y-4.4
X2.725Y-4.4
X2.725Y-4.4
X2.725Y-4.5
X2.725Y-4.5
X2.725Y-4.5
X2.725Y-4.5
X2.725Y-4.6
X2.725Y-4.6
X2.725Y-4.6
X2.725Y-4.6
X3.025Y-3.9
X3.025Y-3.9
X3.025Y-3.9
X3.025Y-3.9
X3.025Y-4.
X3.025Y-4.
X3.025Y-4.
X3.025Y-4.
X3.025Y-4.1
X3.025Y-4.1
X3.025Y-4.1
X3.025Y-4.1
X3.025Y-4.2
X3.025Y-4.2
X3.025Y-4.2
X3.025Y-4.2
X3.025Y-4.3
X3.025Y-4.3
X3.025Y-4.3
X3.025Y-4.3
X3.025Y-4.4
X3.025Y-4.4
X3.025Y-4.4
X3.025Y-4.4
X3.025Y-4.5
X3.025Y-4.5
X3.025Y-4.5
X3.025Y-4.5
X3.025Y-4.6
X3.025Y-4.6
X3.025Y-4.6
X3.025Y-4.6
T3
X1.6Y-4.
X1.6Y-4.1
X1.6Y-4.2
X1.6Y-4.3
X1.6Y-4.4
X1.6Y-4.5
X1.7Y-3.45
X1.7Y-3.55
X1.9Y-3.45
X1.9Y-3.55
X2.1Y-3.45
X2.1Y-3.55
X2.2Y-5.075
X2.2Y-5.175
X2.3Y-3.45
X2.3Y-3.55
X2.3Y-4.
X2.3Y-4.1
X2.3Y-4.2
X2.3Y-4.3
X2.3Y-4.4
X2.3Y-4.5
X2.3Y-5.075
X2.3Y-5.175
X2.4Y-5.075
X2.4Y-5.175
X2.5Y-3.45
X2.5Y-3.55
X2.5Y-4.
X2.5Y-4.1
X2.5Y-4.2
X2.5Y-4.3
X2.5Y-4.4
X2.5Y-4.5
X2.5Y-5.075
X2.5Y-5.175
X2.6Y-5.075
X2.6Y-5.175
X2.7Y-3.45
X2.7Y-3.55
X2.9Y-3.45
X2.9Y-3.55
X3.1Y-3.45
X3.1Y-3.55
X3.2Y-4.
X3.2Y-4.1
X3.2Y-4.2
X3.2Y-4.3
X3.2Y-4.4
X3.2Y-4.5
T4
X1.7799Y-3.1276
X1.9177Y-3.1276
X2.Y-2.8
X2.Y-3.
X2.0555Y-3.1276
X2.1Y-2.8
X2.1Y-3.
X2.1933Y-3.1276
X2.2Y-2.8
X2.2Y-3.
X2.3Y-2.8
X2.3Y-3.
X2.3311Y-3.1276
X2.4Y-2.8
X2.4Y-3.
X2.4689Y-3.1276
X2.5Y-2.8
X2.5Y-3.
X2.6Y-2.8
X2.6Y-3.
X2.6067Y-3.1276
X2.7Y-2.8
X2.7Y-3.
X2.7445Y-3.1276
X2.8Y-2.8
X2.8Y-3.
X2.8823Y-3.1276
X2.9Y-2.8
X2.9Y-3.
X3.0201Y-3.1276
T0
M30
