G04 #@! TF.FileFunction,Copper,L1,Top,Signal*
%FSLAX46Y46*%
G04 Gerber Fmt 4.6, Leading zero omitted, Abs format (unit mm)*
G04 Created by KiCad (PCBNEW 4.0.7) date Wednesday, January 10, 2018 'AMt' 07:06:06 AM*
%MOMM*%
%LPD*%
G01*
G04 APERTURE LIST*
%ADD10C,0.100000*%
%ADD11R,1.700000X1.700000*%
%ADD12O,1.700000X1.700000*%
%ADD13C,2.000000*%
%ADD14C,2.400000*%
%ADD15R,2.400000X2.400000*%
%ADD16O,1.500000X2.000000*%
%ADD17R,1.500000X2.000000*%
%ADD18R,1.600000X1.600000*%
%ADD19O,1.600000X1.600000*%
%ADD20C,0.600000*%
%ADD21C,0.500000*%
G04 APERTURE END LIST*
D10*
D11*
X40640000Y-114300000D03*
D12*
X40640000Y-111760000D03*
X40640000Y-109220000D03*
X40640000Y-106680000D03*
X40640000Y-104140000D03*
X40640000Y-101600000D03*
D11*
X81280000Y-114300000D03*
D12*
X81280000Y-111760000D03*
X81280000Y-109220000D03*
X81280000Y-106680000D03*
X81280000Y-104140000D03*
X81280000Y-101600000D03*
D11*
X63500000Y-101600000D03*
D12*
X63500000Y-104140000D03*
X63500000Y-106680000D03*
X63500000Y-109220000D03*
X63500000Y-111760000D03*
X63500000Y-114300000D03*
D13*
X50800000Y-76200000D03*
X50800000Y-71120000D03*
X53340000Y-76200000D03*
X53340000Y-71120000D03*
X55880000Y-76200000D03*
X55880000Y-71120000D03*
X58420000Y-76200000D03*
X58420000Y-71120000D03*
X60960000Y-76200000D03*
X60960000Y-71120000D03*
X63500000Y-76200000D03*
X63500000Y-71120000D03*
X66040000Y-76200000D03*
X66040000Y-71120000D03*
X68580000Y-76200000D03*
X68580000Y-71120000D03*
X71120000Y-76200000D03*
X71120000Y-71120000D03*
X73660000Y-76200000D03*
X73660000Y-71120000D03*
D14*
X52210000Y-79440000D03*
X48710000Y-79440000D03*
X55710000Y-79440000D03*
X59210000Y-79440000D03*
X62710000Y-79440000D03*
X66210000Y-79440000D03*
D15*
X45210000Y-79440000D03*
D14*
X69710000Y-79440000D03*
X73210000Y-79440000D03*
X76710000Y-79440000D03*
D11*
X58420000Y-101600000D03*
D12*
X58420000Y-104140000D03*
X58420000Y-106680000D03*
X58420000Y-109220000D03*
X58420000Y-111760000D03*
X58420000Y-114300000D03*
D16*
X55880000Y-128655000D03*
X55880000Y-131695000D03*
X58420000Y-131695000D03*
X58420000Y-128655000D03*
D17*
X66040000Y-128655000D03*
D16*
X66040000Y-131695000D03*
X63500000Y-128655000D03*
X63500000Y-131695000D03*
X60960000Y-128655000D03*
X60960000Y-131695000D03*
D11*
X43180000Y-90170000D03*
D12*
X43180000Y-87630000D03*
D11*
X48260000Y-90170000D03*
D12*
X48260000Y-87630000D03*
D11*
X53340000Y-90170000D03*
D12*
X53340000Y-87630000D03*
D11*
X58420000Y-90170000D03*
D12*
X58420000Y-87630000D03*
D11*
X63500000Y-90170000D03*
D12*
X63500000Y-87630000D03*
D11*
X68580000Y-90170000D03*
D12*
X68580000Y-87630000D03*
D11*
X73660000Y-90170000D03*
D12*
X73660000Y-87630000D03*
D11*
X78740000Y-90170000D03*
D12*
X78740000Y-87630000D03*
D18*
X45720000Y-116840000D03*
D19*
X53340000Y-99060000D03*
X45720000Y-114300000D03*
X53340000Y-101600000D03*
X45720000Y-111760000D03*
X53340000Y-104140000D03*
X45720000Y-109220000D03*
X53340000Y-106680000D03*
X45720000Y-106680000D03*
X53340000Y-109220000D03*
X45720000Y-104140000D03*
X53340000Y-111760000D03*
X45720000Y-101600000D03*
X53340000Y-114300000D03*
X45720000Y-99060000D03*
X53340000Y-116840000D03*
D18*
X45720000Y-99060000D03*
D19*
X53340000Y-116840000D03*
X45720000Y-101600000D03*
X53340000Y-114300000D03*
X45720000Y-104140000D03*
X53340000Y-111760000D03*
X45720000Y-106680000D03*
X53340000Y-109220000D03*
X45720000Y-109220000D03*
X53340000Y-106680000D03*
X45720000Y-111760000D03*
X53340000Y-104140000D03*
X45720000Y-114300000D03*
X53340000Y-101600000D03*
X45720000Y-116840000D03*
X53340000Y-99060000D03*
D18*
X53340000Y-99060000D03*
D19*
X45720000Y-116840000D03*
X53340000Y-101600000D03*
X45720000Y-114300000D03*
X53340000Y-104140000D03*
X45720000Y-111760000D03*
X53340000Y-106680000D03*
X45720000Y-109220000D03*
X53340000Y-109220000D03*
X45720000Y-106680000D03*
X53340000Y-111760000D03*
X45720000Y-104140000D03*
X53340000Y-114300000D03*
X45720000Y-101600000D03*
X53340000Y-116840000D03*
X45720000Y-99060000D03*
D18*
X53340000Y-116840000D03*
D19*
X45720000Y-99060000D03*
X53340000Y-114300000D03*
X45720000Y-101600000D03*
X53340000Y-111760000D03*
X45720000Y-104140000D03*
X53340000Y-109220000D03*
X45720000Y-106680000D03*
X53340000Y-106680000D03*
X45720000Y-109220000D03*
X53340000Y-104140000D03*
X45720000Y-111760000D03*
X53340000Y-101600000D03*
X45720000Y-114300000D03*
X53340000Y-99060000D03*
X45720000Y-116840000D03*
D18*
X76835000Y-99060000D03*
D19*
X69215000Y-116840000D03*
X76835000Y-101600000D03*
X69215000Y-114300000D03*
X76835000Y-104140000D03*
X69215000Y-111760000D03*
X76835000Y-106680000D03*
X69215000Y-109220000D03*
X76835000Y-109220000D03*
X69215000Y-106680000D03*
X76835000Y-111760000D03*
X69215000Y-104140000D03*
X76835000Y-114300000D03*
X69215000Y-101600000D03*
X76835000Y-116840000D03*
X69215000Y-99060000D03*
D18*
X76835000Y-116840000D03*
D19*
X69215000Y-99060000D03*
X76835000Y-114300000D03*
X69215000Y-101600000D03*
X76835000Y-111760000D03*
X69215000Y-104140000D03*
X76835000Y-109220000D03*
X69215000Y-106680000D03*
X76835000Y-106680000D03*
X69215000Y-109220000D03*
X76835000Y-104140000D03*
X69215000Y-111760000D03*
X76835000Y-101600000D03*
X69215000Y-114300000D03*
X76835000Y-99060000D03*
X69215000Y-116840000D03*
D18*
X69215000Y-116840000D03*
D19*
X76835000Y-99060000D03*
X69215000Y-114300000D03*
X76835000Y-101600000D03*
X69215000Y-111760000D03*
X76835000Y-104140000D03*
X69215000Y-109220000D03*
X76835000Y-106680000D03*
X69215000Y-106680000D03*
X76835000Y-109220000D03*
X69215000Y-104140000D03*
X76835000Y-111760000D03*
X69215000Y-101600000D03*
X76835000Y-114300000D03*
X69215000Y-99060000D03*
X76835000Y-116840000D03*
D18*
X69215000Y-99060000D03*
D19*
X76835000Y-116840000D03*
X69215000Y-101600000D03*
X76835000Y-114300000D03*
X69215000Y-104140000D03*
X76835000Y-111760000D03*
X69215000Y-106680000D03*
X76835000Y-109220000D03*
X69215000Y-109220000D03*
X76835000Y-106680000D03*
X69215000Y-111760000D03*
X76835000Y-104140000D03*
X69215000Y-114300000D03*
X76835000Y-101600000D03*
X69215000Y-116840000D03*
X76835000Y-99060000D03*
D20*
X47625000Y-123190000D03*
X47625000Y-127635000D03*
X71755000Y-123825000D03*
X60960000Y-85725000D03*
D21*
X45720000Y-101600000D02*
X44450000Y-101600000D01*
X60960000Y-133985000D02*
X60960000Y-131445000D01*
X59690000Y-135255000D02*
X60960000Y-133985000D01*
X53340000Y-135255000D02*
X59690000Y-135255000D01*
X43180000Y-125095000D02*
X53340000Y-135255000D01*
X43180000Y-102870000D02*
X43180000Y-125095000D01*
X44450000Y-101600000D02*
X43180000Y-102870000D01*
X48895000Y-123825000D02*
X48895000Y-124460000D01*
X48895000Y-107950000D02*
X48895000Y-121285000D01*
X48895000Y-121285000D02*
X48895000Y-123825000D01*
X50165000Y-125730000D02*
X51435000Y-125730000D01*
X48895000Y-124460000D02*
X50165000Y-125730000D01*
X51435000Y-125730000D02*
X57150000Y-125730000D01*
X57150000Y-125730000D02*
X58420000Y-127000000D01*
X47625000Y-106680000D02*
X48895000Y-107950000D01*
X47625000Y-106680000D02*
X45720000Y-106680000D01*
X58420000Y-128905000D02*
X58420000Y-127000000D01*
X47625000Y-121920000D02*
X47625000Y-123190000D01*
X46990000Y-111760000D02*
X47625000Y-112395000D01*
X47625000Y-112395000D02*
X47625000Y-121920000D01*
X53975000Y-133985000D02*
X47625000Y-127635000D01*
X57150000Y-133985000D02*
X53975000Y-133985000D01*
X58420000Y-132715000D02*
X57150000Y-133985000D01*
X58420000Y-131445000D02*
X58420000Y-132715000D01*
X46990000Y-111760000D02*
X45720000Y-111760000D01*
X45720000Y-116840000D02*
X45720000Y-123825000D01*
X50800000Y-128905000D02*
X55880000Y-128905000D01*
X45720000Y-123825000D02*
X50800000Y-128905000D01*
X74295000Y-115570000D02*
X75565000Y-114300000D01*
X74295000Y-127635000D02*
X74295000Y-115570000D01*
X75565000Y-114300000D02*
X76200000Y-114300000D01*
X70485000Y-131445000D02*
X74295000Y-127635000D01*
X66040000Y-131445000D02*
X70485000Y-131445000D01*
X71755000Y-125730000D02*
X73025000Y-124460000D01*
X74930000Y-109220000D02*
X73025000Y-111125000D01*
X76200000Y-109220000D02*
X74930000Y-109220000D01*
X63500000Y-127000000D02*
X64770000Y-125730000D01*
X64770000Y-125730000D02*
X71755000Y-125730000D01*
X63500000Y-127000000D02*
X63500000Y-128905000D01*
X73025000Y-124460000D02*
X73025000Y-111125000D01*
X73660000Y-104140000D02*
X76200000Y-104140000D01*
X73660000Y-104140000D02*
X71755000Y-106045000D01*
X71755000Y-123825000D02*
X71755000Y-106045000D01*
X71755000Y-99060000D02*
X76200000Y-99060000D01*
X70485000Y-100330000D02*
X71755000Y-99060000D01*
X70485000Y-119380000D02*
X70485000Y-100330000D01*
X69215000Y-120650000D02*
X70485000Y-119380000D01*
X64135000Y-120650000D02*
X69215000Y-120650000D01*
X60960000Y-123825000D02*
X64135000Y-120650000D01*
X60960000Y-128905000D02*
X60960000Y-123825000D01*
X63500000Y-104140000D02*
X64770000Y-104140000D01*
X66675000Y-99060000D02*
X68580000Y-99060000D01*
X66040000Y-99695000D02*
X66675000Y-99060000D01*
X66040000Y-102870000D02*
X66040000Y-99695000D01*
X64770000Y-104140000D02*
X66040000Y-102870000D01*
X76710000Y-83310000D02*
X75565000Y-84455000D01*
X75565000Y-84455000D02*
X62230000Y-84455000D01*
X62230000Y-84455000D02*
X60960000Y-85725000D01*
X76710000Y-83310000D02*
X76710000Y-79440000D01*
X58420000Y-114300000D02*
X63500000Y-114300000D01*
X63500000Y-114300000D02*
X60960000Y-114300000D01*
X60960000Y-114300000D02*
X60960000Y-95885000D01*
X60960000Y-95885000D02*
X57785000Y-92710000D01*
X57785000Y-92710000D02*
X41275000Y-92710000D01*
X41275000Y-92710000D02*
X39370000Y-90805000D01*
X39370000Y-90805000D02*
X39370000Y-81280000D01*
X39370000Y-81280000D02*
X41210000Y-79440000D01*
X41210000Y-79440000D02*
X45210000Y-79440000D01*
M02*
