G04 #@! TF.FileFunction,Soldermask,Top*
%FSLAX46Y46*%
G04 Gerber Fmt 4.6, Leading zero omitted, Abs format (unit mm)*
G04 Created by KiCad (PCBNEW 4.0.7) date Wednesday, January 10, 2018 'AMt' 07:06:06 AM*
%MOMM*%
%LPD*%
G01*
G04 APERTURE LIST*
%ADD10C,0.100000*%
%ADD11R,2.100000X2.100000*%
%ADD12O,2.100000X2.100000*%
%ADD13C,2.400000*%
%ADD14C,2.800000*%
%ADD15R,2.800000X2.800000*%
%ADD16C,3.600000*%
%ADD17O,1.900000X2.400000*%
%ADD18R,1.900000X2.400000*%
%ADD19R,2.000000X2.000000*%
%ADD20O,2.000000X2.000000*%
G04 APERTURE END LIST*
D10*
D11*
X40640000Y-114300000D03*
D12*
X40640000Y-111760000D03*
X40640000Y-109220000D03*
X40640000Y-106680000D03*
X40640000Y-104140000D03*
X40640000Y-101600000D03*
D11*
X81280000Y-114300000D03*
D12*
X81280000Y-111760000D03*
X81280000Y-109220000D03*
X81280000Y-106680000D03*
X81280000Y-104140000D03*
X81280000Y-101600000D03*
D11*
X63500000Y-101600000D03*
D12*
X63500000Y-104140000D03*
X63500000Y-106680000D03*
X63500000Y-109220000D03*
X63500000Y-111760000D03*
X63500000Y-114300000D03*
D13*
X50800000Y-76200000D03*
X50800000Y-71120000D03*
X53340000Y-76200000D03*
X53340000Y-71120000D03*
X55880000Y-76200000D03*
X55880000Y-71120000D03*
X58420000Y-76200000D03*
X58420000Y-71120000D03*
X60960000Y-76200000D03*
X60960000Y-71120000D03*
X63500000Y-76200000D03*
X63500000Y-71120000D03*
X66040000Y-76200000D03*
X66040000Y-71120000D03*
X68580000Y-76200000D03*
X68580000Y-71120000D03*
X71120000Y-76200000D03*
X71120000Y-71120000D03*
X73660000Y-76200000D03*
X73660000Y-71120000D03*
D14*
X52210000Y-79440000D03*
X48710000Y-79440000D03*
X55710000Y-79440000D03*
X59210000Y-79440000D03*
X62710000Y-79440000D03*
X66210000Y-79440000D03*
D15*
X45210000Y-79440000D03*
D14*
X69710000Y-79440000D03*
X73210000Y-79440000D03*
X76710000Y-79440000D03*
D16*
X41000000Y-71000000D03*
X81000000Y-71000000D03*
X41000000Y-131000000D03*
X81000000Y-131000000D03*
D11*
X58420000Y-101600000D03*
D12*
X58420000Y-104140000D03*
X58420000Y-106680000D03*
X58420000Y-109220000D03*
X58420000Y-111760000D03*
X58420000Y-114300000D03*
D17*
X55880000Y-128655000D03*
X55880000Y-131695000D03*
X58420000Y-131695000D03*
X58420000Y-128655000D03*
D18*
X66040000Y-128655000D03*
D17*
X66040000Y-131695000D03*
X63500000Y-128655000D03*
X63500000Y-131695000D03*
X60960000Y-128655000D03*
X60960000Y-131695000D03*
D11*
X43180000Y-90170000D03*
D12*
X43180000Y-87630000D03*
D11*
X48260000Y-90170000D03*
D12*
X48260000Y-87630000D03*
D11*
X53340000Y-90170000D03*
D12*
X53340000Y-87630000D03*
D11*
X58420000Y-90170000D03*
D12*
X58420000Y-87630000D03*
D11*
X63500000Y-90170000D03*
D12*
X63500000Y-87630000D03*
D11*
X68580000Y-90170000D03*
D12*
X68580000Y-87630000D03*
D11*
X73660000Y-90170000D03*
D12*
X73660000Y-87630000D03*
D11*
X78740000Y-90170000D03*
D12*
X78740000Y-87630000D03*
D19*
X45720000Y-116840000D03*
D20*
X53340000Y-99060000D03*
X45720000Y-114300000D03*
X53340000Y-101600000D03*
X45720000Y-111760000D03*
X53340000Y-104140000D03*
X45720000Y-109220000D03*
X53340000Y-106680000D03*
X45720000Y-106680000D03*
X53340000Y-109220000D03*
X45720000Y-104140000D03*
X53340000Y-111760000D03*
X45720000Y-101600000D03*
X53340000Y-114300000D03*
X45720000Y-99060000D03*
X53340000Y-116840000D03*
D19*
X45720000Y-99060000D03*
D20*
X53340000Y-116840000D03*
X45720000Y-101600000D03*
X53340000Y-114300000D03*
X45720000Y-104140000D03*
X53340000Y-111760000D03*
X45720000Y-106680000D03*
X53340000Y-109220000D03*
X45720000Y-109220000D03*
X53340000Y-106680000D03*
X45720000Y-111760000D03*
X53340000Y-104140000D03*
X45720000Y-114300000D03*
X53340000Y-101600000D03*
X45720000Y-116840000D03*
X53340000Y-99060000D03*
D19*
X53340000Y-99060000D03*
D20*
X45720000Y-116840000D03*
X53340000Y-101600000D03*
X45720000Y-114300000D03*
X53340000Y-104140000D03*
X45720000Y-111760000D03*
X53340000Y-106680000D03*
X45720000Y-109220000D03*
X53340000Y-109220000D03*
X45720000Y-106680000D03*
X53340000Y-111760000D03*
X45720000Y-104140000D03*
X53340000Y-114300000D03*
X45720000Y-101600000D03*
X53340000Y-116840000D03*
X45720000Y-99060000D03*
D19*
X53340000Y-116840000D03*
D20*
X45720000Y-99060000D03*
X53340000Y-114300000D03*
X45720000Y-101600000D03*
X53340000Y-111760000D03*
X45720000Y-104140000D03*
X53340000Y-109220000D03*
X45720000Y-106680000D03*
X53340000Y-106680000D03*
X45720000Y-109220000D03*
X53340000Y-104140000D03*
X45720000Y-111760000D03*
X53340000Y-101600000D03*
X45720000Y-114300000D03*
X53340000Y-99060000D03*
X45720000Y-116840000D03*
D19*
X76835000Y-99060000D03*
D20*
X69215000Y-116840000D03*
X76835000Y-101600000D03*
X69215000Y-114300000D03*
X76835000Y-104140000D03*
X69215000Y-111760000D03*
X76835000Y-106680000D03*
X69215000Y-109220000D03*
X76835000Y-109220000D03*
X69215000Y-106680000D03*
X76835000Y-111760000D03*
X69215000Y-104140000D03*
X76835000Y-114300000D03*
X69215000Y-101600000D03*
X76835000Y-116840000D03*
X69215000Y-99060000D03*
D19*
X76835000Y-116840000D03*
D20*
X69215000Y-99060000D03*
X76835000Y-114300000D03*
X69215000Y-101600000D03*
X76835000Y-111760000D03*
X69215000Y-104140000D03*
X76835000Y-109220000D03*
X69215000Y-106680000D03*
X76835000Y-106680000D03*
X69215000Y-109220000D03*
X76835000Y-104140000D03*
X69215000Y-111760000D03*
X76835000Y-101600000D03*
X69215000Y-114300000D03*
X76835000Y-99060000D03*
X69215000Y-116840000D03*
D19*
X69215000Y-116840000D03*
D20*
X76835000Y-99060000D03*
X69215000Y-114300000D03*
X76835000Y-101600000D03*
X69215000Y-111760000D03*
X76835000Y-104140000D03*
X69215000Y-109220000D03*
X76835000Y-106680000D03*
X69215000Y-106680000D03*
X76835000Y-109220000D03*
X69215000Y-104140000D03*
X76835000Y-111760000D03*
X69215000Y-101600000D03*
X76835000Y-114300000D03*
X69215000Y-99060000D03*
X76835000Y-116840000D03*
D19*
X69215000Y-99060000D03*
D20*
X76835000Y-116840000D03*
X69215000Y-101600000D03*
X76835000Y-114300000D03*
X69215000Y-104140000D03*
X76835000Y-111760000D03*
X69215000Y-106680000D03*
X76835000Y-109220000D03*
X69215000Y-109220000D03*
X76835000Y-106680000D03*
X69215000Y-111760000D03*
X76835000Y-104140000D03*
X69215000Y-114300000D03*
X76835000Y-101600000D03*
X69215000Y-116840000D03*
X76835000Y-99060000D03*
M02*
