G04 #@! TF.FileFunction,Legend,Top*
%FSLAX46Y46*%
G04 Gerber Fmt 4.6, Leading zero omitted, Abs format (unit mm)*
G04 Created by KiCad (PCBNEW 4.0.7) date Wednesday, January 10, 2018 'AMt' 07:06:06 AM*
%MOMM*%
%LPD*%
G01*
G04 APERTURE LIST*
%ADD10C,0.100000*%
%ADD11C,0.200000*%
%ADD12C,0.250000*%
%ADD13C,0.300000*%
%ADD14C,0.500000*%
%ADD15C,0.120000*%
%ADD16C,0.150000*%
%ADD17C,0.381000*%
%ADD18C,0.304800*%
%ADD19C,0.299720*%
%ADD20C,0.002540*%
%ADD21C,0.203200*%
G04 APERTURE END LIST*
D10*
D11*
X77453214Y-123642381D02*
X77578214Y-122642381D01*
X77530595Y-123023333D02*
X77631786Y-122975714D01*
X77822263Y-122975714D01*
X77911548Y-123023333D01*
X77953215Y-123070952D01*
X77988929Y-123166190D01*
X77953215Y-123451905D01*
X77893691Y-123547143D01*
X77840120Y-123594762D01*
X77738929Y-123642381D01*
X77548452Y-123642381D01*
X77459167Y-123594762D01*
X78346072Y-122975714D02*
X78500833Y-123642381D01*
X78822263Y-122975714D02*
X78500833Y-123642381D01*
X78375833Y-123880476D01*
X78322262Y-123928095D01*
X78221072Y-123975714D01*
X73869881Y-124880714D02*
X73762738Y-125737857D01*
X73703214Y-125833095D01*
X73602024Y-125880714D01*
X73554405Y-125880714D01*
X73911547Y-124547381D02*
X73857976Y-124595000D01*
X73899643Y-124642619D01*
X73953214Y-124595000D01*
X73911547Y-124547381D01*
X73899643Y-124642619D01*
X74649643Y-125499762D02*
X74548452Y-125547381D01*
X74357975Y-125547381D01*
X74268690Y-125499762D01*
X74232976Y-125404524D01*
X74280595Y-125023571D01*
X74340118Y-124928333D01*
X74441309Y-124880714D01*
X74631786Y-124880714D01*
X74721071Y-124928333D01*
X74756786Y-125023571D01*
X74744881Y-125118810D01*
X74256785Y-125214048D01*
X75548452Y-125547381D02*
X75673452Y-124547381D01*
X75554405Y-125499762D02*
X75453214Y-125547381D01*
X75262737Y-125547381D01*
X75173452Y-125499762D01*
X75131785Y-125452143D01*
X75096071Y-125356905D01*
X75131785Y-125071190D01*
X75191309Y-124975952D01*
X75244880Y-124928333D01*
X75346071Y-124880714D01*
X75536548Y-124880714D01*
X75625833Y-124928333D01*
X76024642Y-125547381D02*
X76107976Y-124880714D01*
X76149642Y-124547381D02*
X76096071Y-124595000D01*
X76137738Y-124642619D01*
X76191309Y-124595000D01*
X76149642Y-124547381D01*
X76137738Y-124642619D01*
X76441309Y-124880714D02*
X76822261Y-124880714D01*
X76625832Y-124547381D02*
X76518690Y-125404524D01*
X76554404Y-125499762D01*
X76643689Y-125547381D01*
X76738927Y-125547381D01*
X77459167Y-125499762D02*
X77357976Y-125547381D01*
X77167499Y-125547381D01*
X77078214Y-125499762D01*
X77042500Y-125404524D01*
X77090119Y-125023571D01*
X77149642Y-124928333D01*
X77250833Y-124880714D01*
X77441310Y-124880714D01*
X77530595Y-124928333D01*
X77566310Y-125023571D01*
X77554405Y-125118810D01*
X77066309Y-125214048D01*
X77929404Y-125547381D02*
X78054404Y-124547381D01*
X78072261Y-125166429D02*
X78310357Y-125547381D01*
X78393691Y-124880714D02*
X77965119Y-125261667D01*
X79250834Y-124880714D02*
X79167500Y-125547381D01*
X78822262Y-124880714D02*
X78756786Y-125404524D01*
X78792500Y-125499762D01*
X78881785Y-125547381D01*
X79024643Y-125547381D01*
X79125834Y-125499762D01*
X79179405Y-125452143D01*
X79727024Y-124880714D02*
X79643690Y-125547381D01*
X79715119Y-124975952D02*
X79768690Y-124928333D01*
X79869881Y-124880714D01*
X80012739Y-124880714D01*
X80102024Y-124928333D01*
X80137739Y-125023571D01*
X80072262Y-125547381D01*
X81060358Y-124880714D02*
X80977024Y-125547381D01*
X80631786Y-124880714D02*
X80566310Y-125404524D01*
X80602024Y-125499762D01*
X80691309Y-125547381D01*
X80834167Y-125547381D01*
X80935358Y-125499762D01*
X80988929Y-125452143D01*
X81453214Y-125547381D02*
X81536548Y-124880714D01*
X81524643Y-124975952D02*
X81578214Y-124928333D01*
X81679405Y-124880714D01*
X81822263Y-124880714D01*
X81911548Y-124928333D01*
X81947263Y-125023571D01*
X81881786Y-125547381D01*
X81947263Y-125023571D02*
X82006786Y-124928333D01*
X82107977Y-124880714D01*
X82250834Y-124880714D01*
X82340119Y-124928333D01*
X82375834Y-125023571D01*
X82310357Y-125547381D01*
D12*
X68957143Y-122922143D02*
X69254762Y-123755476D01*
X69552382Y-122922143D01*
X70683334Y-123755476D02*
X69969048Y-123755476D01*
X70326191Y-123755476D02*
X70326191Y-122505476D01*
X70207143Y-122684048D01*
X70088096Y-122803095D01*
X69969048Y-122862619D01*
D13*
X56102857Y-123868571D02*
X56102857Y-122368571D01*
X56745714Y-123797143D02*
X56888571Y-123868571D01*
X57174286Y-123868571D01*
X57317143Y-123797143D01*
X57388571Y-123654286D01*
X57388571Y-123582857D01*
X57317143Y-123440000D01*
X57174286Y-123368571D01*
X56960000Y-123368571D01*
X56817143Y-123297143D01*
X56745714Y-123154286D01*
X56745714Y-123082857D01*
X56817143Y-122940000D01*
X56960000Y-122868571D01*
X57174286Y-122868571D01*
X57317143Y-122940000D01*
X58245715Y-123868571D02*
X58102857Y-123797143D01*
X58031429Y-123725714D01*
X57960000Y-123582857D01*
X57960000Y-123154286D01*
X58031429Y-123011429D01*
X58102857Y-122940000D01*
X58245715Y-122868571D01*
X58460000Y-122868571D01*
X58602857Y-122940000D01*
X58674286Y-123011429D01*
X58745715Y-123154286D01*
X58745715Y-123582857D01*
X58674286Y-123725714D01*
X58602857Y-123797143D01*
X58460000Y-123868571D01*
X58245715Y-123868571D01*
X59388572Y-123297143D02*
X60531429Y-123297143D01*
X61245715Y-123868571D02*
X61245715Y-122368571D01*
X63031429Y-122297143D02*
X61745715Y-124225714D01*
X63817144Y-122368571D02*
X64102858Y-122368571D01*
X64245716Y-122440000D01*
X64388573Y-122582857D01*
X64460001Y-122868571D01*
X64460001Y-123368571D01*
X64388573Y-123654286D01*
X64245716Y-123797143D01*
X64102858Y-123868571D01*
X63817144Y-123868571D01*
X63674287Y-123797143D01*
X63531430Y-123654286D01*
X63460001Y-123368571D01*
X63460001Y-122868571D01*
X63531430Y-122582857D01*
X63674287Y-122440000D01*
X63817144Y-122368571D01*
X65317145Y-123011429D02*
X65174287Y-122940000D01*
X65102859Y-122868571D01*
X65031430Y-122725714D01*
X65031430Y-122654286D01*
X65102859Y-122511429D01*
X65174287Y-122440000D01*
X65317145Y-122368571D01*
X65602859Y-122368571D01*
X65745716Y-122440000D01*
X65817145Y-122511429D01*
X65888573Y-122654286D01*
X65888573Y-122725714D01*
X65817145Y-122868571D01*
X65745716Y-122940000D01*
X65602859Y-123011429D01*
X65317145Y-123011429D01*
X65174287Y-123082857D01*
X65102859Y-123154286D01*
X65031430Y-123297143D01*
X65031430Y-123582857D01*
X65102859Y-123725714D01*
X65174287Y-123797143D01*
X65317145Y-123868571D01*
X65602859Y-123868571D01*
X65745716Y-123797143D01*
X65817145Y-123725714D01*
X65888573Y-123582857D01*
X65888573Y-123297143D01*
X65817145Y-123154286D01*
X65745716Y-123082857D01*
X65602859Y-123011429D01*
D14*
X67945000Y-96393000D02*
G75*
G03X67945000Y-96393000I-254000J0D01*
G01*
X77470000Y-119253000D02*
G75*
G03X77470000Y-119253000I-254000J0D01*
G01*
X54610000Y-119253000D02*
G75*
G03X54610000Y-119253000I-254000J0D01*
G01*
X45085000Y-96393000D02*
G75*
G03X45085000Y-96393000I-254000J0D01*
G01*
D11*
X72390000Y-94615000D02*
X83820000Y-94615000D01*
X72390000Y-121285000D02*
X72390000Y-94615000D01*
X49530000Y-121285000D02*
X72390000Y-121285000D01*
X49530000Y-94615000D02*
X49530000Y-121285000D01*
X49530000Y-94615000D02*
X38100000Y-94615000D01*
X63752976Y-117292381D02*
X63276785Y-117292381D01*
X63401785Y-116292381D01*
X58672976Y-117292381D02*
X58196785Y-117292381D01*
X58321785Y-116292381D01*
X81532976Y-99512381D02*
X81056785Y-99512381D01*
X81181785Y-98512381D01*
X80937738Y-117292381D02*
X81062738Y-116292381D01*
X81003215Y-116768571D02*
X81574644Y-116768571D01*
X81509167Y-117292381D02*
X81634167Y-116292381D01*
X63157738Y-99512381D02*
X63282738Y-98512381D01*
X63223215Y-98988571D02*
X63794644Y-98988571D01*
X63729167Y-99512381D02*
X63854167Y-98512381D01*
X58077738Y-99512381D02*
X58202738Y-98512381D01*
X58143215Y-98988571D02*
X58714644Y-98988571D01*
X58649167Y-99512381D02*
X58774167Y-98512381D01*
X40297738Y-117292381D02*
X40422738Y-116292381D01*
X40363215Y-116768571D02*
X40934644Y-116768571D01*
X40869167Y-117292381D02*
X40994167Y-116292381D01*
X40892976Y-99512381D02*
X40416785Y-99512381D01*
X40541785Y-98512381D01*
X51109524Y-67762381D02*
X50633333Y-67762381D01*
X50633333Y-66762381D01*
X73374286Y-67762381D02*
X73374286Y-66762381D01*
X73374286Y-67238571D02*
X73945715Y-67238571D01*
X73945715Y-67762381D02*
X73945715Y-66762381D01*
X70786667Y-66762381D02*
X71453334Y-66762381D01*
X71024762Y-67762381D01*
X68770477Y-66762381D02*
X68580000Y-66762381D01*
X68484762Y-66810000D01*
X68437143Y-66857619D01*
X68341905Y-67000476D01*
X68294286Y-67190952D01*
X68294286Y-67571905D01*
X68341905Y-67667143D01*
X68389524Y-67714762D01*
X68484762Y-67762381D01*
X68675239Y-67762381D01*
X68770477Y-67714762D01*
X68818096Y-67667143D01*
X68865715Y-67571905D01*
X68865715Y-67333810D01*
X68818096Y-67238571D01*
X68770477Y-67190952D01*
X68675239Y-67143333D01*
X68484762Y-67143333D01*
X68389524Y-67190952D01*
X68341905Y-67238571D01*
X68294286Y-67333810D01*
X66278096Y-66762381D02*
X65801905Y-66762381D01*
X65754286Y-67238571D01*
X65801905Y-67190952D01*
X65897143Y-67143333D01*
X66135239Y-67143333D01*
X66230477Y-67190952D01*
X66278096Y-67238571D01*
X66325715Y-67333810D01*
X66325715Y-67571905D01*
X66278096Y-67667143D01*
X66230477Y-67714762D01*
X66135239Y-67762381D01*
X65897143Y-67762381D01*
X65801905Y-67714762D01*
X65754286Y-67667143D01*
X63690477Y-67095714D02*
X63690477Y-67762381D01*
X63452381Y-66714762D02*
X63214286Y-67429048D01*
X63833334Y-67429048D01*
X60626667Y-66762381D02*
X61245715Y-66762381D01*
X60912381Y-67143333D01*
X61055239Y-67143333D01*
X61150477Y-67190952D01*
X61198096Y-67238571D01*
X61245715Y-67333810D01*
X61245715Y-67571905D01*
X61198096Y-67667143D01*
X61150477Y-67714762D01*
X61055239Y-67762381D01*
X60769524Y-67762381D01*
X60674286Y-67714762D01*
X60626667Y-67667143D01*
X58134286Y-66857619D02*
X58181905Y-66810000D01*
X58277143Y-66762381D01*
X58515239Y-66762381D01*
X58610477Y-66810000D01*
X58658096Y-66857619D01*
X58705715Y-66952857D01*
X58705715Y-67048095D01*
X58658096Y-67190952D01*
X58086667Y-67762381D01*
X58705715Y-67762381D01*
X56165715Y-67762381D02*
X55594286Y-67762381D01*
X55880000Y-67762381D02*
X55880000Y-66762381D01*
X55784762Y-66905238D01*
X55689524Y-67000476D01*
X55594286Y-67048095D01*
X38000000Y-66000000D02*
X38000000Y-68000000D01*
X84000000Y-66000000D02*
X84000000Y-67000000D01*
X53292381Y-66762381D02*
X53387620Y-66762381D01*
X53482858Y-66810000D01*
X53530477Y-66857619D01*
X53578096Y-66952857D01*
X53625715Y-67143333D01*
X53625715Y-67381429D01*
X53578096Y-67571905D01*
X53530477Y-67667143D01*
X53482858Y-67714762D01*
X53387620Y-67762381D01*
X53292381Y-67762381D01*
X53197143Y-67714762D01*
X53149524Y-67667143D01*
X53101905Y-67571905D01*
X53054286Y-67381429D01*
X53054286Y-67143333D01*
X53101905Y-66952857D01*
X53149524Y-66857619D01*
X53197143Y-66810000D01*
X53292381Y-66762381D01*
X84000000Y-67000000D02*
X84000000Y-68000000D01*
X38000000Y-66000000D02*
X84000000Y-66000000D01*
X38000000Y-136000000D02*
X84000000Y-136000000D01*
D13*
X43108572Y-83633571D02*
X43251429Y-83633571D01*
X43394286Y-83705000D01*
X43465715Y-83776429D01*
X43537144Y-83919286D01*
X43608572Y-84205000D01*
X43608572Y-84562143D01*
X43537144Y-84847857D01*
X43465715Y-84990714D01*
X43394286Y-85062143D01*
X43251429Y-85133571D01*
X43108572Y-85133571D01*
X42965715Y-85062143D01*
X42894286Y-84990714D01*
X42822858Y-84847857D01*
X42751429Y-84562143D01*
X42751429Y-84205000D01*
X42822858Y-83919286D01*
X42894286Y-83776429D01*
X42965715Y-83705000D01*
X43108572Y-83633571D01*
X78240001Y-83633571D02*
X79240001Y-83633571D01*
X78597144Y-85133571D01*
X73945715Y-83633571D02*
X73660001Y-83633571D01*
X73517144Y-83705000D01*
X73445715Y-83776429D01*
X73302858Y-83990714D01*
X73231429Y-84276429D01*
X73231429Y-84847857D01*
X73302858Y-84990714D01*
X73374286Y-85062143D01*
X73517144Y-85133571D01*
X73802858Y-85133571D01*
X73945715Y-85062143D01*
X74017144Y-84990714D01*
X74088572Y-84847857D01*
X74088572Y-84490714D01*
X74017144Y-84347857D01*
X73945715Y-84276429D01*
X73802858Y-84205000D01*
X73517144Y-84205000D01*
X73374286Y-84276429D01*
X73302858Y-84347857D01*
X73231429Y-84490714D01*
X68937144Y-83633571D02*
X68222858Y-83633571D01*
X68151429Y-84347857D01*
X68222858Y-84276429D01*
X68365715Y-84205000D01*
X68722858Y-84205000D01*
X68865715Y-84276429D01*
X68937144Y-84347857D01*
X69008572Y-84490714D01*
X69008572Y-84847857D01*
X68937144Y-84990714D01*
X68865715Y-85062143D01*
X68722858Y-85133571D01*
X68365715Y-85133571D01*
X68222858Y-85062143D01*
X68151429Y-84990714D01*
X63150715Y-84133571D02*
X63150715Y-85133571D01*
X62793572Y-83562143D02*
X62436429Y-84633571D01*
X63365001Y-84633571D01*
X57920001Y-83633571D02*
X58848572Y-83633571D01*
X58348572Y-84205000D01*
X58562858Y-84205000D01*
X58705715Y-84276429D01*
X58777144Y-84347857D01*
X58848572Y-84490714D01*
X58848572Y-84847857D01*
X58777144Y-84990714D01*
X58705715Y-85062143D01*
X58562858Y-85133571D01*
X58134286Y-85133571D01*
X57991429Y-85062143D01*
X57920001Y-84990714D01*
X52911429Y-83776429D02*
X52982858Y-83705000D01*
X53125715Y-83633571D01*
X53482858Y-83633571D01*
X53625715Y-83705000D01*
X53697144Y-83776429D01*
X53768572Y-83919286D01*
X53768572Y-84062143D01*
X53697144Y-84276429D01*
X52840001Y-85133571D01*
X53768572Y-85133571D01*
X48688572Y-85133571D02*
X47831429Y-85133571D01*
X48260001Y-85133571D02*
X48260001Y-83633571D01*
X48117144Y-83847857D01*
X47974286Y-83990714D01*
X47831429Y-84062143D01*
D11*
X38000000Y-136000000D02*
X38000000Y-68000000D01*
X84000000Y-68000000D02*
X84000000Y-136000000D01*
D15*
X41970000Y-113030000D02*
X41970000Y-100270000D01*
X41970000Y-100270000D02*
X39310000Y-100270000D01*
X39310000Y-100270000D02*
X39310000Y-113030000D01*
X39310000Y-113030000D02*
X41970000Y-113030000D01*
X41970000Y-114300000D02*
X41970000Y-115630000D01*
X41970000Y-115630000D02*
X40640000Y-115630000D01*
X82610000Y-113030000D02*
X82610000Y-100270000D01*
X82610000Y-100270000D02*
X79950000Y-100270000D01*
X79950000Y-100270000D02*
X79950000Y-113030000D01*
X79950000Y-113030000D02*
X82610000Y-113030000D01*
X82610000Y-114300000D02*
X82610000Y-115630000D01*
X82610000Y-115630000D02*
X81280000Y-115630000D01*
X62170000Y-102870000D02*
X62170000Y-115630000D01*
X62170000Y-115630000D02*
X64830000Y-115630000D01*
X64830000Y-115630000D02*
X64830000Y-102870000D01*
X64830000Y-102870000D02*
X62170000Y-102870000D01*
X62170000Y-101600000D02*
X62170000Y-100270000D01*
X62170000Y-100270000D02*
X63500000Y-100270000D01*
D16*
X46720000Y-68320000D02*
X49260000Y-68320000D01*
X49260000Y-68320000D02*
X49260000Y-79000000D01*
X49260000Y-79000000D02*
X46720000Y-79000000D01*
X46720000Y-79000000D02*
X46720000Y-68320000D01*
X49260000Y-68320000D02*
X51800000Y-68320000D01*
X51800000Y-68320000D02*
X51800000Y-79000000D01*
X51800000Y-79000000D02*
X49260000Y-79000000D01*
X51800000Y-68320000D02*
X54340000Y-68320000D01*
X54340000Y-68320000D02*
X54340000Y-79000000D01*
X54340000Y-79000000D02*
X51800000Y-79000000D01*
X54340000Y-68320000D02*
X56880000Y-68320000D01*
X56880000Y-68320000D02*
X56880000Y-79000000D01*
X56880000Y-79000000D02*
X54340000Y-79000000D01*
X56880000Y-68320000D02*
X59420000Y-68320000D01*
X59420000Y-68320000D02*
X59420000Y-79000000D01*
X59420000Y-79000000D02*
X56880000Y-79000000D01*
X59420000Y-68320000D02*
X61960000Y-68320000D01*
X61960000Y-68320000D02*
X61960000Y-79000000D01*
X61960000Y-79000000D02*
X59420000Y-79000000D01*
X61960000Y-68320000D02*
X64500000Y-68320000D01*
X64500000Y-68320000D02*
X64500000Y-79000000D01*
X64500000Y-79000000D02*
X61960000Y-79000000D01*
X64500000Y-68320000D02*
X67040000Y-68320000D01*
X67040000Y-68320000D02*
X67040000Y-79000000D01*
X67040000Y-79000000D02*
X64500000Y-79000000D01*
X67040000Y-68320000D02*
X69580000Y-68320000D01*
X69580000Y-68320000D02*
X69580000Y-79000000D01*
X69580000Y-79000000D02*
X67040000Y-79000000D01*
X69580000Y-68320000D02*
X72120000Y-68320000D01*
X72120000Y-68320000D02*
X72120000Y-79000000D01*
X72120000Y-79000000D02*
X69580000Y-79000000D01*
X72120000Y-68320000D02*
X74660000Y-68320000D01*
X74660000Y-68320000D02*
X74660000Y-79000000D01*
X74660000Y-79000000D02*
X72120000Y-79000000D01*
X49530000Y-79000000D02*
X49530000Y-81120000D01*
X49530000Y-81120000D02*
X51530000Y-81120000D01*
X51530000Y-81120000D02*
X51530000Y-79000000D01*
X52070000Y-79000000D02*
X52070000Y-81120000D01*
X52070000Y-81120000D02*
X54070000Y-81120000D01*
X54070000Y-81120000D02*
X54070000Y-79000000D01*
X54610000Y-79000000D02*
X54610000Y-81120000D01*
X54610000Y-81120000D02*
X56610000Y-81120000D01*
X56610000Y-81120000D02*
X56610000Y-79000000D01*
X57150000Y-79000000D02*
X57150000Y-81120000D01*
X57150000Y-81120000D02*
X59150000Y-81120000D01*
X59150000Y-81120000D02*
X59150000Y-79000000D01*
X59690000Y-79000000D02*
X59690000Y-81120000D01*
X59690000Y-81120000D02*
X61690000Y-81120000D01*
X61690000Y-81120000D02*
X61690000Y-79000000D01*
X62230000Y-79000000D02*
X62230000Y-81120000D01*
X62230000Y-81120000D02*
X64230000Y-81120000D01*
X64230000Y-81120000D02*
X64230000Y-79000000D01*
X64770000Y-79000000D02*
X64770000Y-81120000D01*
X64770000Y-81120000D02*
X66770000Y-81120000D01*
X66770000Y-81120000D02*
X66770000Y-79000000D01*
X67310000Y-79000000D02*
X67310000Y-81120000D01*
X67310000Y-81120000D02*
X69310000Y-81120000D01*
X69310000Y-81120000D02*
X69310000Y-79000000D01*
X69850000Y-79000000D02*
X69850000Y-81120000D01*
X69850000Y-81120000D02*
X71850000Y-81120000D01*
X71850000Y-81120000D02*
X71850000Y-79000000D01*
X72390000Y-79000000D02*
X72390000Y-81120000D01*
X72390000Y-81120000D02*
X74390000Y-81120000D01*
X74390000Y-81120000D02*
X74390000Y-79000000D01*
D17*
X50460000Y-75340000D02*
X50460000Y-74940000D01*
X46960000Y-75340000D02*
X46960000Y-74940000D01*
X53960000Y-75340000D02*
X53960000Y-74940000D01*
X67960000Y-75340000D02*
X67960000Y-74940000D01*
X57460000Y-75340000D02*
X57460000Y-74940000D01*
X60960000Y-75340000D02*
X60960000Y-74940000D01*
X74960000Y-75340000D02*
X74960000Y-74940000D01*
X71460000Y-75340000D02*
X71460000Y-74940000D01*
X64460000Y-75340000D02*
X64460000Y-74940000D01*
X78460000Y-76440000D02*
X43460000Y-76440000D01*
X78460000Y-75340000D02*
X43460000Y-75340000D01*
X78460000Y-82540000D02*
X78460000Y-74940000D01*
X43460000Y-74940000D02*
X43460000Y-82540000D01*
X43460000Y-82540000D02*
X78460000Y-82540000D01*
D15*
X57090000Y-102870000D02*
X57090000Y-115630000D01*
X57090000Y-115630000D02*
X59750000Y-115630000D01*
X59750000Y-115630000D02*
X59750000Y-102870000D01*
X59750000Y-102870000D02*
X57090000Y-102870000D01*
X57090000Y-101600000D02*
X57090000Y-100270000D01*
X57090000Y-100270000D02*
X58420000Y-100270000D01*
D18*
X71360000Y-125475000D02*
X50560000Y-125475000D01*
X50560000Y-134875000D02*
X71360000Y-134875000D01*
X71360000Y-134875000D02*
X71360000Y-125475000D01*
X50560000Y-134875000D02*
X50560000Y-125475000D01*
D19*
X58660000Y-125475000D02*
X58660000Y-126875000D01*
X58660000Y-126875000D02*
X63260000Y-126875000D01*
X63260000Y-126875000D02*
X63260000Y-125475000D01*
D15*
X44510000Y-88900000D02*
X44510000Y-86300000D01*
X44510000Y-86300000D02*
X41850000Y-86300000D01*
X41850000Y-86300000D02*
X41850000Y-88900000D01*
X41850000Y-88900000D02*
X44510000Y-88900000D01*
X44510000Y-90170000D02*
X44510000Y-91500000D01*
X44510000Y-91500000D02*
X43180000Y-91500000D01*
X49590000Y-88900000D02*
X49590000Y-86300000D01*
X49590000Y-86300000D02*
X46930000Y-86300000D01*
X46930000Y-86300000D02*
X46930000Y-88900000D01*
X46930000Y-88900000D02*
X49590000Y-88900000D01*
X49590000Y-90170000D02*
X49590000Y-91500000D01*
X49590000Y-91500000D02*
X48260000Y-91500000D01*
X54670000Y-88900000D02*
X54670000Y-86300000D01*
X54670000Y-86300000D02*
X52010000Y-86300000D01*
X52010000Y-86300000D02*
X52010000Y-88900000D01*
X52010000Y-88900000D02*
X54670000Y-88900000D01*
X54670000Y-90170000D02*
X54670000Y-91500000D01*
X54670000Y-91500000D02*
X53340000Y-91500000D01*
X59750000Y-88900000D02*
X59750000Y-86300000D01*
X59750000Y-86300000D02*
X57090000Y-86300000D01*
X57090000Y-86300000D02*
X57090000Y-88900000D01*
X57090000Y-88900000D02*
X59750000Y-88900000D01*
X59750000Y-90170000D02*
X59750000Y-91500000D01*
X59750000Y-91500000D02*
X58420000Y-91500000D01*
X64830000Y-88900000D02*
X64830000Y-86300000D01*
X64830000Y-86300000D02*
X62170000Y-86300000D01*
X62170000Y-86300000D02*
X62170000Y-88900000D01*
X62170000Y-88900000D02*
X64830000Y-88900000D01*
X64830000Y-90170000D02*
X64830000Y-91500000D01*
X64830000Y-91500000D02*
X63500000Y-91500000D01*
X69910000Y-88900000D02*
X69910000Y-86300000D01*
X69910000Y-86300000D02*
X67250000Y-86300000D01*
X67250000Y-86300000D02*
X67250000Y-88900000D01*
X67250000Y-88900000D02*
X69910000Y-88900000D01*
X69910000Y-90170000D02*
X69910000Y-91500000D01*
X69910000Y-91500000D02*
X68580000Y-91500000D01*
X74990000Y-88900000D02*
X74990000Y-86300000D01*
X74990000Y-86300000D02*
X72330000Y-86300000D01*
X72330000Y-86300000D02*
X72330000Y-88900000D01*
X72330000Y-88900000D02*
X74990000Y-88900000D01*
X74990000Y-90170000D02*
X74990000Y-91500000D01*
X74990000Y-91500000D02*
X73660000Y-91500000D01*
X80070000Y-88900000D02*
X80070000Y-86300000D01*
X80070000Y-86300000D02*
X77410000Y-86300000D01*
X77410000Y-86300000D02*
X77410000Y-88900000D01*
X77410000Y-88900000D02*
X80070000Y-88900000D01*
X80070000Y-90170000D02*
X80070000Y-91500000D01*
X80070000Y-91500000D02*
X78740000Y-91500000D01*
X50530000Y-97730000D02*
G75*
G02X48530000Y-97730000I-1000000J0D01*
G01*
X48530000Y-97730000D02*
X46880000Y-97730000D01*
X46880000Y-97730000D02*
X46880000Y-118170000D01*
X46880000Y-118170000D02*
X52180000Y-118170000D01*
X52180000Y-118170000D02*
X52180000Y-97730000D01*
X52180000Y-97730000D02*
X50530000Y-97730000D01*
X48530000Y-118170000D02*
G75*
G02X50530000Y-118170000I1000000J0D01*
G01*
X50530000Y-118170000D02*
X52180000Y-118170000D01*
X52180000Y-118170000D02*
X52180000Y-97730000D01*
X52180000Y-97730000D02*
X46880000Y-97730000D01*
X46880000Y-97730000D02*
X46880000Y-118170000D01*
X46880000Y-118170000D02*
X48530000Y-118170000D01*
X72025000Y-118170000D02*
G75*
G02X74025000Y-118170000I1000000J0D01*
G01*
X74025000Y-118170000D02*
X75675000Y-118170000D01*
X75675000Y-118170000D02*
X75675000Y-97730000D01*
X75675000Y-97730000D02*
X70375000Y-97730000D01*
X70375000Y-97730000D02*
X70375000Y-118170000D01*
X70375000Y-118170000D02*
X72025000Y-118170000D01*
X74025000Y-97730000D02*
G75*
G02X72025000Y-97730000I-1000000J0D01*
G01*
X72025000Y-97730000D02*
X70375000Y-97730000D01*
X70375000Y-97730000D02*
X70375000Y-118170000D01*
X70375000Y-118170000D02*
X75675000Y-118170000D01*
X75675000Y-118170000D02*
X75675000Y-97730000D01*
X75675000Y-97730000D02*
X74025000Y-97730000D01*
D20*
G36*
X49194720Y-126210060D02*
X49105820Y-126210060D01*
X49105820Y-125158500D01*
X49105820Y-124010420D01*
X49105820Y-122859800D01*
X49075340Y-122829320D01*
X49047400Y-122801380D01*
X44196000Y-122801380D01*
X39344600Y-122801380D01*
X39316660Y-122829320D01*
X39286180Y-122859800D01*
X39286180Y-124010420D01*
X39286180Y-125158500D01*
X39463980Y-125158500D01*
X39641780Y-125158500D01*
X39707820Y-125260100D01*
X39804340Y-125392180D01*
X39916100Y-125511560D01*
X40040560Y-125618240D01*
X40177720Y-125712220D01*
X40322500Y-125790960D01*
X40477440Y-125851920D01*
X40640000Y-125897640D01*
X40769540Y-125917960D01*
X40835580Y-125923040D01*
X40916860Y-125925580D01*
X41003220Y-125923040D01*
X41089580Y-125915420D01*
X41168320Y-125907800D01*
X41214040Y-125900180D01*
X41384220Y-125854460D01*
X41541700Y-125796040D01*
X41691560Y-125717300D01*
X41828720Y-125623320D01*
X41958260Y-125509020D01*
X42011600Y-125455680D01*
X42054780Y-125407420D01*
X42100500Y-125351540D01*
X42141140Y-125298200D01*
X42166540Y-125260100D01*
X42232580Y-125161040D01*
X45666660Y-125158500D01*
X49105820Y-125158500D01*
X49105820Y-126210060D01*
X49095660Y-126210060D01*
X49095660Y-126128780D01*
X49095660Y-125689360D01*
X49095660Y-125249940D01*
X45694600Y-125249940D01*
X42298620Y-125249940D01*
X42235120Y-125341380D01*
X42158920Y-125448060D01*
X42085260Y-125542040D01*
X42006520Y-125620780D01*
X41925240Y-125686820D01*
X41833800Y-125750320D01*
X41765220Y-125790960D01*
X41656000Y-125846840D01*
X41559480Y-125892560D01*
X41468040Y-125928120D01*
X41374060Y-125958600D01*
X41277540Y-125984000D01*
X41272460Y-125984000D01*
X41127680Y-126009400D01*
X40995600Y-126022100D01*
X40866060Y-126022100D01*
X40733980Y-126009400D01*
X40599360Y-125984000D01*
X40446960Y-125938280D01*
X40294560Y-125872240D01*
X40137080Y-125788420D01*
X39979600Y-125684280D01*
X39926260Y-125646180D01*
X39885620Y-125613160D01*
X39839900Y-125567440D01*
X39789100Y-125516640D01*
X39735760Y-125460760D01*
X39687500Y-125404880D01*
X39644320Y-125354080D01*
X39611300Y-125308360D01*
X39596060Y-125280420D01*
X39578280Y-125249940D01*
X39428420Y-125249940D01*
X39276020Y-125249940D01*
X39276020Y-125689360D01*
X39276020Y-126128780D01*
X44188380Y-126128780D01*
X49095660Y-126128780D01*
X49095660Y-126210060D01*
X44201080Y-126210060D01*
X39209980Y-126210060D01*
X39202360Y-126065280D01*
X39202360Y-126037340D01*
X39199820Y-125991620D01*
X39199820Y-125928120D01*
X39199820Y-125849380D01*
X39199820Y-125757940D01*
X39197280Y-125656340D01*
X39197280Y-125539500D01*
X39197280Y-125415040D01*
X39197280Y-125282960D01*
X39197280Y-125140720D01*
X39197280Y-124993400D01*
X39197280Y-124841000D01*
X39197280Y-124686060D01*
X39197280Y-124528580D01*
X39199820Y-124373640D01*
X39199820Y-124213620D01*
X39199820Y-124056140D01*
X39199820Y-123903740D01*
X39199820Y-123751340D01*
X39202360Y-123606560D01*
X39202360Y-123469400D01*
X39202360Y-123339860D01*
X39202360Y-123217940D01*
X39204900Y-123106180D01*
X39204900Y-123007120D01*
X39204900Y-122920760D01*
X39207440Y-122847100D01*
X39207440Y-122791220D01*
X39207440Y-122750580D01*
X39209980Y-122727720D01*
X39209980Y-122725180D01*
X39220140Y-122722640D01*
X39250620Y-122722640D01*
X39298880Y-122722640D01*
X39364920Y-122722640D01*
X39446200Y-122722640D01*
X39547800Y-122722640D01*
X39662100Y-122720100D01*
X39791640Y-122720100D01*
X39936420Y-122720100D01*
X40093900Y-122720100D01*
X40264080Y-122720100D01*
X40444420Y-122720100D01*
X40637460Y-122717560D01*
X40840660Y-122717560D01*
X41054020Y-122717560D01*
X41277540Y-122717560D01*
X41508680Y-122717560D01*
X41744900Y-122717560D01*
X41991280Y-122717560D01*
X42242740Y-122717560D01*
X42499280Y-122715020D01*
X42758360Y-122715020D01*
X43025060Y-122715020D01*
X43291760Y-122715020D01*
X43563540Y-122715020D01*
X43835320Y-122715020D01*
X44107100Y-122715020D01*
X44378880Y-122715020D01*
X44650660Y-122715020D01*
X44922440Y-122715020D01*
X45191680Y-122715020D01*
X45458380Y-122715020D01*
X45720000Y-122715020D01*
X45979080Y-122715020D01*
X46233080Y-122715020D01*
X46482000Y-122715020D01*
X46723300Y-122715020D01*
X46959520Y-122715020D01*
X47185580Y-122715020D01*
X47404020Y-122715020D01*
X47612300Y-122715020D01*
X47810420Y-122715020D01*
X48000920Y-122715020D01*
X48176180Y-122715020D01*
X48341280Y-122715020D01*
X48491140Y-122715020D01*
X48628300Y-122715020D01*
X48752760Y-122715020D01*
X48859440Y-122715020D01*
X48950880Y-122717560D01*
X49027080Y-122717560D01*
X49085500Y-122717560D01*
X49123600Y-122717560D01*
X49146460Y-122717560D01*
X49149000Y-122717560D01*
X49194720Y-122722640D01*
X49194720Y-124465080D01*
X49194720Y-126210060D01*
X49194720Y-126210060D01*
X49194720Y-126210060D01*
G37*
X49194720Y-126210060D02*
X49105820Y-126210060D01*
X49105820Y-125158500D01*
X49105820Y-124010420D01*
X49105820Y-122859800D01*
X49075340Y-122829320D01*
X49047400Y-122801380D01*
X44196000Y-122801380D01*
X39344600Y-122801380D01*
X39316660Y-122829320D01*
X39286180Y-122859800D01*
X39286180Y-124010420D01*
X39286180Y-125158500D01*
X39463980Y-125158500D01*
X39641780Y-125158500D01*
X39707820Y-125260100D01*
X39804340Y-125392180D01*
X39916100Y-125511560D01*
X40040560Y-125618240D01*
X40177720Y-125712220D01*
X40322500Y-125790960D01*
X40477440Y-125851920D01*
X40640000Y-125897640D01*
X40769540Y-125917960D01*
X40835580Y-125923040D01*
X40916860Y-125925580D01*
X41003220Y-125923040D01*
X41089580Y-125915420D01*
X41168320Y-125907800D01*
X41214040Y-125900180D01*
X41384220Y-125854460D01*
X41541700Y-125796040D01*
X41691560Y-125717300D01*
X41828720Y-125623320D01*
X41958260Y-125509020D01*
X42011600Y-125455680D01*
X42054780Y-125407420D01*
X42100500Y-125351540D01*
X42141140Y-125298200D01*
X42166540Y-125260100D01*
X42232580Y-125161040D01*
X45666660Y-125158500D01*
X49105820Y-125158500D01*
X49105820Y-126210060D01*
X49095660Y-126210060D01*
X49095660Y-126128780D01*
X49095660Y-125689360D01*
X49095660Y-125249940D01*
X45694600Y-125249940D01*
X42298620Y-125249940D01*
X42235120Y-125341380D01*
X42158920Y-125448060D01*
X42085260Y-125542040D01*
X42006520Y-125620780D01*
X41925240Y-125686820D01*
X41833800Y-125750320D01*
X41765220Y-125790960D01*
X41656000Y-125846840D01*
X41559480Y-125892560D01*
X41468040Y-125928120D01*
X41374060Y-125958600D01*
X41277540Y-125984000D01*
X41272460Y-125984000D01*
X41127680Y-126009400D01*
X40995600Y-126022100D01*
X40866060Y-126022100D01*
X40733980Y-126009400D01*
X40599360Y-125984000D01*
X40446960Y-125938280D01*
X40294560Y-125872240D01*
X40137080Y-125788420D01*
X39979600Y-125684280D01*
X39926260Y-125646180D01*
X39885620Y-125613160D01*
X39839900Y-125567440D01*
X39789100Y-125516640D01*
X39735760Y-125460760D01*
X39687500Y-125404880D01*
X39644320Y-125354080D01*
X39611300Y-125308360D01*
X39596060Y-125280420D01*
X39578280Y-125249940D01*
X39428420Y-125249940D01*
X39276020Y-125249940D01*
X39276020Y-125689360D01*
X39276020Y-126128780D01*
X44188380Y-126128780D01*
X49095660Y-126128780D01*
X49095660Y-126210060D01*
X44201080Y-126210060D01*
X39209980Y-126210060D01*
X39202360Y-126065280D01*
X39202360Y-126037340D01*
X39199820Y-125991620D01*
X39199820Y-125928120D01*
X39199820Y-125849380D01*
X39199820Y-125757940D01*
X39197280Y-125656340D01*
X39197280Y-125539500D01*
X39197280Y-125415040D01*
X39197280Y-125282960D01*
X39197280Y-125140720D01*
X39197280Y-124993400D01*
X39197280Y-124841000D01*
X39197280Y-124686060D01*
X39197280Y-124528580D01*
X39199820Y-124373640D01*
X39199820Y-124213620D01*
X39199820Y-124056140D01*
X39199820Y-123903740D01*
X39199820Y-123751340D01*
X39202360Y-123606560D01*
X39202360Y-123469400D01*
X39202360Y-123339860D01*
X39202360Y-123217940D01*
X39204900Y-123106180D01*
X39204900Y-123007120D01*
X39204900Y-122920760D01*
X39207440Y-122847100D01*
X39207440Y-122791220D01*
X39207440Y-122750580D01*
X39209980Y-122727720D01*
X39209980Y-122725180D01*
X39220140Y-122722640D01*
X39250620Y-122722640D01*
X39298880Y-122722640D01*
X39364920Y-122722640D01*
X39446200Y-122722640D01*
X39547800Y-122722640D01*
X39662100Y-122720100D01*
X39791640Y-122720100D01*
X39936420Y-122720100D01*
X40093900Y-122720100D01*
X40264080Y-122720100D01*
X40444420Y-122720100D01*
X40637460Y-122717560D01*
X40840660Y-122717560D01*
X41054020Y-122717560D01*
X41277540Y-122717560D01*
X41508680Y-122717560D01*
X41744900Y-122717560D01*
X41991280Y-122717560D01*
X42242740Y-122717560D01*
X42499280Y-122715020D01*
X42758360Y-122715020D01*
X43025060Y-122715020D01*
X43291760Y-122715020D01*
X43563540Y-122715020D01*
X43835320Y-122715020D01*
X44107100Y-122715020D01*
X44378880Y-122715020D01*
X44650660Y-122715020D01*
X44922440Y-122715020D01*
X45191680Y-122715020D01*
X45458380Y-122715020D01*
X45720000Y-122715020D01*
X45979080Y-122715020D01*
X46233080Y-122715020D01*
X46482000Y-122715020D01*
X46723300Y-122715020D01*
X46959520Y-122715020D01*
X47185580Y-122715020D01*
X47404020Y-122715020D01*
X47612300Y-122715020D01*
X47810420Y-122715020D01*
X48000920Y-122715020D01*
X48176180Y-122715020D01*
X48341280Y-122715020D01*
X48491140Y-122715020D01*
X48628300Y-122715020D01*
X48752760Y-122715020D01*
X48859440Y-122715020D01*
X48950880Y-122717560D01*
X49027080Y-122717560D01*
X49085500Y-122717560D01*
X49123600Y-122717560D01*
X49146460Y-122717560D01*
X49149000Y-122717560D01*
X49194720Y-122722640D01*
X49194720Y-124465080D01*
X49194720Y-126210060D01*
X49194720Y-126210060D01*
G36*
X46184820Y-125778260D02*
X46179740Y-125806200D01*
X46154340Y-125877320D01*
X46116240Y-125930660D01*
X46065440Y-125971300D01*
X46004480Y-125994160D01*
X45933360Y-126001780D01*
X45890180Y-125996700D01*
X45836840Y-125986540D01*
X45796200Y-125966220D01*
X45755560Y-125933200D01*
X45737780Y-125915420D01*
X45699680Y-125859540D01*
X45674280Y-125793500D01*
X45666660Y-125724920D01*
X45671740Y-125653800D01*
X45689520Y-125585220D01*
X45725080Y-125524260D01*
X45745400Y-125498860D01*
X45798740Y-125458220D01*
X45859700Y-125432820D01*
X45923200Y-125422660D01*
X45986700Y-125427740D01*
X46045120Y-125445520D01*
X46098460Y-125478540D01*
X46141640Y-125524260D01*
X46154340Y-125549660D01*
X46167040Y-125577600D01*
X46174660Y-125603000D01*
X46174660Y-125608080D01*
X46172120Y-125620780D01*
X46161960Y-125625860D01*
X46139100Y-125628400D01*
X46121320Y-125628400D01*
X46088300Y-125628400D01*
X46070520Y-125623320D01*
X46057820Y-125613160D01*
X46050200Y-125597920D01*
X46019720Y-125559820D01*
X45981620Y-125539500D01*
X45938440Y-125529340D01*
X45895260Y-125536960D01*
X45854620Y-125557280D01*
X45821600Y-125592840D01*
X45811440Y-125613160D01*
X45798740Y-125653800D01*
X45793660Y-125707140D01*
X45796200Y-125760480D01*
X45806360Y-125806200D01*
X45811440Y-125816360D01*
X45841920Y-125859540D01*
X45882560Y-125884940D01*
X45928280Y-125897640D01*
X45974000Y-125892560D01*
X45994320Y-125882400D01*
X46022260Y-125862080D01*
X46042580Y-125831600D01*
X46055280Y-125801120D01*
X46055280Y-125793500D01*
X46057820Y-125785880D01*
X46073060Y-125780800D01*
X46101000Y-125778260D01*
X46118780Y-125778260D01*
X46184820Y-125778260D01*
X46184820Y-125778260D01*
X46184820Y-125778260D01*
G37*
X46184820Y-125778260D02*
X46179740Y-125806200D01*
X46154340Y-125877320D01*
X46116240Y-125930660D01*
X46065440Y-125971300D01*
X46004480Y-125994160D01*
X45933360Y-126001780D01*
X45890180Y-125996700D01*
X45836840Y-125986540D01*
X45796200Y-125966220D01*
X45755560Y-125933200D01*
X45737780Y-125915420D01*
X45699680Y-125859540D01*
X45674280Y-125793500D01*
X45666660Y-125724920D01*
X45671740Y-125653800D01*
X45689520Y-125585220D01*
X45725080Y-125524260D01*
X45745400Y-125498860D01*
X45798740Y-125458220D01*
X45859700Y-125432820D01*
X45923200Y-125422660D01*
X45986700Y-125427740D01*
X46045120Y-125445520D01*
X46098460Y-125478540D01*
X46141640Y-125524260D01*
X46154340Y-125549660D01*
X46167040Y-125577600D01*
X46174660Y-125603000D01*
X46174660Y-125608080D01*
X46172120Y-125620780D01*
X46161960Y-125625860D01*
X46139100Y-125628400D01*
X46121320Y-125628400D01*
X46088300Y-125628400D01*
X46070520Y-125623320D01*
X46057820Y-125613160D01*
X46050200Y-125597920D01*
X46019720Y-125559820D01*
X45981620Y-125539500D01*
X45938440Y-125529340D01*
X45895260Y-125536960D01*
X45854620Y-125557280D01*
X45821600Y-125592840D01*
X45811440Y-125613160D01*
X45798740Y-125653800D01*
X45793660Y-125707140D01*
X45796200Y-125760480D01*
X45806360Y-125806200D01*
X45811440Y-125816360D01*
X45841920Y-125859540D01*
X45882560Y-125884940D01*
X45928280Y-125897640D01*
X45974000Y-125892560D01*
X45994320Y-125882400D01*
X46022260Y-125862080D01*
X46042580Y-125831600D01*
X46055280Y-125801120D01*
X46055280Y-125793500D01*
X46057820Y-125785880D01*
X46073060Y-125780800D01*
X46101000Y-125778260D01*
X46118780Y-125778260D01*
X46184820Y-125778260D01*
X46184820Y-125778260D01*
G36*
X47734220Y-125849380D02*
X47724060Y-125887480D01*
X47701200Y-125923040D01*
X47693580Y-125933200D01*
X47655480Y-125966220D01*
X47602140Y-125989080D01*
X47541180Y-126001780D01*
X47477680Y-126001780D01*
X47470060Y-126001780D01*
X47398940Y-125986540D01*
X47343060Y-125956060D01*
X47302420Y-125915420D01*
X47277020Y-125862080D01*
X47274480Y-125857000D01*
X47269400Y-125826520D01*
X47274480Y-125808740D01*
X47292260Y-125801120D01*
X47325280Y-125801120D01*
X47335440Y-125801120D01*
X47365920Y-125803660D01*
X47383700Y-125808740D01*
X47393860Y-125821440D01*
X47398940Y-125839220D01*
X47419260Y-125872240D01*
X47452280Y-125897640D01*
X47495460Y-125907800D01*
X47543720Y-125902720D01*
X47571660Y-125895100D01*
X47602140Y-125877320D01*
X47614840Y-125854460D01*
X47612300Y-125826520D01*
X47604680Y-125811280D01*
X47589440Y-125798580D01*
X47564040Y-125785880D01*
X47525940Y-125770640D01*
X47472600Y-125752860D01*
X47444660Y-125745240D01*
X47396400Y-125730000D01*
X47363380Y-125714760D01*
X47340520Y-125699520D01*
X47327820Y-125684280D01*
X47297340Y-125638560D01*
X47287180Y-125595380D01*
X47292260Y-125549660D01*
X47312580Y-125509020D01*
X47345600Y-125473460D01*
X47388780Y-125445520D01*
X47439580Y-125427740D01*
X47498000Y-125422660D01*
X47553880Y-125427740D01*
X47617380Y-125448060D01*
X47665640Y-125476000D01*
X47696120Y-125516640D01*
X47711360Y-125567440D01*
X47711360Y-125567440D01*
X47716440Y-125608080D01*
X47660560Y-125608080D01*
X47627540Y-125608080D01*
X47609760Y-125603000D01*
X47599600Y-125595380D01*
X47591980Y-125577600D01*
X47574200Y-125547120D01*
X47541180Y-125529340D01*
X47503080Y-125519180D01*
X47464980Y-125524260D01*
X47431960Y-125539500D01*
X47429420Y-125544580D01*
X47411640Y-125564900D01*
X47406560Y-125582680D01*
X47416720Y-125600460D01*
X47421800Y-125608080D01*
X47444660Y-125620780D01*
X47485300Y-125638560D01*
X47543720Y-125656340D01*
X47548800Y-125656340D01*
X47614840Y-125679200D01*
X47665640Y-125699520D01*
X47698660Y-125724920D01*
X47721520Y-125755400D01*
X47731680Y-125793500D01*
X47731680Y-125801120D01*
X47734220Y-125849380D01*
X47734220Y-125849380D01*
X47734220Y-125849380D01*
G37*
X47734220Y-125849380D02*
X47724060Y-125887480D01*
X47701200Y-125923040D01*
X47693580Y-125933200D01*
X47655480Y-125966220D01*
X47602140Y-125989080D01*
X47541180Y-126001780D01*
X47477680Y-126001780D01*
X47470060Y-126001780D01*
X47398940Y-125986540D01*
X47343060Y-125956060D01*
X47302420Y-125915420D01*
X47277020Y-125862080D01*
X47274480Y-125857000D01*
X47269400Y-125826520D01*
X47274480Y-125808740D01*
X47292260Y-125801120D01*
X47325280Y-125801120D01*
X47335440Y-125801120D01*
X47365920Y-125803660D01*
X47383700Y-125808740D01*
X47393860Y-125821440D01*
X47398940Y-125839220D01*
X47419260Y-125872240D01*
X47452280Y-125897640D01*
X47495460Y-125907800D01*
X47543720Y-125902720D01*
X47571660Y-125895100D01*
X47602140Y-125877320D01*
X47614840Y-125854460D01*
X47612300Y-125826520D01*
X47604680Y-125811280D01*
X47589440Y-125798580D01*
X47564040Y-125785880D01*
X47525940Y-125770640D01*
X47472600Y-125752860D01*
X47444660Y-125745240D01*
X47396400Y-125730000D01*
X47363380Y-125714760D01*
X47340520Y-125699520D01*
X47327820Y-125684280D01*
X47297340Y-125638560D01*
X47287180Y-125595380D01*
X47292260Y-125549660D01*
X47312580Y-125509020D01*
X47345600Y-125473460D01*
X47388780Y-125445520D01*
X47439580Y-125427740D01*
X47498000Y-125422660D01*
X47553880Y-125427740D01*
X47617380Y-125448060D01*
X47665640Y-125476000D01*
X47696120Y-125516640D01*
X47711360Y-125567440D01*
X47711360Y-125567440D01*
X47716440Y-125608080D01*
X47660560Y-125608080D01*
X47627540Y-125608080D01*
X47609760Y-125603000D01*
X47599600Y-125595380D01*
X47591980Y-125577600D01*
X47574200Y-125547120D01*
X47541180Y-125529340D01*
X47503080Y-125519180D01*
X47464980Y-125524260D01*
X47431960Y-125539500D01*
X47429420Y-125544580D01*
X47411640Y-125564900D01*
X47406560Y-125582680D01*
X47416720Y-125600460D01*
X47421800Y-125608080D01*
X47444660Y-125620780D01*
X47485300Y-125638560D01*
X47543720Y-125656340D01*
X47548800Y-125656340D01*
X47614840Y-125679200D01*
X47665640Y-125699520D01*
X47698660Y-125724920D01*
X47721520Y-125755400D01*
X47731680Y-125793500D01*
X47731680Y-125801120D01*
X47734220Y-125849380D01*
X47734220Y-125849380D01*
G36*
X43434000Y-125849380D02*
X43418760Y-125900180D01*
X43385740Y-125943360D01*
X43342560Y-125968760D01*
X43324780Y-125976380D01*
X43307000Y-125981460D01*
X43307000Y-125818900D01*
X43304460Y-125788420D01*
X43291760Y-125768100D01*
X43286680Y-125765560D01*
X43286680Y-125590300D01*
X43276520Y-125562360D01*
X43271440Y-125554740D01*
X43256200Y-125544580D01*
X43228260Y-125539500D01*
X43187620Y-125539500D01*
X43177460Y-125539500D01*
X43098720Y-125539500D01*
X43096180Y-125569980D01*
X43093640Y-125603000D01*
X43096180Y-125630940D01*
X43098720Y-125646180D01*
X43103800Y-125653800D01*
X43119040Y-125658880D01*
X43146980Y-125658880D01*
X43169840Y-125658880D01*
X43220640Y-125656340D01*
X43256200Y-125648720D01*
X43263820Y-125643640D01*
X43281600Y-125620780D01*
X43286680Y-125590300D01*
X43286680Y-125765560D01*
X43266360Y-125755400D01*
X43228260Y-125750320D01*
X43180000Y-125747780D01*
X43096180Y-125747780D01*
X43096180Y-125818900D01*
X43096180Y-125890020D01*
X43185080Y-125890020D01*
X43230800Y-125887480D01*
X43261280Y-125884940D01*
X43281600Y-125877320D01*
X43289220Y-125872240D01*
X43304460Y-125846840D01*
X43307000Y-125818900D01*
X43307000Y-125981460D01*
X43301920Y-125981460D01*
X43273980Y-125986540D01*
X43235880Y-125986540D01*
X43182540Y-125989080D01*
X43134280Y-125989080D01*
X42966640Y-125989080D01*
X42966640Y-125714760D01*
X42966640Y-125437900D01*
X43131740Y-125437900D01*
X43205400Y-125440440D01*
X43258740Y-125440440D01*
X43301920Y-125445520D01*
X43332400Y-125453140D01*
X43355260Y-125463300D01*
X43373040Y-125478540D01*
X43380660Y-125486160D01*
X43395900Y-125514100D01*
X43403520Y-125552200D01*
X43406060Y-125592840D01*
X43403520Y-125613160D01*
X43390820Y-125638560D01*
X43370500Y-125663960D01*
X43367960Y-125666500D01*
X43352720Y-125684280D01*
X43350180Y-125694440D01*
X43357800Y-125696980D01*
X43383200Y-125714760D01*
X43411140Y-125742700D01*
X43428920Y-125778260D01*
X43431460Y-125793500D01*
X43434000Y-125849380D01*
X43434000Y-125849380D01*
X43434000Y-125849380D01*
G37*
X43434000Y-125849380D02*
X43418760Y-125900180D01*
X43385740Y-125943360D01*
X43342560Y-125968760D01*
X43324780Y-125976380D01*
X43307000Y-125981460D01*
X43307000Y-125818900D01*
X43304460Y-125788420D01*
X43291760Y-125768100D01*
X43286680Y-125765560D01*
X43286680Y-125590300D01*
X43276520Y-125562360D01*
X43271440Y-125554740D01*
X43256200Y-125544580D01*
X43228260Y-125539500D01*
X43187620Y-125539500D01*
X43177460Y-125539500D01*
X43098720Y-125539500D01*
X43096180Y-125569980D01*
X43093640Y-125603000D01*
X43096180Y-125630940D01*
X43098720Y-125646180D01*
X43103800Y-125653800D01*
X43119040Y-125658880D01*
X43146980Y-125658880D01*
X43169840Y-125658880D01*
X43220640Y-125656340D01*
X43256200Y-125648720D01*
X43263820Y-125643640D01*
X43281600Y-125620780D01*
X43286680Y-125590300D01*
X43286680Y-125765560D01*
X43266360Y-125755400D01*
X43228260Y-125750320D01*
X43180000Y-125747780D01*
X43096180Y-125747780D01*
X43096180Y-125818900D01*
X43096180Y-125890020D01*
X43185080Y-125890020D01*
X43230800Y-125887480D01*
X43261280Y-125884940D01*
X43281600Y-125877320D01*
X43289220Y-125872240D01*
X43304460Y-125846840D01*
X43307000Y-125818900D01*
X43307000Y-125981460D01*
X43301920Y-125981460D01*
X43273980Y-125986540D01*
X43235880Y-125986540D01*
X43182540Y-125989080D01*
X43134280Y-125989080D01*
X42966640Y-125989080D01*
X42966640Y-125714760D01*
X42966640Y-125437900D01*
X43131740Y-125437900D01*
X43205400Y-125440440D01*
X43258740Y-125440440D01*
X43301920Y-125445520D01*
X43332400Y-125453140D01*
X43355260Y-125463300D01*
X43373040Y-125478540D01*
X43380660Y-125486160D01*
X43395900Y-125514100D01*
X43403520Y-125552200D01*
X43406060Y-125592840D01*
X43403520Y-125613160D01*
X43390820Y-125638560D01*
X43370500Y-125663960D01*
X43367960Y-125666500D01*
X43352720Y-125684280D01*
X43350180Y-125694440D01*
X43357800Y-125696980D01*
X43383200Y-125714760D01*
X43411140Y-125742700D01*
X43428920Y-125778260D01*
X43431460Y-125793500D01*
X43434000Y-125849380D01*
X43434000Y-125849380D01*
G36*
X43985180Y-125437900D02*
X43881040Y-125613160D01*
X43776900Y-125788420D01*
X43776900Y-125887480D01*
X43776900Y-125989080D01*
X43718480Y-125989080D01*
X43657520Y-125989080D01*
X43657520Y-125882400D01*
X43657520Y-125775720D01*
X43561000Y-125615700D01*
X43530520Y-125564900D01*
X43502580Y-125519180D01*
X43482260Y-125481080D01*
X43467020Y-125458220D01*
X43459400Y-125445520D01*
X43467020Y-125442980D01*
X43489880Y-125440440D01*
X43522900Y-125437900D01*
X43525440Y-125437900D01*
X43596560Y-125437900D01*
X43657520Y-125544580D01*
X43685460Y-125592840D01*
X43705780Y-125623320D01*
X43721020Y-125638560D01*
X43728640Y-125638560D01*
X43736260Y-125623320D01*
X43751500Y-125597920D01*
X43774360Y-125559820D01*
X43789600Y-125534420D01*
X43842940Y-125442980D01*
X43914060Y-125440440D01*
X43985180Y-125437900D01*
X43985180Y-125437900D01*
X43985180Y-125437900D01*
G37*
X43985180Y-125437900D02*
X43881040Y-125613160D01*
X43776900Y-125788420D01*
X43776900Y-125887480D01*
X43776900Y-125989080D01*
X43718480Y-125989080D01*
X43657520Y-125989080D01*
X43657520Y-125882400D01*
X43657520Y-125775720D01*
X43561000Y-125615700D01*
X43530520Y-125564900D01*
X43502580Y-125519180D01*
X43482260Y-125481080D01*
X43467020Y-125458220D01*
X43459400Y-125445520D01*
X43467020Y-125442980D01*
X43489880Y-125440440D01*
X43522900Y-125437900D01*
X43525440Y-125437900D01*
X43596560Y-125437900D01*
X43657520Y-125544580D01*
X43685460Y-125592840D01*
X43705780Y-125623320D01*
X43721020Y-125638560D01*
X43728640Y-125638560D01*
X43736260Y-125623320D01*
X43751500Y-125597920D01*
X43774360Y-125559820D01*
X43789600Y-125534420D01*
X43842940Y-125442980D01*
X43914060Y-125440440D01*
X43985180Y-125437900D01*
X43985180Y-125437900D01*
G36*
X45585380Y-125989080D02*
X45521880Y-125989080D01*
X45460920Y-125989080D01*
X45349160Y-125811280D01*
X45239940Y-125636020D01*
X45237400Y-125813820D01*
X45234860Y-125989080D01*
X45173900Y-125989080D01*
X45115480Y-125989080D01*
X45115480Y-125714760D01*
X45115480Y-125437900D01*
X45178980Y-125437900D01*
X45242480Y-125437900D01*
X45349160Y-125613160D01*
X45382180Y-125666500D01*
X45412660Y-125712220D01*
X45435520Y-125747780D01*
X45453300Y-125773180D01*
X45460920Y-125783340D01*
X45463460Y-125783340D01*
X45463460Y-125773180D01*
X45466000Y-125745240D01*
X45466000Y-125704600D01*
X45466000Y-125653800D01*
X45466000Y-125610620D01*
X45463460Y-125437900D01*
X45524420Y-125437900D01*
X45585380Y-125437900D01*
X45585380Y-125714760D01*
X45585380Y-125989080D01*
X45585380Y-125989080D01*
X45585380Y-125989080D01*
G37*
X45585380Y-125989080D02*
X45521880Y-125989080D01*
X45460920Y-125989080D01*
X45349160Y-125811280D01*
X45239940Y-125636020D01*
X45237400Y-125813820D01*
X45234860Y-125989080D01*
X45173900Y-125989080D01*
X45115480Y-125989080D01*
X45115480Y-125714760D01*
X45115480Y-125437900D01*
X45178980Y-125437900D01*
X45242480Y-125437900D01*
X45349160Y-125613160D01*
X45382180Y-125666500D01*
X45412660Y-125712220D01*
X45435520Y-125747780D01*
X45453300Y-125773180D01*
X45460920Y-125783340D01*
X45463460Y-125783340D01*
X45463460Y-125773180D01*
X45466000Y-125745240D01*
X45466000Y-125704600D01*
X45466000Y-125653800D01*
X45466000Y-125610620D01*
X45463460Y-125437900D01*
X45524420Y-125437900D01*
X45585380Y-125437900D01*
X45585380Y-125714760D01*
X45585380Y-125989080D01*
X45585380Y-125989080D01*
G36*
X48285400Y-125981460D02*
X48275240Y-125986540D01*
X48252380Y-125989080D01*
X48221900Y-125989080D01*
X48158400Y-125989080D01*
X48140620Y-125928120D01*
X48122840Y-125869700D01*
X48084740Y-125869700D01*
X48084740Y-125768100D01*
X48054260Y-125679200D01*
X48039020Y-125641100D01*
X48028860Y-125610620D01*
X48018700Y-125597920D01*
X48016160Y-125595380D01*
X48008540Y-125608080D01*
X47998380Y-125633480D01*
X47985680Y-125666500D01*
X47972980Y-125702060D01*
X47962820Y-125732540D01*
X47957740Y-125755400D01*
X47955200Y-125763020D01*
X47965360Y-125765560D01*
X47988220Y-125768100D01*
X48018700Y-125768100D01*
X48084740Y-125768100D01*
X48084740Y-125869700D01*
X48018700Y-125869700D01*
X47917100Y-125869700D01*
X47894240Y-125928120D01*
X47871380Y-125989080D01*
X47810420Y-125989080D01*
X47746920Y-125989080D01*
X47851060Y-125717300D01*
X47952660Y-125442980D01*
X48021240Y-125442980D01*
X48087280Y-125442980D01*
X48186340Y-125709680D01*
X48211740Y-125778260D01*
X48234600Y-125839220D01*
X48254920Y-125895100D01*
X48270160Y-125938280D01*
X48280320Y-125966220D01*
X48285400Y-125981460D01*
X48285400Y-125981460D01*
X48285400Y-125981460D01*
X48285400Y-125981460D01*
G37*
X48285400Y-125981460D02*
X48275240Y-125986540D01*
X48252380Y-125989080D01*
X48221900Y-125989080D01*
X48158400Y-125989080D01*
X48140620Y-125928120D01*
X48122840Y-125869700D01*
X48084740Y-125869700D01*
X48084740Y-125768100D01*
X48054260Y-125679200D01*
X48039020Y-125641100D01*
X48028860Y-125610620D01*
X48018700Y-125597920D01*
X48016160Y-125595380D01*
X48008540Y-125608080D01*
X47998380Y-125633480D01*
X47985680Y-125666500D01*
X47972980Y-125702060D01*
X47962820Y-125732540D01*
X47957740Y-125755400D01*
X47955200Y-125763020D01*
X47965360Y-125765560D01*
X47988220Y-125768100D01*
X48018700Y-125768100D01*
X48084740Y-125768100D01*
X48084740Y-125869700D01*
X48018700Y-125869700D01*
X47917100Y-125869700D01*
X47894240Y-125928120D01*
X47871380Y-125989080D01*
X47810420Y-125989080D01*
X47746920Y-125989080D01*
X47851060Y-125717300D01*
X47952660Y-125442980D01*
X48021240Y-125442980D01*
X48087280Y-125442980D01*
X48186340Y-125709680D01*
X48211740Y-125778260D01*
X48234600Y-125839220D01*
X48254920Y-125895100D01*
X48270160Y-125938280D01*
X48280320Y-125966220D01*
X48285400Y-125981460D01*
X48285400Y-125981460D01*
X48285400Y-125981460D01*
G36*
X42235120Y-124322840D02*
X42235120Y-124393960D01*
X42230040Y-124487940D01*
X42222420Y-124571760D01*
X42209720Y-124647960D01*
X42191940Y-124719080D01*
X42166540Y-124792740D01*
X42148760Y-124843540D01*
X42085260Y-124973080D01*
X42006520Y-125095000D01*
X42003980Y-125097540D01*
X42003980Y-124322840D01*
X41993820Y-124183140D01*
X41965880Y-124048520D01*
X41920160Y-123918980D01*
X41856660Y-123794520D01*
X41777920Y-123680220D01*
X41683940Y-123576080D01*
X41574720Y-123482100D01*
X41452800Y-123400820D01*
X41445180Y-123398280D01*
X41325800Y-123342400D01*
X41198800Y-123301760D01*
X41064180Y-123278900D01*
X40927020Y-123273820D01*
X40789860Y-123283980D01*
X40657780Y-123309380D01*
X40530780Y-123352560D01*
X40449500Y-123390660D01*
X40335200Y-123461780D01*
X40228520Y-123550680D01*
X40134540Y-123649740D01*
X40050720Y-123758960D01*
X39982140Y-123875800D01*
X39928800Y-123997720D01*
X39908480Y-124066300D01*
X39878000Y-124211080D01*
X39870380Y-124353320D01*
X39880540Y-124490480D01*
X39911020Y-124627640D01*
X39959280Y-124757180D01*
X40027860Y-124881640D01*
X40111680Y-125001020D01*
X40210740Y-125107700D01*
X40327580Y-125204220D01*
X40446960Y-125280420D01*
X40573960Y-125338840D01*
X40706040Y-125379480D01*
X40843200Y-125399800D01*
X40990520Y-125399800D01*
X41122600Y-125387100D01*
X41244520Y-125359160D01*
X41363900Y-125313440D01*
X41480740Y-125252480D01*
X41589960Y-125176280D01*
X41691560Y-125089920D01*
X41780460Y-124993400D01*
X41854120Y-124889260D01*
X41912540Y-124780040D01*
X41927780Y-124747020D01*
X41973500Y-124604780D01*
X41998900Y-124462540D01*
X42003980Y-124322840D01*
X42003980Y-125097540D01*
X41912540Y-125209300D01*
X41808400Y-125313440D01*
X41691560Y-125404880D01*
X41564560Y-125483620D01*
X41432480Y-125547120D01*
X41297860Y-125595380D01*
X41158160Y-125625860D01*
X41092120Y-125633480D01*
X41028620Y-125638560D01*
X40977820Y-125641100D01*
X40934640Y-125643640D01*
X40896540Y-125643640D01*
X40855900Y-125641100D01*
X40820340Y-125638560D01*
X40667940Y-125618240D01*
X40523160Y-125580140D01*
X40386000Y-125521720D01*
X40253920Y-125448060D01*
X40126920Y-125354080D01*
X40005000Y-125239780D01*
X40002460Y-125237240D01*
X39895780Y-125115320D01*
X39806880Y-124990860D01*
X39738300Y-124858780D01*
X39687500Y-124721620D01*
X39654480Y-124574300D01*
X39639240Y-124421900D01*
X39636700Y-124340620D01*
X39641780Y-124198380D01*
X39662100Y-124063760D01*
X39695120Y-123939300D01*
X39740840Y-123814840D01*
X39778940Y-123738640D01*
X39860220Y-123604020D01*
X39956740Y-123479560D01*
X40065960Y-123367800D01*
X40185340Y-123271280D01*
X40317420Y-123187460D01*
X40454580Y-123121420D01*
X40599360Y-123073160D01*
X40690800Y-123052840D01*
X40756840Y-123045220D01*
X40838120Y-123040140D01*
X40924480Y-123037600D01*
X41010840Y-123040140D01*
X41094660Y-123042680D01*
X41165780Y-123050300D01*
X41181020Y-123055380D01*
X41333420Y-123090940D01*
X41478200Y-123146820D01*
X41612820Y-123217940D01*
X41739820Y-123304300D01*
X41856660Y-123405900D01*
X41958260Y-123520200D01*
X42049700Y-123644660D01*
X42123360Y-123781820D01*
X42179240Y-123924060D01*
X42189400Y-123962160D01*
X42209720Y-124030740D01*
X42222420Y-124096780D01*
X42230040Y-124165360D01*
X42235120Y-124239020D01*
X42235120Y-124322840D01*
X42235120Y-124322840D01*
X42235120Y-124322840D01*
G37*
X42235120Y-124322840D02*
X42235120Y-124393960D01*
X42230040Y-124487940D01*
X42222420Y-124571760D01*
X42209720Y-124647960D01*
X42191940Y-124719080D01*
X42166540Y-124792740D01*
X42148760Y-124843540D01*
X42085260Y-124973080D01*
X42006520Y-125095000D01*
X42003980Y-125097540D01*
X42003980Y-124322840D01*
X41993820Y-124183140D01*
X41965880Y-124048520D01*
X41920160Y-123918980D01*
X41856660Y-123794520D01*
X41777920Y-123680220D01*
X41683940Y-123576080D01*
X41574720Y-123482100D01*
X41452800Y-123400820D01*
X41445180Y-123398280D01*
X41325800Y-123342400D01*
X41198800Y-123301760D01*
X41064180Y-123278900D01*
X40927020Y-123273820D01*
X40789860Y-123283980D01*
X40657780Y-123309380D01*
X40530780Y-123352560D01*
X40449500Y-123390660D01*
X40335200Y-123461780D01*
X40228520Y-123550680D01*
X40134540Y-123649740D01*
X40050720Y-123758960D01*
X39982140Y-123875800D01*
X39928800Y-123997720D01*
X39908480Y-124066300D01*
X39878000Y-124211080D01*
X39870380Y-124353320D01*
X39880540Y-124490480D01*
X39911020Y-124627640D01*
X39959280Y-124757180D01*
X40027860Y-124881640D01*
X40111680Y-125001020D01*
X40210740Y-125107700D01*
X40327580Y-125204220D01*
X40446960Y-125280420D01*
X40573960Y-125338840D01*
X40706040Y-125379480D01*
X40843200Y-125399800D01*
X40990520Y-125399800D01*
X41122600Y-125387100D01*
X41244520Y-125359160D01*
X41363900Y-125313440D01*
X41480740Y-125252480D01*
X41589960Y-125176280D01*
X41691560Y-125089920D01*
X41780460Y-124993400D01*
X41854120Y-124889260D01*
X41912540Y-124780040D01*
X41927780Y-124747020D01*
X41973500Y-124604780D01*
X41998900Y-124462540D01*
X42003980Y-124322840D01*
X42003980Y-125097540D01*
X41912540Y-125209300D01*
X41808400Y-125313440D01*
X41691560Y-125404880D01*
X41564560Y-125483620D01*
X41432480Y-125547120D01*
X41297860Y-125595380D01*
X41158160Y-125625860D01*
X41092120Y-125633480D01*
X41028620Y-125638560D01*
X40977820Y-125641100D01*
X40934640Y-125643640D01*
X40896540Y-125643640D01*
X40855900Y-125641100D01*
X40820340Y-125638560D01*
X40667940Y-125618240D01*
X40523160Y-125580140D01*
X40386000Y-125521720D01*
X40253920Y-125448060D01*
X40126920Y-125354080D01*
X40005000Y-125239780D01*
X40002460Y-125237240D01*
X39895780Y-125115320D01*
X39806880Y-124990860D01*
X39738300Y-124858780D01*
X39687500Y-124721620D01*
X39654480Y-124574300D01*
X39639240Y-124421900D01*
X39636700Y-124340620D01*
X39641780Y-124198380D01*
X39662100Y-124063760D01*
X39695120Y-123939300D01*
X39740840Y-123814840D01*
X39778940Y-123738640D01*
X39860220Y-123604020D01*
X39956740Y-123479560D01*
X40065960Y-123367800D01*
X40185340Y-123271280D01*
X40317420Y-123187460D01*
X40454580Y-123121420D01*
X40599360Y-123073160D01*
X40690800Y-123052840D01*
X40756840Y-123045220D01*
X40838120Y-123040140D01*
X40924480Y-123037600D01*
X41010840Y-123040140D01*
X41094660Y-123042680D01*
X41165780Y-123050300D01*
X41181020Y-123055380D01*
X41333420Y-123090940D01*
X41478200Y-123146820D01*
X41612820Y-123217940D01*
X41739820Y-123304300D01*
X41856660Y-123405900D01*
X41958260Y-123520200D01*
X42049700Y-123644660D01*
X42123360Y-123781820D01*
X42179240Y-123924060D01*
X42189400Y-123962160D01*
X42209720Y-124030740D01*
X42222420Y-124096780D01*
X42230040Y-124165360D01*
X42235120Y-124239020D01*
X42235120Y-124322840D01*
X42235120Y-124322840D01*
G36*
X44472860Y-123936760D02*
X44470320Y-124028200D01*
X44462700Y-124114560D01*
X44450000Y-124193300D01*
X44444920Y-124216160D01*
X44422060Y-124292360D01*
X44386500Y-124373640D01*
X44345860Y-124452380D01*
X44302680Y-124518420D01*
X44295060Y-124528580D01*
X44295060Y-123962160D01*
X44289980Y-123852940D01*
X44272200Y-123758960D01*
X44244260Y-123664980D01*
X44221400Y-123616720D01*
X44165520Y-123517660D01*
X44091860Y-123426220D01*
X44002960Y-123344940D01*
X43906440Y-123276360D01*
X43799760Y-123223020D01*
X43736260Y-123200160D01*
X43703240Y-123190000D01*
X43672760Y-123182380D01*
X43637200Y-123179840D01*
X43594020Y-123177300D01*
X43540680Y-123177300D01*
X43512740Y-123177300D01*
X43449240Y-123177300D01*
X43403520Y-123177300D01*
X43365420Y-123182380D01*
X43334940Y-123187460D01*
X43301920Y-123195080D01*
X43286680Y-123200160D01*
X43172380Y-123245880D01*
X43065700Y-123309380D01*
X42969180Y-123388120D01*
X42887900Y-123479560D01*
X42819320Y-123581160D01*
X42765980Y-123695460D01*
X42745660Y-123758960D01*
X42732960Y-123822460D01*
X42725340Y-123898660D01*
X42722800Y-123977400D01*
X42725340Y-124056140D01*
X42735500Y-124124720D01*
X42740580Y-124150120D01*
X42783760Y-124266960D01*
X42844720Y-124376180D01*
X42918380Y-124475240D01*
X43009820Y-124561600D01*
X43063160Y-124604780D01*
X43169840Y-124668280D01*
X43281600Y-124714000D01*
X43400980Y-124739400D01*
X43522900Y-124747020D01*
X43624500Y-124739400D01*
X43715940Y-124719080D01*
X43809920Y-124686060D01*
X43896280Y-124645420D01*
X43919140Y-124632720D01*
X43952160Y-124609860D01*
X43992800Y-124579380D01*
X44035980Y-124538740D01*
X44076620Y-124500640D01*
X44076620Y-124498100D01*
X44122340Y-124454920D01*
X44155360Y-124416820D01*
X44180760Y-124381260D01*
X44201080Y-124343160D01*
X44213780Y-124320300D01*
X44251880Y-124231400D01*
X44277280Y-124147580D01*
X44289980Y-124056140D01*
X44295060Y-123962160D01*
X44295060Y-124528580D01*
X44292520Y-124536200D01*
X44206160Y-124630180D01*
X44112180Y-124716540D01*
X44002960Y-124790200D01*
X43888660Y-124851160D01*
X43771820Y-124891800D01*
X43746420Y-124899420D01*
X43688000Y-124909580D01*
X43616880Y-124917200D01*
X43543220Y-124922280D01*
X43469560Y-124924820D01*
X43403520Y-124922280D01*
X43362880Y-124917200D01*
X43230800Y-124886720D01*
X43106340Y-124838460D01*
X42986960Y-124769880D01*
X42875200Y-124686060D01*
X42826940Y-124640340D01*
X42735500Y-124533660D01*
X42659300Y-124421900D01*
X42600880Y-124299980D01*
X42570400Y-124200920D01*
X42557700Y-124157740D01*
X42552620Y-124117100D01*
X42547540Y-124073920D01*
X42545000Y-124025660D01*
X42545000Y-123967240D01*
X42547540Y-123873260D01*
X42552620Y-123799600D01*
X42560240Y-123753880D01*
X42598340Y-123624340D01*
X42654220Y-123504960D01*
X42725340Y-123390660D01*
X42811700Y-123289060D01*
X42908220Y-123200160D01*
X43017440Y-123123960D01*
X43134280Y-123063000D01*
X43258740Y-123019820D01*
X43284140Y-123014740D01*
X43345100Y-123004580D01*
X43418760Y-122996960D01*
X43500040Y-122994420D01*
X43583860Y-122996960D01*
X43662600Y-123002040D01*
X43728640Y-123012200D01*
X43761660Y-123019820D01*
X43891200Y-123065540D01*
X44013120Y-123126500D01*
X44122340Y-123205240D01*
X44216320Y-123296680D01*
X44300140Y-123400820D01*
X44371260Y-123515120D01*
X44424600Y-123639580D01*
X44460160Y-123771660D01*
X44460160Y-123776740D01*
X44470320Y-123852940D01*
X44472860Y-123936760D01*
X44472860Y-123936760D01*
X44472860Y-123936760D01*
G37*
X44472860Y-123936760D02*
X44470320Y-124028200D01*
X44462700Y-124114560D01*
X44450000Y-124193300D01*
X44444920Y-124216160D01*
X44422060Y-124292360D01*
X44386500Y-124373640D01*
X44345860Y-124452380D01*
X44302680Y-124518420D01*
X44295060Y-124528580D01*
X44295060Y-123962160D01*
X44289980Y-123852940D01*
X44272200Y-123758960D01*
X44244260Y-123664980D01*
X44221400Y-123616720D01*
X44165520Y-123517660D01*
X44091860Y-123426220D01*
X44002960Y-123344940D01*
X43906440Y-123276360D01*
X43799760Y-123223020D01*
X43736260Y-123200160D01*
X43703240Y-123190000D01*
X43672760Y-123182380D01*
X43637200Y-123179840D01*
X43594020Y-123177300D01*
X43540680Y-123177300D01*
X43512740Y-123177300D01*
X43449240Y-123177300D01*
X43403520Y-123177300D01*
X43365420Y-123182380D01*
X43334940Y-123187460D01*
X43301920Y-123195080D01*
X43286680Y-123200160D01*
X43172380Y-123245880D01*
X43065700Y-123309380D01*
X42969180Y-123388120D01*
X42887900Y-123479560D01*
X42819320Y-123581160D01*
X42765980Y-123695460D01*
X42745660Y-123758960D01*
X42732960Y-123822460D01*
X42725340Y-123898660D01*
X42722800Y-123977400D01*
X42725340Y-124056140D01*
X42735500Y-124124720D01*
X42740580Y-124150120D01*
X42783760Y-124266960D01*
X42844720Y-124376180D01*
X42918380Y-124475240D01*
X43009820Y-124561600D01*
X43063160Y-124604780D01*
X43169840Y-124668280D01*
X43281600Y-124714000D01*
X43400980Y-124739400D01*
X43522900Y-124747020D01*
X43624500Y-124739400D01*
X43715940Y-124719080D01*
X43809920Y-124686060D01*
X43896280Y-124645420D01*
X43919140Y-124632720D01*
X43952160Y-124609860D01*
X43992800Y-124579380D01*
X44035980Y-124538740D01*
X44076620Y-124500640D01*
X44076620Y-124498100D01*
X44122340Y-124454920D01*
X44155360Y-124416820D01*
X44180760Y-124381260D01*
X44201080Y-124343160D01*
X44213780Y-124320300D01*
X44251880Y-124231400D01*
X44277280Y-124147580D01*
X44289980Y-124056140D01*
X44295060Y-123962160D01*
X44295060Y-124528580D01*
X44292520Y-124536200D01*
X44206160Y-124630180D01*
X44112180Y-124716540D01*
X44002960Y-124790200D01*
X43888660Y-124851160D01*
X43771820Y-124891800D01*
X43746420Y-124899420D01*
X43688000Y-124909580D01*
X43616880Y-124917200D01*
X43543220Y-124922280D01*
X43469560Y-124924820D01*
X43403520Y-124922280D01*
X43362880Y-124917200D01*
X43230800Y-124886720D01*
X43106340Y-124838460D01*
X42986960Y-124769880D01*
X42875200Y-124686060D01*
X42826940Y-124640340D01*
X42735500Y-124533660D01*
X42659300Y-124421900D01*
X42600880Y-124299980D01*
X42570400Y-124200920D01*
X42557700Y-124157740D01*
X42552620Y-124117100D01*
X42547540Y-124073920D01*
X42545000Y-124025660D01*
X42545000Y-123967240D01*
X42547540Y-123873260D01*
X42552620Y-123799600D01*
X42560240Y-123753880D01*
X42598340Y-123624340D01*
X42654220Y-123504960D01*
X42725340Y-123390660D01*
X42811700Y-123289060D01*
X42908220Y-123200160D01*
X43017440Y-123123960D01*
X43134280Y-123063000D01*
X43258740Y-123019820D01*
X43284140Y-123014740D01*
X43345100Y-123004580D01*
X43418760Y-122996960D01*
X43500040Y-122994420D01*
X43583860Y-122996960D01*
X43662600Y-123002040D01*
X43728640Y-123012200D01*
X43761660Y-123019820D01*
X43891200Y-123065540D01*
X44013120Y-123126500D01*
X44122340Y-123205240D01*
X44216320Y-123296680D01*
X44300140Y-123400820D01*
X44371260Y-123515120D01*
X44424600Y-123639580D01*
X44460160Y-123771660D01*
X44460160Y-123776740D01*
X44470320Y-123852940D01*
X44472860Y-123936760D01*
X44472860Y-123936760D01*
G36*
X46649640Y-123985020D02*
X46644560Y-124063760D01*
X46634400Y-124147580D01*
X46619160Y-124221240D01*
X46598840Y-124289820D01*
X46568360Y-124360940D01*
X46563280Y-124368560D01*
X46520100Y-124452380D01*
X46474380Y-124520960D01*
X46474380Y-123949460D01*
X46461680Y-123827540D01*
X46433740Y-123710700D01*
X46385480Y-123601480D01*
X46324520Y-123497340D01*
X46245780Y-123405900D01*
X46154340Y-123324620D01*
X46047660Y-123256040D01*
X46027340Y-123245880D01*
X45940980Y-123210320D01*
X45852080Y-123184920D01*
X45758100Y-123174760D01*
X45648880Y-123174760D01*
X45590460Y-123174760D01*
X45544740Y-123179840D01*
X45509180Y-123184920D01*
X45471080Y-123195080D01*
X45432980Y-123207780D01*
X45384720Y-123225560D01*
X45336460Y-123248420D01*
X45295820Y-123268740D01*
X45288200Y-123273820D01*
X45257720Y-123291600D01*
X45222160Y-123322080D01*
X45181520Y-123357640D01*
X45138340Y-123395740D01*
X45100240Y-123433840D01*
X45067220Y-123469400D01*
X45044360Y-123497340D01*
X45036740Y-123510040D01*
X45029120Y-123525280D01*
X45036740Y-123535440D01*
X45057060Y-123545600D01*
X45077380Y-123555760D01*
X45112940Y-123568460D01*
X45156120Y-123588780D01*
X45209460Y-123611640D01*
X45237400Y-123624340D01*
X45384720Y-123690380D01*
X45410120Y-123647200D01*
X45445680Y-123601480D01*
X45496480Y-123563380D01*
X45554900Y-123537980D01*
X45580300Y-123530360D01*
X45633640Y-123517660D01*
X45633640Y-123444000D01*
X45633640Y-123370340D01*
X45689520Y-123370340D01*
X45745400Y-123370340D01*
X45745400Y-123444000D01*
X45745400Y-123517660D01*
X45806360Y-123527820D01*
X45844460Y-123537980D01*
X45885100Y-123553220D01*
X45923200Y-123568460D01*
X45956220Y-123586240D01*
X45976540Y-123598940D01*
X45981620Y-123606560D01*
X45976540Y-123616720D01*
X45961300Y-123639580D01*
X45938440Y-123667520D01*
X45928280Y-123680220D01*
X45869860Y-123743720D01*
X45811440Y-123715780D01*
X45760640Y-123698000D01*
X45709840Y-123687840D01*
X45664120Y-123690380D01*
X45626020Y-123703080D01*
X45600620Y-123723400D01*
X45590460Y-123751340D01*
X45590460Y-123753880D01*
X45590460Y-123761500D01*
X45593000Y-123769120D01*
X45600620Y-123776740D01*
X45613320Y-123784360D01*
X45633640Y-123797060D01*
X45661580Y-123809760D01*
X45699680Y-123830080D01*
X45750480Y-123852940D01*
X45811440Y-123880880D01*
X45890180Y-123916440D01*
X45984160Y-123959620D01*
X46009560Y-123969780D01*
X46095920Y-124007880D01*
X46177200Y-124045980D01*
X46250860Y-124076460D01*
X46314360Y-124106940D01*
X46367700Y-124129800D01*
X46408340Y-124145040D01*
X46433740Y-124157740D01*
X46441360Y-124160280D01*
X46448980Y-124150120D01*
X46456600Y-124124720D01*
X46464220Y-124084080D01*
X46464220Y-124073920D01*
X46474380Y-123949460D01*
X46474380Y-124520960D01*
X46469300Y-124526040D01*
X46408340Y-124599700D01*
X46360080Y-124647960D01*
X46360080Y-124353320D01*
X46349920Y-124338080D01*
X46324520Y-124322840D01*
X46283880Y-124302520D01*
X46228000Y-124277120D01*
X46197520Y-124264420D01*
X46019720Y-124185680D01*
X45989240Y-124246640D01*
X45951140Y-124305060D01*
X45897800Y-124348240D01*
X45831760Y-124378720D01*
X45821600Y-124381260D01*
X45786040Y-124391420D01*
X45763180Y-124404120D01*
X45753020Y-124421900D01*
X45747940Y-124449840D01*
X45747940Y-124472700D01*
X45742860Y-124538740D01*
X45689520Y-124538740D01*
X45633640Y-124538740D01*
X45633640Y-124470160D01*
X45633640Y-124437140D01*
X45633640Y-124414280D01*
X45623480Y-124401580D01*
X45605700Y-124396500D01*
X45572680Y-124388880D01*
X45549820Y-124386340D01*
X45514260Y-124376180D01*
X45468540Y-124358400D01*
X45420280Y-124335540D01*
X45382180Y-124312680D01*
X45364400Y-124299980D01*
X45341540Y-124279660D01*
X45407580Y-124213620D01*
X45443140Y-124180600D01*
X45466000Y-124160280D01*
X45481240Y-124155200D01*
X45488860Y-124155200D01*
X45539660Y-124190760D01*
X45585380Y-124213620D01*
X45626020Y-124226320D01*
X45674280Y-124231400D01*
X45681900Y-124231400D01*
X45737780Y-124223780D01*
X45778420Y-124206000D01*
X45803820Y-124175520D01*
X45803820Y-124172980D01*
X45811440Y-124142500D01*
X45806360Y-124114560D01*
X45806360Y-124112020D01*
X45801280Y-124104400D01*
X45793660Y-124096780D01*
X45780960Y-124086620D01*
X45760640Y-124076460D01*
X45732700Y-124061220D01*
X45694600Y-124040900D01*
X45643800Y-124018040D01*
X45580300Y-123990100D01*
X45504100Y-123954540D01*
X45410120Y-123913900D01*
X45366940Y-123893580D01*
X45280580Y-123855480D01*
X45199300Y-123819920D01*
X45125640Y-123789440D01*
X45062140Y-123761500D01*
X45008800Y-123738640D01*
X44968160Y-123723400D01*
X44942760Y-123713240D01*
X44932600Y-123710700D01*
X44924980Y-123725940D01*
X44914820Y-123758960D01*
X44907200Y-123802140D01*
X44899580Y-123852940D01*
X44897040Y-123903740D01*
X44894500Y-123954540D01*
X44894500Y-123967240D01*
X44904660Y-124084080D01*
X44930060Y-124198380D01*
X44975780Y-124305060D01*
X45034200Y-124404120D01*
X45105320Y-124490480D01*
X45189140Y-124569220D01*
X45280580Y-124635260D01*
X45382180Y-124686060D01*
X45491400Y-124724160D01*
X45605700Y-124744480D01*
X45722540Y-124747020D01*
X45796200Y-124739400D01*
X45918120Y-124708920D01*
X46034960Y-124660660D01*
X46141640Y-124597160D01*
X46238160Y-124515880D01*
X46299120Y-124452380D01*
X46327060Y-124416820D01*
X46349920Y-124388880D01*
X46360080Y-124368560D01*
X46360080Y-124353320D01*
X46360080Y-124647960D01*
X46355000Y-124653040D01*
X46245780Y-124744480D01*
X46131480Y-124815600D01*
X46009560Y-124871480D01*
X45892720Y-124904500D01*
X45834300Y-124914660D01*
X45763180Y-124919740D01*
X45689520Y-124924820D01*
X45618400Y-124924820D01*
X45559980Y-124919740D01*
X45547280Y-124919740D01*
X45417740Y-124891800D01*
X45293280Y-124846080D01*
X45176440Y-124782580D01*
X45067220Y-124701300D01*
X44978320Y-124614940D01*
X44891960Y-124513340D01*
X44825920Y-124414280D01*
X44775120Y-124307600D01*
X44742100Y-124193300D01*
X44721780Y-124068840D01*
X44719240Y-123995180D01*
X44716700Y-123931680D01*
X44716700Y-123880880D01*
X44719240Y-123837700D01*
X44726860Y-123794520D01*
X44731940Y-123761500D01*
X44770040Y-123631960D01*
X44823380Y-123507500D01*
X44894500Y-123393200D01*
X44980860Y-123289060D01*
X45079920Y-123197620D01*
X45191680Y-123121420D01*
X45265340Y-123080780D01*
X45354240Y-123042680D01*
X45443140Y-123017280D01*
X45539660Y-123002040D01*
X45633640Y-122994420D01*
X45778420Y-122996960D01*
X45913040Y-123017280D01*
X46037500Y-123052840D01*
X46156880Y-123108720D01*
X46268640Y-123182380D01*
X46349920Y-123253500D01*
X46443900Y-123352560D01*
X46520100Y-123464320D01*
X46578520Y-123583700D01*
X46621700Y-123710700D01*
X46644560Y-123845320D01*
X46649640Y-123985020D01*
X46649640Y-123985020D01*
X46649640Y-123985020D01*
G37*
X46649640Y-123985020D02*
X46644560Y-124063760D01*
X46634400Y-124147580D01*
X46619160Y-124221240D01*
X46598840Y-124289820D01*
X46568360Y-124360940D01*
X46563280Y-124368560D01*
X46520100Y-124452380D01*
X46474380Y-124520960D01*
X46474380Y-123949460D01*
X46461680Y-123827540D01*
X46433740Y-123710700D01*
X46385480Y-123601480D01*
X46324520Y-123497340D01*
X46245780Y-123405900D01*
X46154340Y-123324620D01*
X46047660Y-123256040D01*
X46027340Y-123245880D01*
X45940980Y-123210320D01*
X45852080Y-123184920D01*
X45758100Y-123174760D01*
X45648880Y-123174760D01*
X45590460Y-123174760D01*
X45544740Y-123179840D01*
X45509180Y-123184920D01*
X45471080Y-123195080D01*
X45432980Y-123207780D01*
X45384720Y-123225560D01*
X45336460Y-123248420D01*
X45295820Y-123268740D01*
X45288200Y-123273820D01*
X45257720Y-123291600D01*
X45222160Y-123322080D01*
X45181520Y-123357640D01*
X45138340Y-123395740D01*
X45100240Y-123433840D01*
X45067220Y-123469400D01*
X45044360Y-123497340D01*
X45036740Y-123510040D01*
X45029120Y-123525280D01*
X45036740Y-123535440D01*
X45057060Y-123545600D01*
X45077380Y-123555760D01*
X45112940Y-123568460D01*
X45156120Y-123588780D01*
X45209460Y-123611640D01*
X45237400Y-123624340D01*
X45384720Y-123690380D01*
X45410120Y-123647200D01*
X45445680Y-123601480D01*
X45496480Y-123563380D01*
X45554900Y-123537980D01*
X45580300Y-123530360D01*
X45633640Y-123517660D01*
X45633640Y-123444000D01*
X45633640Y-123370340D01*
X45689520Y-123370340D01*
X45745400Y-123370340D01*
X45745400Y-123444000D01*
X45745400Y-123517660D01*
X45806360Y-123527820D01*
X45844460Y-123537980D01*
X45885100Y-123553220D01*
X45923200Y-123568460D01*
X45956220Y-123586240D01*
X45976540Y-123598940D01*
X45981620Y-123606560D01*
X45976540Y-123616720D01*
X45961300Y-123639580D01*
X45938440Y-123667520D01*
X45928280Y-123680220D01*
X45869860Y-123743720D01*
X45811440Y-123715780D01*
X45760640Y-123698000D01*
X45709840Y-123687840D01*
X45664120Y-123690380D01*
X45626020Y-123703080D01*
X45600620Y-123723400D01*
X45590460Y-123751340D01*
X45590460Y-123753880D01*
X45590460Y-123761500D01*
X45593000Y-123769120D01*
X45600620Y-123776740D01*
X45613320Y-123784360D01*
X45633640Y-123797060D01*
X45661580Y-123809760D01*
X45699680Y-123830080D01*
X45750480Y-123852940D01*
X45811440Y-123880880D01*
X45890180Y-123916440D01*
X45984160Y-123959620D01*
X46009560Y-123969780D01*
X46095920Y-124007880D01*
X46177200Y-124045980D01*
X46250860Y-124076460D01*
X46314360Y-124106940D01*
X46367700Y-124129800D01*
X46408340Y-124145040D01*
X46433740Y-124157740D01*
X46441360Y-124160280D01*
X46448980Y-124150120D01*
X46456600Y-124124720D01*
X46464220Y-124084080D01*
X46464220Y-124073920D01*
X46474380Y-123949460D01*
X46474380Y-124520960D01*
X46469300Y-124526040D01*
X46408340Y-124599700D01*
X46360080Y-124647960D01*
X46360080Y-124353320D01*
X46349920Y-124338080D01*
X46324520Y-124322840D01*
X46283880Y-124302520D01*
X46228000Y-124277120D01*
X46197520Y-124264420D01*
X46019720Y-124185680D01*
X45989240Y-124246640D01*
X45951140Y-124305060D01*
X45897800Y-124348240D01*
X45831760Y-124378720D01*
X45821600Y-124381260D01*
X45786040Y-124391420D01*
X45763180Y-124404120D01*
X45753020Y-124421900D01*
X45747940Y-124449840D01*
X45747940Y-124472700D01*
X45742860Y-124538740D01*
X45689520Y-124538740D01*
X45633640Y-124538740D01*
X45633640Y-124470160D01*
X45633640Y-124437140D01*
X45633640Y-124414280D01*
X45623480Y-124401580D01*
X45605700Y-124396500D01*
X45572680Y-124388880D01*
X45549820Y-124386340D01*
X45514260Y-124376180D01*
X45468540Y-124358400D01*
X45420280Y-124335540D01*
X45382180Y-124312680D01*
X45364400Y-124299980D01*
X45341540Y-124279660D01*
X45407580Y-124213620D01*
X45443140Y-124180600D01*
X45466000Y-124160280D01*
X45481240Y-124155200D01*
X45488860Y-124155200D01*
X45539660Y-124190760D01*
X45585380Y-124213620D01*
X45626020Y-124226320D01*
X45674280Y-124231400D01*
X45681900Y-124231400D01*
X45737780Y-124223780D01*
X45778420Y-124206000D01*
X45803820Y-124175520D01*
X45803820Y-124172980D01*
X45811440Y-124142500D01*
X45806360Y-124114560D01*
X45806360Y-124112020D01*
X45801280Y-124104400D01*
X45793660Y-124096780D01*
X45780960Y-124086620D01*
X45760640Y-124076460D01*
X45732700Y-124061220D01*
X45694600Y-124040900D01*
X45643800Y-124018040D01*
X45580300Y-123990100D01*
X45504100Y-123954540D01*
X45410120Y-123913900D01*
X45366940Y-123893580D01*
X45280580Y-123855480D01*
X45199300Y-123819920D01*
X45125640Y-123789440D01*
X45062140Y-123761500D01*
X45008800Y-123738640D01*
X44968160Y-123723400D01*
X44942760Y-123713240D01*
X44932600Y-123710700D01*
X44924980Y-123725940D01*
X44914820Y-123758960D01*
X44907200Y-123802140D01*
X44899580Y-123852940D01*
X44897040Y-123903740D01*
X44894500Y-123954540D01*
X44894500Y-123967240D01*
X44904660Y-124084080D01*
X44930060Y-124198380D01*
X44975780Y-124305060D01*
X45034200Y-124404120D01*
X45105320Y-124490480D01*
X45189140Y-124569220D01*
X45280580Y-124635260D01*
X45382180Y-124686060D01*
X45491400Y-124724160D01*
X45605700Y-124744480D01*
X45722540Y-124747020D01*
X45796200Y-124739400D01*
X45918120Y-124708920D01*
X46034960Y-124660660D01*
X46141640Y-124597160D01*
X46238160Y-124515880D01*
X46299120Y-124452380D01*
X46327060Y-124416820D01*
X46349920Y-124388880D01*
X46360080Y-124368560D01*
X46360080Y-124353320D01*
X46360080Y-124647960D01*
X46355000Y-124653040D01*
X46245780Y-124744480D01*
X46131480Y-124815600D01*
X46009560Y-124871480D01*
X45892720Y-124904500D01*
X45834300Y-124914660D01*
X45763180Y-124919740D01*
X45689520Y-124924820D01*
X45618400Y-124924820D01*
X45559980Y-124919740D01*
X45547280Y-124919740D01*
X45417740Y-124891800D01*
X45293280Y-124846080D01*
X45176440Y-124782580D01*
X45067220Y-124701300D01*
X44978320Y-124614940D01*
X44891960Y-124513340D01*
X44825920Y-124414280D01*
X44775120Y-124307600D01*
X44742100Y-124193300D01*
X44721780Y-124068840D01*
X44719240Y-123995180D01*
X44716700Y-123931680D01*
X44716700Y-123880880D01*
X44719240Y-123837700D01*
X44726860Y-123794520D01*
X44731940Y-123761500D01*
X44770040Y-123631960D01*
X44823380Y-123507500D01*
X44894500Y-123393200D01*
X44980860Y-123289060D01*
X45079920Y-123197620D01*
X45191680Y-123121420D01*
X45265340Y-123080780D01*
X45354240Y-123042680D01*
X45443140Y-123017280D01*
X45539660Y-123002040D01*
X45633640Y-122994420D01*
X45778420Y-122996960D01*
X45913040Y-123017280D01*
X46037500Y-123052840D01*
X46156880Y-123108720D01*
X46268640Y-123182380D01*
X46349920Y-123253500D01*
X46443900Y-123352560D01*
X46520100Y-123464320D01*
X46578520Y-123583700D01*
X46621700Y-123710700D01*
X46644560Y-123845320D01*
X46649640Y-123985020D01*
X46649640Y-123985020D01*
G36*
X48821340Y-123982480D02*
X48818800Y-124061220D01*
X48813720Y-124129800D01*
X48803560Y-124185680D01*
X48803560Y-124193300D01*
X48760380Y-124325380D01*
X48699420Y-124447300D01*
X48643540Y-124523500D01*
X48643540Y-123990100D01*
X48643540Y-123931680D01*
X48638460Y-123850400D01*
X48628300Y-123781820D01*
X48613060Y-123720860D01*
X48590200Y-123659900D01*
X48564800Y-123606560D01*
X48503840Y-123504960D01*
X48427640Y-123413520D01*
X48336200Y-123332240D01*
X48237140Y-123266200D01*
X48130460Y-123215400D01*
X48097440Y-123202700D01*
X48026320Y-123187460D01*
X47945040Y-123174760D01*
X47856140Y-123172220D01*
X47772320Y-123174760D01*
X47696120Y-123184920D01*
X47688500Y-123184920D01*
X47574200Y-123220480D01*
X47464980Y-123273820D01*
X47365920Y-123342400D01*
X47277020Y-123426220D01*
X47203360Y-123522740D01*
X47139860Y-123631960D01*
X47104300Y-123720860D01*
X47089060Y-123761500D01*
X47081440Y-123791980D01*
X47076360Y-123822460D01*
X47071280Y-123858020D01*
X47071280Y-123901200D01*
X47071280Y-123957080D01*
X47073820Y-124043440D01*
X47081440Y-124114560D01*
X47096680Y-124180600D01*
X47119540Y-124244100D01*
X47142400Y-124294900D01*
X47188120Y-124373640D01*
X47249080Y-124454920D01*
X47317660Y-124526040D01*
X47391320Y-124589540D01*
X47459900Y-124637800D01*
X47561500Y-124688600D01*
X47675800Y-124724160D01*
X47792640Y-124741940D01*
X47909480Y-124744480D01*
X48026320Y-124726700D01*
X48064420Y-124719080D01*
X48171100Y-124678440D01*
X48272700Y-124625100D01*
X48366680Y-124556520D01*
X48450500Y-124475240D01*
X48521620Y-124391420D01*
X48574960Y-124297440D01*
X48580040Y-124284740D01*
X48615600Y-124193300D01*
X48635920Y-124096780D01*
X48643540Y-123990100D01*
X48643540Y-124523500D01*
X48620680Y-124556520D01*
X48526700Y-124658120D01*
X48442880Y-124729240D01*
X48326040Y-124805440D01*
X48201580Y-124863860D01*
X48072040Y-124901960D01*
X47934880Y-124922280D01*
X47795180Y-124924820D01*
X47696120Y-124914660D01*
X47569120Y-124884180D01*
X47444660Y-124835920D01*
X47330360Y-124769880D01*
X47221140Y-124686060D01*
X47122080Y-124587000D01*
X47109380Y-124569220D01*
X47028100Y-124460000D01*
X46967140Y-124343160D01*
X46921420Y-124218700D01*
X46893480Y-124089160D01*
X46885860Y-123957080D01*
X46896020Y-123822460D01*
X46923960Y-123692920D01*
X46972220Y-123563380D01*
X46984920Y-123535440D01*
X47053500Y-123418600D01*
X47134780Y-123314460D01*
X47231300Y-123220480D01*
X47337980Y-123139200D01*
X47454820Y-123075700D01*
X47576740Y-123027440D01*
X47604680Y-123019820D01*
X47640240Y-123009660D01*
X47673260Y-123004580D01*
X47711360Y-122999500D01*
X47754540Y-122999500D01*
X47810420Y-122996960D01*
X47861220Y-122996960D01*
X47927260Y-122996960D01*
X47980600Y-122999500D01*
X48023780Y-123002040D01*
X48059340Y-123007120D01*
X48092360Y-123014740D01*
X48110140Y-123019820D01*
X48191420Y-123047760D01*
X48277780Y-123083320D01*
X48359060Y-123126500D01*
X48420020Y-123164600D01*
X48463200Y-123200160D01*
X48511460Y-123245880D01*
X48562260Y-123294140D01*
X48610520Y-123347480D01*
X48648620Y-123393200D01*
X48663860Y-123413520D01*
X48699420Y-123474480D01*
X48734980Y-123545600D01*
X48768000Y-123619260D01*
X48793400Y-123690380D01*
X48795940Y-123705620D01*
X48808640Y-123758960D01*
X48813720Y-123827540D01*
X48818800Y-123903740D01*
X48821340Y-123982480D01*
X48821340Y-123982480D01*
X48821340Y-123982480D01*
G37*
X48821340Y-123982480D02*
X48818800Y-124061220D01*
X48813720Y-124129800D01*
X48803560Y-124185680D01*
X48803560Y-124193300D01*
X48760380Y-124325380D01*
X48699420Y-124447300D01*
X48643540Y-124523500D01*
X48643540Y-123990100D01*
X48643540Y-123931680D01*
X48638460Y-123850400D01*
X48628300Y-123781820D01*
X48613060Y-123720860D01*
X48590200Y-123659900D01*
X48564800Y-123606560D01*
X48503840Y-123504960D01*
X48427640Y-123413520D01*
X48336200Y-123332240D01*
X48237140Y-123266200D01*
X48130460Y-123215400D01*
X48097440Y-123202700D01*
X48026320Y-123187460D01*
X47945040Y-123174760D01*
X47856140Y-123172220D01*
X47772320Y-123174760D01*
X47696120Y-123184920D01*
X47688500Y-123184920D01*
X47574200Y-123220480D01*
X47464980Y-123273820D01*
X47365920Y-123342400D01*
X47277020Y-123426220D01*
X47203360Y-123522740D01*
X47139860Y-123631960D01*
X47104300Y-123720860D01*
X47089060Y-123761500D01*
X47081440Y-123791980D01*
X47076360Y-123822460D01*
X47071280Y-123858020D01*
X47071280Y-123901200D01*
X47071280Y-123957080D01*
X47073820Y-124043440D01*
X47081440Y-124114560D01*
X47096680Y-124180600D01*
X47119540Y-124244100D01*
X47142400Y-124294900D01*
X47188120Y-124373640D01*
X47249080Y-124454920D01*
X47317660Y-124526040D01*
X47391320Y-124589540D01*
X47459900Y-124637800D01*
X47561500Y-124688600D01*
X47675800Y-124724160D01*
X47792640Y-124741940D01*
X47909480Y-124744480D01*
X48026320Y-124726700D01*
X48064420Y-124719080D01*
X48171100Y-124678440D01*
X48272700Y-124625100D01*
X48366680Y-124556520D01*
X48450500Y-124475240D01*
X48521620Y-124391420D01*
X48574960Y-124297440D01*
X48580040Y-124284740D01*
X48615600Y-124193300D01*
X48635920Y-124096780D01*
X48643540Y-123990100D01*
X48643540Y-124523500D01*
X48620680Y-124556520D01*
X48526700Y-124658120D01*
X48442880Y-124729240D01*
X48326040Y-124805440D01*
X48201580Y-124863860D01*
X48072040Y-124901960D01*
X47934880Y-124922280D01*
X47795180Y-124924820D01*
X47696120Y-124914660D01*
X47569120Y-124884180D01*
X47444660Y-124835920D01*
X47330360Y-124769880D01*
X47221140Y-124686060D01*
X47122080Y-124587000D01*
X47109380Y-124569220D01*
X47028100Y-124460000D01*
X46967140Y-124343160D01*
X46921420Y-124218700D01*
X46893480Y-124089160D01*
X46885860Y-123957080D01*
X46896020Y-123822460D01*
X46923960Y-123692920D01*
X46972220Y-123563380D01*
X46984920Y-123535440D01*
X47053500Y-123418600D01*
X47134780Y-123314460D01*
X47231300Y-123220480D01*
X47337980Y-123139200D01*
X47454820Y-123075700D01*
X47576740Y-123027440D01*
X47604680Y-123019820D01*
X47640240Y-123009660D01*
X47673260Y-123004580D01*
X47711360Y-122999500D01*
X47754540Y-122999500D01*
X47810420Y-122996960D01*
X47861220Y-122996960D01*
X47927260Y-122996960D01*
X47980600Y-122999500D01*
X48023780Y-123002040D01*
X48059340Y-123007120D01*
X48092360Y-123014740D01*
X48110140Y-123019820D01*
X48191420Y-123047760D01*
X48277780Y-123083320D01*
X48359060Y-123126500D01*
X48420020Y-123164600D01*
X48463200Y-123200160D01*
X48511460Y-123245880D01*
X48562260Y-123294140D01*
X48610520Y-123347480D01*
X48648620Y-123393200D01*
X48663860Y-123413520D01*
X48699420Y-123474480D01*
X48734980Y-123545600D01*
X48768000Y-123619260D01*
X48793400Y-123690380D01*
X48795940Y-123705620D01*
X48808640Y-123758960D01*
X48813720Y-123827540D01*
X48818800Y-123903740D01*
X48821340Y-123982480D01*
X48821340Y-123982480D01*
G36*
X40927020Y-124541280D02*
X40909240Y-124569220D01*
X40881300Y-124607320D01*
X40843200Y-124645420D01*
X40800020Y-124680980D01*
X40759380Y-124706380D01*
X40749220Y-124711460D01*
X40678100Y-124731780D01*
X40594280Y-124739400D01*
X40530780Y-124736860D01*
X40446960Y-124721620D01*
X40370760Y-124688600D01*
X40309800Y-124640340D01*
X40259000Y-124579380D01*
X40223440Y-124505720D01*
X40203120Y-124424440D01*
X40198040Y-124327920D01*
X40200580Y-124302520D01*
X40213280Y-124216160D01*
X40238680Y-124142500D01*
X40281860Y-124076460D01*
X40299640Y-124056140D01*
X40363140Y-124000260D01*
X40436800Y-123962160D01*
X40518080Y-123939300D01*
X40609520Y-123936760D01*
X40647620Y-123941840D01*
X40693340Y-123949460D01*
X40741600Y-123964700D01*
X40774620Y-123977400D01*
X40805100Y-123995180D01*
X40838120Y-124020580D01*
X40868600Y-124051060D01*
X40896540Y-124079000D01*
X40911780Y-124104400D01*
X40916860Y-124117100D01*
X40909240Y-124127260D01*
X40886380Y-124142500D01*
X40853360Y-124162820D01*
X40838120Y-124170440D01*
X40756840Y-124211080D01*
X40708580Y-124160280D01*
X40683180Y-124134880D01*
X40662860Y-124119640D01*
X40642540Y-124112020D01*
X40617140Y-124112020D01*
X40604440Y-124112020D01*
X40548560Y-124119640D01*
X40502840Y-124145040D01*
X40464740Y-124185680D01*
X40462200Y-124190760D01*
X40449500Y-124226320D01*
X40441880Y-124274580D01*
X40436800Y-124330460D01*
X40439340Y-124386340D01*
X40444420Y-124437140D01*
X40452040Y-124460000D01*
X40474900Y-124508260D01*
X40507920Y-124541280D01*
X40553640Y-124559060D01*
X40601900Y-124564140D01*
X40655240Y-124559060D01*
X40695880Y-124541280D01*
X40726360Y-124510800D01*
X40741600Y-124490480D01*
X40756840Y-124470160D01*
X40769540Y-124460000D01*
X40769540Y-124460000D01*
X40782240Y-124462540D01*
X40807640Y-124475240D01*
X40840660Y-124493020D01*
X40853360Y-124500640D01*
X40927020Y-124541280D01*
X40927020Y-124541280D01*
X40927020Y-124541280D01*
G37*
X40927020Y-124541280D02*
X40909240Y-124569220D01*
X40881300Y-124607320D01*
X40843200Y-124645420D01*
X40800020Y-124680980D01*
X40759380Y-124706380D01*
X40749220Y-124711460D01*
X40678100Y-124731780D01*
X40594280Y-124739400D01*
X40530780Y-124736860D01*
X40446960Y-124721620D01*
X40370760Y-124688600D01*
X40309800Y-124640340D01*
X40259000Y-124579380D01*
X40223440Y-124505720D01*
X40203120Y-124424440D01*
X40198040Y-124327920D01*
X40200580Y-124302520D01*
X40213280Y-124216160D01*
X40238680Y-124142500D01*
X40281860Y-124076460D01*
X40299640Y-124056140D01*
X40363140Y-124000260D01*
X40436800Y-123962160D01*
X40518080Y-123939300D01*
X40609520Y-123936760D01*
X40647620Y-123941840D01*
X40693340Y-123949460D01*
X40741600Y-123964700D01*
X40774620Y-123977400D01*
X40805100Y-123995180D01*
X40838120Y-124020580D01*
X40868600Y-124051060D01*
X40896540Y-124079000D01*
X40911780Y-124104400D01*
X40916860Y-124117100D01*
X40909240Y-124127260D01*
X40886380Y-124142500D01*
X40853360Y-124162820D01*
X40838120Y-124170440D01*
X40756840Y-124211080D01*
X40708580Y-124160280D01*
X40683180Y-124134880D01*
X40662860Y-124119640D01*
X40642540Y-124112020D01*
X40617140Y-124112020D01*
X40604440Y-124112020D01*
X40548560Y-124119640D01*
X40502840Y-124145040D01*
X40464740Y-124185680D01*
X40462200Y-124190760D01*
X40449500Y-124226320D01*
X40441880Y-124274580D01*
X40436800Y-124330460D01*
X40439340Y-124386340D01*
X40444420Y-124437140D01*
X40452040Y-124460000D01*
X40474900Y-124508260D01*
X40507920Y-124541280D01*
X40553640Y-124559060D01*
X40601900Y-124564140D01*
X40655240Y-124559060D01*
X40695880Y-124541280D01*
X40726360Y-124510800D01*
X40741600Y-124490480D01*
X40756840Y-124470160D01*
X40769540Y-124460000D01*
X40769540Y-124460000D01*
X40782240Y-124462540D01*
X40807640Y-124475240D01*
X40840660Y-124493020D01*
X40853360Y-124500640D01*
X40927020Y-124541280D01*
X40927020Y-124541280D01*
G36*
X41671240Y-124538740D02*
X41671240Y-124551440D01*
X41658540Y-124574300D01*
X41645840Y-124592080D01*
X41587420Y-124655580D01*
X41523920Y-124698760D01*
X41452800Y-124726700D01*
X41371520Y-124739400D01*
X41280080Y-124736860D01*
X41203880Y-124724160D01*
X41140380Y-124696220D01*
X41079420Y-124655580D01*
X41069260Y-124645420D01*
X41018460Y-124584460D01*
X40980360Y-124510800D01*
X40957500Y-124429520D01*
X40954960Y-124411740D01*
X40952420Y-124320300D01*
X40962580Y-124233940D01*
X40987980Y-124152660D01*
X41028620Y-124081540D01*
X41079420Y-124023120D01*
X41142920Y-123979940D01*
X41181020Y-123962160D01*
X41257220Y-123941840D01*
X41341040Y-123936760D01*
X41427400Y-123944380D01*
X41503600Y-123967240D01*
X41513760Y-123969780D01*
X41549320Y-123992640D01*
X41587420Y-124020580D01*
X41625520Y-124053600D01*
X41653460Y-124086620D01*
X41661080Y-124101860D01*
X41668700Y-124114560D01*
X41668700Y-124122180D01*
X41658540Y-124132340D01*
X41640760Y-124145040D01*
X41605200Y-124162820D01*
X41589960Y-124170440D01*
X41506140Y-124211080D01*
X41457880Y-124160280D01*
X41432480Y-124134880D01*
X41412160Y-124119640D01*
X41394380Y-124112020D01*
X41366440Y-124112020D01*
X41356280Y-124112020D01*
X41300400Y-124117100D01*
X41257220Y-124139960D01*
X41221660Y-124180600D01*
X41206420Y-124206000D01*
X41191180Y-124256800D01*
X41181020Y-124320300D01*
X41183560Y-124383800D01*
X41193720Y-124444760D01*
X41203880Y-124470160D01*
X41234360Y-124515880D01*
X41275000Y-124548900D01*
X41323260Y-124564140D01*
X41374060Y-124566680D01*
X41422320Y-124551440D01*
X41468040Y-124520960D01*
X41488360Y-124495560D01*
X41506140Y-124475240D01*
X41508680Y-124467620D01*
X41513760Y-124462540D01*
X41529000Y-124465080D01*
X41551860Y-124475240D01*
X41587420Y-124493020D01*
X41622980Y-124510800D01*
X41650920Y-124528580D01*
X41668700Y-124538740D01*
X41671240Y-124538740D01*
X41671240Y-124538740D01*
X41671240Y-124538740D01*
G37*
X41671240Y-124538740D02*
X41671240Y-124551440D01*
X41658540Y-124574300D01*
X41645840Y-124592080D01*
X41587420Y-124655580D01*
X41523920Y-124698760D01*
X41452800Y-124726700D01*
X41371520Y-124739400D01*
X41280080Y-124736860D01*
X41203880Y-124724160D01*
X41140380Y-124696220D01*
X41079420Y-124655580D01*
X41069260Y-124645420D01*
X41018460Y-124584460D01*
X40980360Y-124510800D01*
X40957500Y-124429520D01*
X40954960Y-124411740D01*
X40952420Y-124320300D01*
X40962580Y-124233940D01*
X40987980Y-124152660D01*
X41028620Y-124081540D01*
X41079420Y-124023120D01*
X41142920Y-123979940D01*
X41181020Y-123962160D01*
X41257220Y-123941840D01*
X41341040Y-123936760D01*
X41427400Y-123944380D01*
X41503600Y-123967240D01*
X41513760Y-123969780D01*
X41549320Y-123992640D01*
X41587420Y-124020580D01*
X41625520Y-124053600D01*
X41653460Y-124086620D01*
X41661080Y-124101860D01*
X41668700Y-124114560D01*
X41668700Y-124122180D01*
X41658540Y-124132340D01*
X41640760Y-124145040D01*
X41605200Y-124162820D01*
X41589960Y-124170440D01*
X41506140Y-124211080D01*
X41457880Y-124160280D01*
X41432480Y-124134880D01*
X41412160Y-124119640D01*
X41394380Y-124112020D01*
X41366440Y-124112020D01*
X41356280Y-124112020D01*
X41300400Y-124117100D01*
X41257220Y-124139960D01*
X41221660Y-124180600D01*
X41206420Y-124206000D01*
X41191180Y-124256800D01*
X41181020Y-124320300D01*
X41183560Y-124383800D01*
X41193720Y-124444760D01*
X41203880Y-124470160D01*
X41234360Y-124515880D01*
X41275000Y-124548900D01*
X41323260Y-124564140D01*
X41374060Y-124566680D01*
X41422320Y-124551440D01*
X41468040Y-124520960D01*
X41488360Y-124495560D01*
X41506140Y-124475240D01*
X41508680Y-124467620D01*
X41513760Y-124462540D01*
X41529000Y-124465080D01*
X41551860Y-124475240D01*
X41587420Y-124493020D01*
X41622980Y-124510800D01*
X41650920Y-124528580D01*
X41668700Y-124538740D01*
X41671240Y-124538740D01*
X41671240Y-124538740D01*
G36*
X43769280Y-123751340D02*
X43769280Y-123781820D01*
X43769280Y-123825000D01*
X43769280Y-123878340D01*
X43769280Y-123931680D01*
X43766740Y-124109480D01*
X43715940Y-124112020D01*
X43662600Y-124117100D01*
X43660060Y-124348240D01*
X43657520Y-124579380D01*
X43507660Y-124579380D01*
X43357800Y-124579380D01*
X43357800Y-124345700D01*
X43357800Y-124109480D01*
X43314620Y-124112020D01*
X43284140Y-124112020D01*
X43263820Y-124112020D01*
X43258740Y-124112020D01*
X43256200Y-124106940D01*
X43251120Y-124091700D01*
X43248580Y-124063760D01*
X43248580Y-124018040D01*
X43248580Y-123959620D01*
X43248580Y-123908820D01*
X43248580Y-123837700D01*
X43248580Y-123781820D01*
X43251120Y-123743720D01*
X43253660Y-123715780D01*
X43256200Y-123698000D01*
X43261280Y-123685300D01*
X43263820Y-123682760D01*
X43268900Y-123675140D01*
X43276520Y-123670060D01*
X43286680Y-123667520D01*
X43304460Y-123664980D01*
X43332400Y-123662440D01*
X43370500Y-123662440D01*
X43423840Y-123659900D01*
X43494960Y-123659900D01*
X43507660Y-123659900D01*
X43586400Y-123662440D01*
X43647360Y-123662440D01*
X43693080Y-123664980D01*
X43726100Y-123667520D01*
X43748960Y-123675140D01*
X43761660Y-123685300D01*
X43766740Y-123698000D01*
X43769280Y-123715780D01*
X43769280Y-123736100D01*
X43769280Y-123751340D01*
X43769280Y-123751340D01*
X43769280Y-123751340D01*
G37*
X43769280Y-123751340D02*
X43769280Y-123781820D01*
X43769280Y-123825000D01*
X43769280Y-123878340D01*
X43769280Y-123931680D01*
X43766740Y-124109480D01*
X43715940Y-124112020D01*
X43662600Y-124117100D01*
X43660060Y-124348240D01*
X43657520Y-124579380D01*
X43507660Y-124579380D01*
X43357800Y-124579380D01*
X43357800Y-124345700D01*
X43357800Y-124109480D01*
X43314620Y-124112020D01*
X43284140Y-124112020D01*
X43263820Y-124112020D01*
X43258740Y-124112020D01*
X43256200Y-124106940D01*
X43251120Y-124091700D01*
X43248580Y-124063760D01*
X43248580Y-124018040D01*
X43248580Y-123959620D01*
X43248580Y-123908820D01*
X43248580Y-123837700D01*
X43248580Y-123781820D01*
X43251120Y-123743720D01*
X43253660Y-123715780D01*
X43256200Y-123698000D01*
X43261280Y-123685300D01*
X43263820Y-123682760D01*
X43268900Y-123675140D01*
X43276520Y-123670060D01*
X43286680Y-123667520D01*
X43304460Y-123664980D01*
X43332400Y-123662440D01*
X43370500Y-123662440D01*
X43423840Y-123659900D01*
X43494960Y-123659900D01*
X43507660Y-123659900D01*
X43586400Y-123662440D01*
X43647360Y-123662440D01*
X43693080Y-123664980D01*
X43726100Y-123667520D01*
X43748960Y-123675140D01*
X43761660Y-123685300D01*
X43766740Y-123698000D01*
X43769280Y-123715780D01*
X43769280Y-123736100D01*
X43769280Y-123751340D01*
X43769280Y-123751340D01*
G36*
X43642280Y-123482100D02*
X43634660Y-123522740D01*
X43614340Y-123558300D01*
X43581320Y-123586240D01*
X43535600Y-123604020D01*
X43533060Y-123604020D01*
X43502580Y-123604020D01*
X43469560Y-123598940D01*
X43461940Y-123596400D01*
X43436540Y-123586240D01*
X43421300Y-123581160D01*
X43421300Y-123581160D01*
X43413680Y-123573540D01*
X43403520Y-123555760D01*
X43398440Y-123548140D01*
X43378120Y-123499880D01*
X43378120Y-123451620D01*
X43390820Y-123408440D01*
X43418760Y-123372880D01*
X43456860Y-123350020D01*
X43507660Y-123339860D01*
X43515280Y-123337320D01*
X43561000Y-123347480D01*
X43599100Y-123370340D01*
X43624500Y-123400820D01*
X43639740Y-123438920D01*
X43642280Y-123482100D01*
X43642280Y-123482100D01*
X43642280Y-123482100D01*
G37*
X43642280Y-123482100D02*
X43634660Y-123522740D01*
X43614340Y-123558300D01*
X43581320Y-123586240D01*
X43535600Y-123604020D01*
X43533060Y-123604020D01*
X43502580Y-123604020D01*
X43469560Y-123598940D01*
X43461940Y-123596400D01*
X43436540Y-123586240D01*
X43421300Y-123581160D01*
X43421300Y-123581160D01*
X43413680Y-123573540D01*
X43403520Y-123555760D01*
X43398440Y-123548140D01*
X43378120Y-123499880D01*
X43378120Y-123451620D01*
X43390820Y-123408440D01*
X43418760Y-123372880D01*
X43456860Y-123350020D01*
X43507660Y-123339860D01*
X43515280Y-123337320D01*
X43561000Y-123347480D01*
X43599100Y-123370340D01*
X43624500Y-123400820D01*
X43639740Y-123438920D01*
X43642280Y-123482100D01*
X43642280Y-123482100D01*
G36*
X48346360Y-123954540D02*
X48341280Y-124051060D01*
X48320960Y-124145040D01*
X48287940Y-124231400D01*
X48267620Y-124264420D01*
X48237140Y-124305060D01*
X48206660Y-124343160D01*
X48201580Y-124345700D01*
X48125380Y-124409200D01*
X48041560Y-124452380D01*
X47947580Y-124477780D01*
X47851060Y-124487940D01*
X47752000Y-124477780D01*
X47746920Y-124477780D01*
X47663100Y-124454920D01*
X47586900Y-124411740D01*
X47525940Y-124353320D01*
X47472600Y-124279660D01*
X47437040Y-124190760D01*
X47421800Y-124139960D01*
X47414180Y-124112020D01*
X47538640Y-124112020D01*
X47663100Y-124112020D01*
X47670720Y-124152660D01*
X47683420Y-124193300D01*
X47711360Y-124231400D01*
X47741840Y-124259340D01*
X47746920Y-124261880D01*
X47767240Y-124269500D01*
X47800260Y-124277120D01*
X47823120Y-124282200D01*
X47891700Y-124284740D01*
X47952660Y-124269500D01*
X48003460Y-124236480D01*
X48044100Y-124188220D01*
X48074580Y-124122180D01*
X48094900Y-124040900D01*
X48094900Y-124040900D01*
X48099980Y-123969780D01*
X48097440Y-123896120D01*
X48082200Y-123825000D01*
X48061880Y-123766580D01*
X48059340Y-123761500D01*
X48026320Y-123713240D01*
X47980600Y-123680220D01*
X47934880Y-123659900D01*
X47871380Y-123654820D01*
X47810420Y-123662440D01*
X47757080Y-123682760D01*
X47711360Y-123715780D01*
X47685960Y-123753880D01*
X47670720Y-123786900D01*
X47668180Y-123807220D01*
X47673260Y-123817380D01*
X47696120Y-123819920D01*
X47703740Y-123822460D01*
X47739300Y-123822460D01*
X47642780Y-123918980D01*
X47546260Y-124015500D01*
X47447200Y-123918980D01*
X47350680Y-123822460D01*
X47386240Y-123822460D01*
X47416720Y-123817380D01*
X47431960Y-123799600D01*
X47434500Y-123771660D01*
X47439580Y-123748800D01*
X47454820Y-123713240D01*
X47477680Y-123670060D01*
X47500540Y-123629420D01*
X47525940Y-123591320D01*
X47548800Y-123565920D01*
X47614840Y-123515120D01*
X47691040Y-123479560D01*
X47774860Y-123456700D01*
X47863760Y-123449080D01*
X47952660Y-123459240D01*
X48044100Y-123484640D01*
X48097440Y-123507500D01*
X48168560Y-123553220D01*
X48229520Y-123614180D01*
X48277780Y-123687840D01*
X48313340Y-123771660D01*
X48336200Y-123860560D01*
X48346360Y-123954540D01*
X48346360Y-123954540D01*
X48346360Y-123954540D01*
G37*
X48346360Y-123954540D02*
X48341280Y-124051060D01*
X48320960Y-124145040D01*
X48287940Y-124231400D01*
X48267620Y-124264420D01*
X48237140Y-124305060D01*
X48206660Y-124343160D01*
X48201580Y-124345700D01*
X48125380Y-124409200D01*
X48041560Y-124452380D01*
X47947580Y-124477780D01*
X47851060Y-124487940D01*
X47752000Y-124477780D01*
X47746920Y-124477780D01*
X47663100Y-124454920D01*
X47586900Y-124411740D01*
X47525940Y-124353320D01*
X47472600Y-124279660D01*
X47437040Y-124190760D01*
X47421800Y-124139960D01*
X47414180Y-124112020D01*
X47538640Y-124112020D01*
X47663100Y-124112020D01*
X47670720Y-124152660D01*
X47683420Y-124193300D01*
X47711360Y-124231400D01*
X47741840Y-124259340D01*
X47746920Y-124261880D01*
X47767240Y-124269500D01*
X47800260Y-124277120D01*
X47823120Y-124282200D01*
X47891700Y-124284740D01*
X47952660Y-124269500D01*
X48003460Y-124236480D01*
X48044100Y-124188220D01*
X48074580Y-124122180D01*
X48094900Y-124040900D01*
X48094900Y-124040900D01*
X48099980Y-123969780D01*
X48097440Y-123896120D01*
X48082200Y-123825000D01*
X48061880Y-123766580D01*
X48059340Y-123761500D01*
X48026320Y-123713240D01*
X47980600Y-123680220D01*
X47934880Y-123659900D01*
X47871380Y-123654820D01*
X47810420Y-123662440D01*
X47757080Y-123682760D01*
X47711360Y-123715780D01*
X47685960Y-123753880D01*
X47670720Y-123786900D01*
X47668180Y-123807220D01*
X47673260Y-123817380D01*
X47696120Y-123819920D01*
X47703740Y-123822460D01*
X47739300Y-123822460D01*
X47642780Y-123918980D01*
X47546260Y-124015500D01*
X47447200Y-123918980D01*
X47350680Y-123822460D01*
X47386240Y-123822460D01*
X47416720Y-123817380D01*
X47431960Y-123799600D01*
X47434500Y-123771660D01*
X47439580Y-123748800D01*
X47454820Y-123713240D01*
X47477680Y-123670060D01*
X47500540Y-123629420D01*
X47525940Y-123591320D01*
X47548800Y-123565920D01*
X47614840Y-123515120D01*
X47691040Y-123479560D01*
X47774860Y-123456700D01*
X47863760Y-123449080D01*
X47952660Y-123459240D01*
X48044100Y-123484640D01*
X48097440Y-123507500D01*
X48168560Y-123553220D01*
X48229520Y-123614180D01*
X48277780Y-123687840D01*
X48313340Y-123771660D01*
X48336200Y-123860560D01*
X48346360Y-123954540D01*
X48346360Y-123954540D01*
D16*
X43632381Y-108688095D02*
X42632381Y-108688095D01*
X42632381Y-108307142D01*
X42680000Y-108211904D01*
X42727619Y-108164285D01*
X42822857Y-108116666D01*
X42965714Y-108116666D01*
X43060952Y-108164285D01*
X43108571Y-108211904D01*
X43156190Y-108307142D01*
X43156190Y-108688095D01*
X43632381Y-107164285D02*
X43632381Y-107735714D01*
X43632381Y-107450000D02*
X42632381Y-107450000D01*
X42775238Y-107545238D01*
X42870476Y-107640476D01*
X42918095Y-107735714D01*
X79192381Y-108688095D02*
X78192381Y-108688095D01*
X78192381Y-108307142D01*
X78240000Y-108211904D01*
X78287619Y-108164285D01*
X78382857Y-108116666D01*
X78525714Y-108116666D01*
X78620952Y-108164285D01*
X78668571Y-108211904D01*
X78716190Y-108307142D01*
X78716190Y-108688095D01*
X78192381Y-107259523D02*
X78192381Y-107450000D01*
X78240000Y-107545238D01*
X78287619Y-107592857D01*
X78430476Y-107688095D01*
X78620952Y-107735714D01*
X79001905Y-107735714D01*
X79097143Y-107688095D01*
X79144762Y-107640476D01*
X79192381Y-107545238D01*
X79192381Y-107354761D01*
X79144762Y-107259523D01*
X79097143Y-107211904D01*
X79001905Y-107164285D01*
X78763810Y-107164285D01*
X78668571Y-107211904D01*
X78620952Y-107259523D01*
X78573333Y-107354761D01*
X78573333Y-107545238D01*
X78620952Y-107640476D01*
X78668571Y-107688095D01*
X78763810Y-107735714D01*
X66492381Y-108688095D02*
X65492381Y-108688095D01*
X65492381Y-108307142D01*
X65540000Y-108211904D01*
X65587619Y-108164285D01*
X65682857Y-108116666D01*
X65825714Y-108116666D01*
X65920952Y-108164285D01*
X65968571Y-108211904D01*
X66016190Y-108307142D01*
X66016190Y-108688095D01*
X65492381Y-107783333D02*
X65492381Y-107116666D01*
X66492381Y-107545238D01*
X44981905Y-72207381D02*
X44981905Y-71207381D01*
X45362858Y-71207381D01*
X45458096Y-71255000D01*
X45505715Y-71302619D01*
X45553334Y-71397857D01*
X45553334Y-71540714D01*
X45505715Y-71635952D01*
X45458096Y-71683571D01*
X45362858Y-71731190D01*
X44981905Y-71731190D01*
X46410477Y-71540714D02*
X46410477Y-72207381D01*
X46172381Y-71159762D02*
X45934286Y-71874048D01*
X46553334Y-71874048D01*
D13*
X40802858Y-79418571D02*
X40802858Y-77918571D01*
X41374286Y-77918571D01*
X41517144Y-77990000D01*
X41588572Y-78061429D01*
X41660001Y-78204286D01*
X41660001Y-78418571D01*
X41588572Y-78561429D01*
X41517144Y-78632857D01*
X41374286Y-78704286D01*
X40802858Y-78704286D01*
X43017144Y-77918571D02*
X42302858Y-77918571D01*
X42231429Y-78632857D01*
X42302858Y-78561429D01*
X42445715Y-78490000D01*
X42802858Y-78490000D01*
X42945715Y-78561429D01*
X43017144Y-78632857D01*
X43088572Y-78775714D01*
X43088572Y-79132857D01*
X43017144Y-79275714D01*
X42945715Y-79347143D01*
X42802858Y-79418571D01*
X42445715Y-79418571D01*
X42302858Y-79347143D01*
X42231429Y-79275714D01*
D16*
X56332381Y-108688095D02*
X55332381Y-108688095D01*
X55332381Y-108307142D01*
X55380000Y-108211904D01*
X55427619Y-108164285D01*
X55522857Y-108116666D01*
X55665714Y-108116666D01*
X55760952Y-108164285D01*
X55808571Y-108211904D01*
X55856190Y-108307142D01*
X55856190Y-108688095D01*
X55427619Y-107735714D02*
X55380000Y-107688095D01*
X55332381Y-107592857D01*
X55332381Y-107354761D01*
X55380000Y-107259523D01*
X55427619Y-107211904D01*
X55522857Y-107164285D01*
X55618095Y-107164285D01*
X55760952Y-107211904D01*
X56332381Y-107783333D01*
X56332381Y-107164285D01*
D21*
X48261905Y-130952381D02*
X48261905Y-129952381D01*
X48642858Y-129952381D01*
X48738096Y-130000000D01*
X48785715Y-130047619D01*
X48833334Y-130142857D01*
X48833334Y-130285714D01*
X48785715Y-130380952D01*
X48738096Y-130428571D01*
X48642858Y-130476190D01*
X48261905Y-130476190D01*
X49166667Y-129952381D02*
X49785715Y-129952381D01*
X49452381Y-130333333D01*
X49595239Y-130333333D01*
X49690477Y-130380952D01*
X49738096Y-130428571D01*
X49785715Y-130523810D01*
X49785715Y-130761905D01*
X49738096Y-130857143D01*
X49690477Y-130904762D01*
X49595239Y-130952381D01*
X49309524Y-130952381D01*
X49214286Y-130904762D01*
X49166667Y-130857143D01*
D16*
X45593095Y-95972381D02*
X45593095Y-96781905D01*
X45640714Y-96877143D01*
X45688333Y-96924762D01*
X45783571Y-96972381D01*
X45974048Y-96972381D01*
X46069286Y-96924762D01*
X46116905Y-96877143D01*
X46164524Y-96781905D01*
X46164524Y-95972381D01*
X46593095Y-96067619D02*
X46640714Y-96020000D01*
X46735952Y-95972381D01*
X46974048Y-95972381D01*
X47069286Y-96020000D01*
X47116905Y-96067619D01*
X47164524Y-96162857D01*
X47164524Y-96258095D01*
X47116905Y-96400952D01*
X46545476Y-96972381D01*
X47164524Y-96972381D01*
X51943095Y-118832381D02*
X51943095Y-119641905D01*
X51990714Y-119737143D01*
X52038333Y-119784762D01*
X52133571Y-119832381D01*
X52324048Y-119832381D01*
X52419286Y-119784762D01*
X52466905Y-119737143D01*
X52514524Y-119641905D01*
X52514524Y-118832381D01*
X53419286Y-119165714D02*
X53419286Y-119832381D01*
X53181190Y-118784762D02*
X52943095Y-119499048D01*
X53562143Y-119499048D01*
X74803095Y-118832381D02*
X74803095Y-119641905D01*
X74850714Y-119737143D01*
X74898333Y-119784762D01*
X74993571Y-119832381D01*
X75184048Y-119832381D01*
X75279286Y-119784762D01*
X75326905Y-119737143D01*
X75374524Y-119641905D01*
X75374524Y-118832381D01*
X76279286Y-118832381D02*
X76088809Y-118832381D01*
X75993571Y-118880000D01*
X75945952Y-118927619D01*
X75850714Y-119070476D01*
X75803095Y-119260952D01*
X75803095Y-119641905D01*
X75850714Y-119737143D01*
X75898333Y-119784762D01*
X75993571Y-119832381D01*
X76184048Y-119832381D01*
X76279286Y-119784762D01*
X76326905Y-119737143D01*
X76374524Y-119641905D01*
X76374524Y-119403810D01*
X76326905Y-119308571D01*
X76279286Y-119260952D01*
X76184048Y-119213333D01*
X75993571Y-119213333D01*
X75898333Y-119260952D01*
X75850714Y-119308571D01*
X75803095Y-119403810D01*
X68453095Y-95972381D02*
X68453095Y-96781905D01*
X68500714Y-96877143D01*
X68548333Y-96924762D01*
X68643571Y-96972381D01*
X68834048Y-96972381D01*
X68929286Y-96924762D01*
X68976905Y-96877143D01*
X69024524Y-96781905D01*
X69024524Y-95972381D01*
X69643571Y-96400952D02*
X69548333Y-96353333D01*
X69500714Y-96305714D01*
X69453095Y-96210476D01*
X69453095Y-96162857D01*
X69500714Y-96067619D01*
X69548333Y-96020000D01*
X69643571Y-95972381D01*
X69834048Y-95972381D01*
X69929286Y-96020000D01*
X69976905Y-96067619D01*
X70024524Y-96162857D01*
X70024524Y-96210476D01*
X69976905Y-96305714D01*
X69929286Y-96353333D01*
X69834048Y-96400952D01*
X69643571Y-96400952D01*
X69548333Y-96448571D01*
X69500714Y-96496190D01*
X69453095Y-96591429D01*
X69453095Y-96781905D01*
X69500714Y-96877143D01*
X69548333Y-96924762D01*
X69643571Y-96972381D01*
X69834048Y-96972381D01*
X69929286Y-96924762D01*
X69976905Y-96877143D01*
X70024524Y-96781905D01*
X70024524Y-96591429D01*
X69976905Y-96496190D01*
X69929286Y-96448571D01*
X69834048Y-96400952D01*
M02*
