G04 #@! TF.FileFunction,Legend,Bot*
%FSLAX46Y46*%
G04 Gerber Fmt 4.6, Leading zero omitted, Abs format (unit mm)*
G04 Created by KiCad (PCBNEW 4.0.7) date Wednesday, January 10, 2018 'AMt' 07:06:06 AM*
%MOMM*%
%LPD*%
G01*
G04 APERTURE LIST*
%ADD10C,0.100000*%
%ADD11C,0.500000*%
%ADD12C,0.010000*%
%ADD13C,0.120000*%
%ADD14C,0.150000*%
G04 APERTURE END LIST*
D10*
D11*
X67945000Y-119253000D02*
G75*
G03X67945000Y-119253000I-254000J0D01*
G01*
X77470000Y-96393000D02*
G75*
G03X77470000Y-96393000I-254000J0D01*
G01*
X54610000Y-96393000D02*
G75*
G03X54610000Y-96393000I-254000J0D01*
G01*
X45085000Y-119253000D02*
G75*
G03X45085000Y-119253000I-254000J0D01*
G01*
D12*
G36*
X84621371Y-126269066D02*
X84581889Y-126269467D01*
X84466200Y-126272259D01*
X84369311Y-126280550D01*
X84287919Y-126295232D01*
X84218723Y-126317193D01*
X84158420Y-126347322D01*
X84103708Y-126386510D01*
X84084167Y-126403532D01*
X84051750Y-126443363D01*
X84022520Y-126497413D01*
X83999991Y-126557323D01*
X83987679Y-126614739D01*
X83986400Y-126635956D01*
X83994417Y-126694769D01*
X84015899Y-126759013D01*
X84046999Y-126819821D01*
X84083866Y-126868330D01*
X84089854Y-126874182D01*
X84140579Y-126915321D01*
X84196125Y-126947435D01*
X84259696Y-126971365D01*
X84334494Y-126987953D01*
X84423722Y-126998041D01*
X84530582Y-127002469D01*
X84579528Y-127002845D01*
X84641762Y-127002545D01*
X84685528Y-127001292D01*
X84714931Y-126998554D01*
X84734079Y-126993801D01*
X84747077Y-126986501D01*
X84754045Y-126980267D01*
X84760626Y-126972694D01*
X84765788Y-126962924D01*
X84769703Y-126948340D01*
X84772543Y-126926326D01*
X84774480Y-126894264D01*
X84775684Y-126849536D01*
X84776328Y-126789526D01*
X84776583Y-126711617D01*
X84776622Y-126635956D01*
X84776870Y-126535041D01*
X84776817Y-126454427D01*
X84775857Y-126415822D01*
X84629867Y-126415822D01*
X84629867Y-126856089D01*
X84536734Y-126856004D01*
X84480693Y-126854396D01*
X84421999Y-126850256D01*
X84373028Y-126844464D01*
X84371538Y-126844226D01*
X84292392Y-126825090D01*
X84231002Y-126795287D01*
X84184305Y-126752878D01*
X84154635Y-126706961D01*
X84136353Y-126656026D01*
X84137771Y-126608200D01*
X84158988Y-126556933D01*
X84200489Y-126503899D01*
X84257998Y-126464600D01*
X84332750Y-126438331D01*
X84382708Y-126429035D01*
X84439416Y-126422507D01*
X84499519Y-126417782D01*
X84550639Y-126415817D01*
X84553667Y-126415808D01*
X84629867Y-126415822D01*
X84775857Y-126415822D01*
X84775260Y-126391851D01*
X84770998Y-126345055D01*
X84762830Y-126311778D01*
X84749556Y-126289759D01*
X84729974Y-126276739D01*
X84702883Y-126270457D01*
X84667082Y-126268653D01*
X84621371Y-126269066D01*
X84621371Y-126269066D01*
G37*
X84621371Y-126269066D02*
X84581889Y-126269467D01*
X84466200Y-126272259D01*
X84369311Y-126280550D01*
X84287919Y-126295232D01*
X84218723Y-126317193D01*
X84158420Y-126347322D01*
X84103708Y-126386510D01*
X84084167Y-126403532D01*
X84051750Y-126443363D01*
X84022520Y-126497413D01*
X83999991Y-126557323D01*
X83987679Y-126614739D01*
X83986400Y-126635956D01*
X83994417Y-126694769D01*
X84015899Y-126759013D01*
X84046999Y-126819821D01*
X84083866Y-126868330D01*
X84089854Y-126874182D01*
X84140579Y-126915321D01*
X84196125Y-126947435D01*
X84259696Y-126971365D01*
X84334494Y-126987953D01*
X84423722Y-126998041D01*
X84530582Y-127002469D01*
X84579528Y-127002845D01*
X84641762Y-127002545D01*
X84685528Y-127001292D01*
X84714931Y-126998554D01*
X84734079Y-126993801D01*
X84747077Y-126986501D01*
X84754045Y-126980267D01*
X84760626Y-126972694D01*
X84765788Y-126962924D01*
X84769703Y-126948340D01*
X84772543Y-126926326D01*
X84774480Y-126894264D01*
X84775684Y-126849536D01*
X84776328Y-126789526D01*
X84776583Y-126711617D01*
X84776622Y-126635956D01*
X84776870Y-126535041D01*
X84776817Y-126454427D01*
X84775857Y-126415822D01*
X84629867Y-126415822D01*
X84629867Y-126856089D01*
X84536734Y-126856004D01*
X84480693Y-126854396D01*
X84421999Y-126850256D01*
X84373028Y-126844464D01*
X84371538Y-126844226D01*
X84292392Y-126825090D01*
X84231002Y-126795287D01*
X84184305Y-126752878D01*
X84154635Y-126706961D01*
X84136353Y-126656026D01*
X84137771Y-126608200D01*
X84158988Y-126556933D01*
X84200489Y-126503899D01*
X84257998Y-126464600D01*
X84332750Y-126438331D01*
X84382708Y-126429035D01*
X84439416Y-126422507D01*
X84499519Y-126417782D01*
X84550639Y-126415817D01*
X84553667Y-126415808D01*
X84629867Y-126415822D01*
X84775857Y-126415822D01*
X84775260Y-126391851D01*
X84770998Y-126345055D01*
X84762830Y-126311778D01*
X84749556Y-126289759D01*
X84729974Y-126276739D01*
X84702883Y-126270457D01*
X84667082Y-126268653D01*
X84621371Y-126269066D01*
G36*
X83212794Y-126269146D02*
X83143386Y-126269518D01*
X83090997Y-126270385D01*
X83052847Y-126271946D01*
X83026159Y-126274403D01*
X83008153Y-126277957D01*
X82996049Y-126282810D01*
X82987069Y-126289161D01*
X82983818Y-126292084D01*
X82964043Y-126323142D01*
X82960482Y-126358828D01*
X82973491Y-126390510D01*
X82979506Y-126396913D01*
X82989235Y-126403121D01*
X83004901Y-126407910D01*
X83029408Y-126411514D01*
X83065661Y-126414164D01*
X83116565Y-126416095D01*
X83185026Y-126417539D01*
X83247617Y-126418418D01*
X83495334Y-126421467D01*
X83498719Y-126486378D01*
X83502105Y-126551289D01*
X83333958Y-126551289D01*
X83260959Y-126551919D01*
X83207517Y-126554553D01*
X83170628Y-126560309D01*
X83147288Y-126570304D01*
X83134494Y-126585656D01*
X83129242Y-126607482D01*
X83128445Y-126627738D01*
X83130923Y-126652592D01*
X83140277Y-126670906D01*
X83159383Y-126683637D01*
X83191118Y-126691741D01*
X83238359Y-126696176D01*
X83303983Y-126697899D01*
X83339801Y-126698045D01*
X83500978Y-126698045D01*
X83500978Y-126856089D01*
X83252622Y-126856089D01*
X83171213Y-126856202D01*
X83109342Y-126856712D01*
X83063968Y-126857870D01*
X83032054Y-126859930D01*
X83010559Y-126863146D01*
X82996443Y-126867772D01*
X82986668Y-126874059D01*
X82981689Y-126878667D01*
X82964610Y-126905560D01*
X82959111Y-126929467D01*
X82966963Y-126958667D01*
X82981689Y-126980267D01*
X82989546Y-126987066D01*
X82999688Y-126992346D01*
X83014844Y-126996298D01*
X83037741Y-126999113D01*
X83071109Y-127000982D01*
X83117675Y-127002098D01*
X83180167Y-127002651D01*
X83261314Y-127002833D01*
X83303422Y-127002845D01*
X83393598Y-127002765D01*
X83463924Y-127002398D01*
X83517129Y-127001552D01*
X83555940Y-127000036D01*
X83583087Y-126997659D01*
X83601298Y-126994229D01*
X83613300Y-126989554D01*
X83621822Y-126983444D01*
X83625156Y-126980267D01*
X83631755Y-126972670D01*
X83636927Y-126962870D01*
X83640846Y-126948239D01*
X83643684Y-126926152D01*
X83645615Y-126893982D01*
X83646812Y-126849103D01*
X83647448Y-126788889D01*
X83647697Y-126710713D01*
X83647734Y-126637923D01*
X83647700Y-126544707D01*
X83647465Y-126471431D01*
X83646830Y-126415458D01*
X83645594Y-126374151D01*
X83643556Y-126344872D01*
X83640517Y-126324984D01*
X83636277Y-126311850D01*
X83630635Y-126302832D01*
X83623391Y-126295293D01*
X83621606Y-126293612D01*
X83612945Y-126286172D01*
X83602882Y-126280409D01*
X83588625Y-126276112D01*
X83567383Y-126273064D01*
X83536364Y-126271051D01*
X83492777Y-126269860D01*
X83433831Y-126269275D01*
X83356734Y-126269083D01*
X83302001Y-126269067D01*
X83212794Y-126269146D01*
X83212794Y-126269146D01*
G37*
X83212794Y-126269146D02*
X83143386Y-126269518D01*
X83090997Y-126270385D01*
X83052847Y-126271946D01*
X83026159Y-126274403D01*
X83008153Y-126277957D01*
X82996049Y-126282810D01*
X82987069Y-126289161D01*
X82983818Y-126292084D01*
X82964043Y-126323142D01*
X82960482Y-126358828D01*
X82973491Y-126390510D01*
X82979506Y-126396913D01*
X82989235Y-126403121D01*
X83004901Y-126407910D01*
X83029408Y-126411514D01*
X83065661Y-126414164D01*
X83116565Y-126416095D01*
X83185026Y-126417539D01*
X83247617Y-126418418D01*
X83495334Y-126421467D01*
X83498719Y-126486378D01*
X83502105Y-126551289D01*
X83333958Y-126551289D01*
X83260959Y-126551919D01*
X83207517Y-126554553D01*
X83170628Y-126560309D01*
X83147288Y-126570304D01*
X83134494Y-126585656D01*
X83129242Y-126607482D01*
X83128445Y-126627738D01*
X83130923Y-126652592D01*
X83140277Y-126670906D01*
X83159383Y-126683637D01*
X83191118Y-126691741D01*
X83238359Y-126696176D01*
X83303983Y-126697899D01*
X83339801Y-126698045D01*
X83500978Y-126698045D01*
X83500978Y-126856089D01*
X83252622Y-126856089D01*
X83171213Y-126856202D01*
X83109342Y-126856712D01*
X83063968Y-126857870D01*
X83032054Y-126859930D01*
X83010559Y-126863146D01*
X82996443Y-126867772D01*
X82986668Y-126874059D01*
X82981689Y-126878667D01*
X82964610Y-126905560D01*
X82959111Y-126929467D01*
X82966963Y-126958667D01*
X82981689Y-126980267D01*
X82989546Y-126987066D01*
X82999688Y-126992346D01*
X83014844Y-126996298D01*
X83037741Y-126999113D01*
X83071109Y-127000982D01*
X83117675Y-127002098D01*
X83180167Y-127002651D01*
X83261314Y-127002833D01*
X83303422Y-127002845D01*
X83393598Y-127002765D01*
X83463924Y-127002398D01*
X83517129Y-127001552D01*
X83555940Y-127000036D01*
X83583087Y-126997659D01*
X83601298Y-126994229D01*
X83613300Y-126989554D01*
X83621822Y-126983444D01*
X83625156Y-126980267D01*
X83631755Y-126972670D01*
X83636927Y-126962870D01*
X83640846Y-126948239D01*
X83643684Y-126926152D01*
X83645615Y-126893982D01*
X83646812Y-126849103D01*
X83647448Y-126788889D01*
X83647697Y-126710713D01*
X83647734Y-126637923D01*
X83647700Y-126544707D01*
X83647465Y-126471431D01*
X83646830Y-126415458D01*
X83645594Y-126374151D01*
X83643556Y-126344872D01*
X83640517Y-126324984D01*
X83636277Y-126311850D01*
X83630635Y-126302832D01*
X83623391Y-126295293D01*
X83621606Y-126293612D01*
X83612945Y-126286172D01*
X83602882Y-126280409D01*
X83588625Y-126276112D01*
X83567383Y-126273064D01*
X83536364Y-126271051D01*
X83492777Y-126269860D01*
X83433831Y-126269275D01*
X83356734Y-126269083D01*
X83302001Y-126269067D01*
X83212794Y-126269146D01*
G36*
X82191703Y-126270351D02*
X82116888Y-126275581D01*
X82047306Y-126283750D01*
X81987002Y-126294550D01*
X81940020Y-126307673D01*
X81910406Y-126322813D01*
X81905860Y-126327269D01*
X81890054Y-126361850D01*
X81894847Y-126397351D01*
X81919364Y-126427725D01*
X81920534Y-126428596D01*
X81934954Y-126437954D01*
X81950008Y-126442876D01*
X81971005Y-126443473D01*
X82003257Y-126439861D01*
X82052073Y-126432154D01*
X82056000Y-126431505D01*
X82128739Y-126422569D01*
X82207217Y-126418161D01*
X82285927Y-126418119D01*
X82359361Y-126422279D01*
X82422011Y-126430479D01*
X82468370Y-126442557D01*
X82471416Y-126443771D01*
X82505048Y-126462615D01*
X82516864Y-126481685D01*
X82507614Y-126500439D01*
X82478047Y-126518337D01*
X82428911Y-126534837D01*
X82360957Y-126549396D01*
X82315645Y-126556406D01*
X82221456Y-126569889D01*
X82146544Y-126582214D01*
X82087717Y-126594449D01*
X82041785Y-126607661D01*
X82005555Y-126622917D01*
X81975838Y-126641285D01*
X81949442Y-126663831D01*
X81928230Y-126685971D01*
X81903065Y-126716819D01*
X81890681Y-126743345D01*
X81886808Y-126776026D01*
X81886667Y-126787995D01*
X81889576Y-126827712D01*
X81901202Y-126857259D01*
X81921323Y-126883486D01*
X81962216Y-126923576D01*
X82007817Y-126954149D01*
X82061513Y-126976203D01*
X82126692Y-126990735D01*
X82206744Y-126998741D01*
X82305057Y-127001218D01*
X82321289Y-127001177D01*
X82386849Y-126999818D01*
X82451866Y-126996730D01*
X82509252Y-126992356D01*
X82551922Y-126987140D01*
X82555372Y-126986541D01*
X82597796Y-126976491D01*
X82633780Y-126963796D01*
X82654150Y-126952190D01*
X82673107Y-126921572D01*
X82674427Y-126885918D01*
X82658085Y-126854144D01*
X82654429Y-126850551D01*
X82639315Y-126839876D01*
X82620415Y-126835276D01*
X82591162Y-126836059D01*
X82555651Y-126840127D01*
X82515970Y-126843762D01*
X82460345Y-126846828D01*
X82395406Y-126849053D01*
X82327785Y-126850164D01*
X82310000Y-126850237D01*
X82242128Y-126849964D01*
X82192454Y-126848646D01*
X82156610Y-126845827D01*
X82130224Y-126841050D01*
X82108926Y-126833857D01*
X82096126Y-126827867D01*
X82068000Y-126811233D01*
X82050068Y-126796168D01*
X82047447Y-126791897D01*
X82052976Y-126774263D01*
X82079260Y-126757192D01*
X82124478Y-126741458D01*
X82186808Y-126727838D01*
X82205171Y-126724804D01*
X82301090Y-126709738D01*
X82377641Y-126697146D01*
X82437780Y-126686111D01*
X82484460Y-126675720D01*
X82520637Y-126665056D01*
X82549265Y-126653205D01*
X82573298Y-126639251D01*
X82595692Y-126622281D01*
X82619402Y-126601378D01*
X82627380Y-126594049D01*
X82655353Y-126566699D01*
X82670160Y-126545029D01*
X82675952Y-126520232D01*
X82676889Y-126488983D01*
X82666575Y-126427705D01*
X82635752Y-126375640D01*
X82584595Y-126332958D01*
X82513283Y-126299825D01*
X82462400Y-126284964D01*
X82407100Y-126275366D01*
X82340853Y-126269936D01*
X82267706Y-126268367D01*
X82191703Y-126270351D01*
X82191703Y-126270351D01*
G37*
X82191703Y-126270351D02*
X82116888Y-126275581D01*
X82047306Y-126283750D01*
X81987002Y-126294550D01*
X81940020Y-126307673D01*
X81910406Y-126322813D01*
X81905860Y-126327269D01*
X81890054Y-126361850D01*
X81894847Y-126397351D01*
X81919364Y-126427725D01*
X81920534Y-126428596D01*
X81934954Y-126437954D01*
X81950008Y-126442876D01*
X81971005Y-126443473D01*
X82003257Y-126439861D01*
X82052073Y-126432154D01*
X82056000Y-126431505D01*
X82128739Y-126422569D01*
X82207217Y-126418161D01*
X82285927Y-126418119D01*
X82359361Y-126422279D01*
X82422011Y-126430479D01*
X82468370Y-126442557D01*
X82471416Y-126443771D01*
X82505048Y-126462615D01*
X82516864Y-126481685D01*
X82507614Y-126500439D01*
X82478047Y-126518337D01*
X82428911Y-126534837D01*
X82360957Y-126549396D01*
X82315645Y-126556406D01*
X82221456Y-126569889D01*
X82146544Y-126582214D01*
X82087717Y-126594449D01*
X82041785Y-126607661D01*
X82005555Y-126622917D01*
X81975838Y-126641285D01*
X81949442Y-126663831D01*
X81928230Y-126685971D01*
X81903065Y-126716819D01*
X81890681Y-126743345D01*
X81886808Y-126776026D01*
X81886667Y-126787995D01*
X81889576Y-126827712D01*
X81901202Y-126857259D01*
X81921323Y-126883486D01*
X81962216Y-126923576D01*
X82007817Y-126954149D01*
X82061513Y-126976203D01*
X82126692Y-126990735D01*
X82206744Y-126998741D01*
X82305057Y-127001218D01*
X82321289Y-127001177D01*
X82386849Y-126999818D01*
X82451866Y-126996730D01*
X82509252Y-126992356D01*
X82551922Y-126987140D01*
X82555372Y-126986541D01*
X82597796Y-126976491D01*
X82633780Y-126963796D01*
X82654150Y-126952190D01*
X82673107Y-126921572D01*
X82674427Y-126885918D01*
X82658085Y-126854144D01*
X82654429Y-126850551D01*
X82639315Y-126839876D01*
X82620415Y-126835276D01*
X82591162Y-126836059D01*
X82555651Y-126840127D01*
X82515970Y-126843762D01*
X82460345Y-126846828D01*
X82395406Y-126849053D01*
X82327785Y-126850164D01*
X82310000Y-126850237D01*
X82242128Y-126849964D01*
X82192454Y-126848646D01*
X82156610Y-126845827D01*
X82130224Y-126841050D01*
X82108926Y-126833857D01*
X82096126Y-126827867D01*
X82068000Y-126811233D01*
X82050068Y-126796168D01*
X82047447Y-126791897D01*
X82052976Y-126774263D01*
X82079260Y-126757192D01*
X82124478Y-126741458D01*
X82186808Y-126727838D01*
X82205171Y-126724804D01*
X82301090Y-126709738D01*
X82377641Y-126697146D01*
X82437780Y-126686111D01*
X82484460Y-126675720D01*
X82520637Y-126665056D01*
X82549265Y-126653205D01*
X82573298Y-126639251D01*
X82595692Y-126622281D01*
X82619402Y-126601378D01*
X82627380Y-126594049D01*
X82655353Y-126566699D01*
X82670160Y-126545029D01*
X82675952Y-126520232D01*
X82676889Y-126488983D01*
X82666575Y-126427705D01*
X82635752Y-126375640D01*
X82584595Y-126332958D01*
X82513283Y-126299825D01*
X82462400Y-126284964D01*
X82407100Y-126275366D01*
X82340853Y-126269936D01*
X82267706Y-126268367D01*
X82191703Y-126270351D01*
G36*
X81423822Y-126291645D02*
X81417242Y-126299218D01*
X81412079Y-126308987D01*
X81408164Y-126323571D01*
X81405324Y-126345585D01*
X81403387Y-126377648D01*
X81402183Y-126422375D01*
X81401539Y-126482385D01*
X81401284Y-126560294D01*
X81401245Y-126635956D01*
X81401314Y-126729802D01*
X81401638Y-126803689D01*
X81402386Y-126860232D01*
X81403732Y-126902049D01*
X81405846Y-126931757D01*
X81408900Y-126951973D01*
X81413066Y-126965314D01*
X81418516Y-126974398D01*
X81423822Y-126980267D01*
X81456826Y-126999947D01*
X81491991Y-126998181D01*
X81523455Y-126976717D01*
X81530684Y-126968337D01*
X81536334Y-126958614D01*
X81540599Y-126944861D01*
X81543673Y-126924389D01*
X81545752Y-126894512D01*
X81547030Y-126852541D01*
X81547701Y-126795789D01*
X81547959Y-126721567D01*
X81548000Y-126637537D01*
X81548000Y-126324485D01*
X81520291Y-126296776D01*
X81486137Y-126273463D01*
X81453006Y-126272623D01*
X81423822Y-126291645D01*
X81423822Y-126291645D01*
G37*
X81423822Y-126291645D02*
X81417242Y-126299218D01*
X81412079Y-126308987D01*
X81408164Y-126323571D01*
X81405324Y-126345585D01*
X81403387Y-126377648D01*
X81402183Y-126422375D01*
X81401539Y-126482385D01*
X81401284Y-126560294D01*
X81401245Y-126635956D01*
X81401314Y-126729802D01*
X81401638Y-126803689D01*
X81402386Y-126860232D01*
X81403732Y-126902049D01*
X81405846Y-126931757D01*
X81408900Y-126951973D01*
X81413066Y-126965314D01*
X81418516Y-126974398D01*
X81423822Y-126980267D01*
X81456826Y-126999947D01*
X81491991Y-126998181D01*
X81523455Y-126976717D01*
X81530684Y-126968337D01*
X81536334Y-126958614D01*
X81540599Y-126944861D01*
X81543673Y-126924389D01*
X81545752Y-126894512D01*
X81547030Y-126852541D01*
X81547701Y-126795789D01*
X81547959Y-126721567D01*
X81548000Y-126637537D01*
X81548000Y-126324485D01*
X81520291Y-126296776D01*
X81486137Y-126273463D01*
X81453006Y-126272623D01*
X81423822Y-126291645D01*
G36*
X80450081Y-126274599D02*
X80381565Y-126286095D01*
X80328943Y-126303967D01*
X80294708Y-126327499D01*
X80285379Y-126340924D01*
X80275893Y-126372148D01*
X80282277Y-126400395D01*
X80302430Y-126427182D01*
X80333745Y-126439713D01*
X80379183Y-126438696D01*
X80414326Y-126431906D01*
X80492419Y-126418971D01*
X80572226Y-126417742D01*
X80661555Y-126428241D01*
X80686229Y-126432690D01*
X80769291Y-126456108D01*
X80834273Y-126490945D01*
X80880461Y-126536604D01*
X80907145Y-126592494D01*
X80912663Y-126621388D01*
X80909051Y-126680012D01*
X80885729Y-126731879D01*
X80844824Y-126775978D01*
X80788459Y-126811299D01*
X80718760Y-126836829D01*
X80637852Y-126851559D01*
X80547860Y-126854478D01*
X80450910Y-126844575D01*
X80445436Y-126843641D01*
X80406875Y-126836459D01*
X80385494Y-126829521D01*
X80376227Y-126819227D01*
X80374006Y-126801976D01*
X80373956Y-126792841D01*
X80373956Y-126754489D01*
X80442431Y-126754489D01*
X80502900Y-126750347D01*
X80544165Y-126737147D01*
X80568175Y-126713730D01*
X80576877Y-126678936D01*
X80576983Y-126674394D01*
X80571892Y-126644654D01*
X80554433Y-126623419D01*
X80521939Y-126609366D01*
X80471743Y-126601173D01*
X80423123Y-126598161D01*
X80352456Y-126596433D01*
X80301198Y-126599070D01*
X80266239Y-126608800D01*
X80244470Y-126628353D01*
X80232780Y-126660456D01*
X80228060Y-126707838D01*
X80227200Y-126770071D01*
X80228609Y-126839535D01*
X80232848Y-126886786D01*
X80239936Y-126912012D01*
X80241311Y-126913988D01*
X80280228Y-126945508D01*
X80337286Y-126970470D01*
X80408869Y-126988340D01*
X80491358Y-126998586D01*
X80581139Y-127000673D01*
X80674592Y-126994068D01*
X80729556Y-126985956D01*
X80815766Y-126961554D01*
X80895892Y-126921662D01*
X80962977Y-126869887D01*
X80973173Y-126859539D01*
X81006302Y-126816035D01*
X81036194Y-126762118D01*
X81059357Y-126705592D01*
X81072298Y-126654259D01*
X81073858Y-126634544D01*
X81067218Y-126593419D01*
X81049568Y-126542252D01*
X81024297Y-126488394D01*
X80994789Y-126439195D01*
X80968719Y-126406334D01*
X80907765Y-126357452D01*
X80828969Y-126318545D01*
X80735157Y-126290494D01*
X80629150Y-126274179D01*
X80532000Y-126270192D01*
X80450081Y-126274599D01*
X80450081Y-126274599D01*
G37*
X80450081Y-126274599D02*
X80381565Y-126286095D01*
X80328943Y-126303967D01*
X80294708Y-126327499D01*
X80285379Y-126340924D01*
X80275893Y-126372148D01*
X80282277Y-126400395D01*
X80302430Y-126427182D01*
X80333745Y-126439713D01*
X80379183Y-126438696D01*
X80414326Y-126431906D01*
X80492419Y-126418971D01*
X80572226Y-126417742D01*
X80661555Y-126428241D01*
X80686229Y-126432690D01*
X80769291Y-126456108D01*
X80834273Y-126490945D01*
X80880461Y-126536604D01*
X80907145Y-126592494D01*
X80912663Y-126621388D01*
X80909051Y-126680012D01*
X80885729Y-126731879D01*
X80844824Y-126775978D01*
X80788459Y-126811299D01*
X80718760Y-126836829D01*
X80637852Y-126851559D01*
X80547860Y-126854478D01*
X80450910Y-126844575D01*
X80445436Y-126843641D01*
X80406875Y-126836459D01*
X80385494Y-126829521D01*
X80376227Y-126819227D01*
X80374006Y-126801976D01*
X80373956Y-126792841D01*
X80373956Y-126754489D01*
X80442431Y-126754489D01*
X80502900Y-126750347D01*
X80544165Y-126737147D01*
X80568175Y-126713730D01*
X80576877Y-126678936D01*
X80576983Y-126674394D01*
X80571892Y-126644654D01*
X80554433Y-126623419D01*
X80521939Y-126609366D01*
X80471743Y-126601173D01*
X80423123Y-126598161D01*
X80352456Y-126596433D01*
X80301198Y-126599070D01*
X80266239Y-126608800D01*
X80244470Y-126628353D01*
X80232780Y-126660456D01*
X80228060Y-126707838D01*
X80227200Y-126770071D01*
X80228609Y-126839535D01*
X80232848Y-126886786D01*
X80239936Y-126912012D01*
X80241311Y-126913988D01*
X80280228Y-126945508D01*
X80337286Y-126970470D01*
X80408869Y-126988340D01*
X80491358Y-126998586D01*
X80581139Y-127000673D01*
X80674592Y-126994068D01*
X80729556Y-126985956D01*
X80815766Y-126961554D01*
X80895892Y-126921662D01*
X80962977Y-126869887D01*
X80973173Y-126859539D01*
X81006302Y-126816035D01*
X81036194Y-126762118D01*
X81059357Y-126705592D01*
X81072298Y-126654259D01*
X81073858Y-126634544D01*
X81067218Y-126593419D01*
X81049568Y-126542252D01*
X81024297Y-126488394D01*
X80994789Y-126439195D01*
X80968719Y-126406334D01*
X80907765Y-126357452D01*
X80828969Y-126318545D01*
X80735157Y-126290494D01*
X80629150Y-126274179D01*
X80532000Y-126270192D01*
X80450081Y-126274599D01*
G36*
X79800114Y-126273448D02*
X79776548Y-126287273D01*
X79745735Y-126309881D01*
X79706078Y-126342338D01*
X79655980Y-126385708D01*
X79593843Y-126441058D01*
X79518072Y-126509451D01*
X79431334Y-126588084D01*
X79250711Y-126751878D01*
X79245067Y-126532029D01*
X79243029Y-126456351D01*
X79241063Y-126399994D01*
X79238734Y-126359706D01*
X79235606Y-126332235D01*
X79231245Y-126314329D01*
X79225216Y-126302737D01*
X79217084Y-126294208D01*
X79212772Y-126290623D01*
X79178241Y-126271670D01*
X79145383Y-126274441D01*
X79119318Y-126290633D01*
X79092667Y-126312199D01*
X79089352Y-126627151D01*
X79088435Y-126719779D01*
X79087968Y-126792544D01*
X79088113Y-126848161D01*
X79089032Y-126889342D01*
X79090887Y-126918803D01*
X79093839Y-126939255D01*
X79098050Y-126953413D01*
X79103682Y-126963991D01*
X79109927Y-126972474D01*
X79123439Y-126988207D01*
X79136883Y-126998636D01*
X79152124Y-127002639D01*
X79171026Y-126999094D01*
X79195455Y-126986879D01*
X79227273Y-126964871D01*
X79268348Y-126931949D01*
X79320542Y-126886991D01*
X79385722Y-126828875D01*
X79459556Y-126762099D01*
X79724845Y-126521458D01*
X79730489Y-126740589D01*
X79732531Y-126816128D01*
X79734502Y-126872354D01*
X79736839Y-126912524D01*
X79739981Y-126939896D01*
X79744364Y-126957728D01*
X79750424Y-126969279D01*
X79758600Y-126977807D01*
X79762784Y-126981282D01*
X79799765Y-127000372D01*
X79834708Y-126997493D01*
X79865136Y-126973100D01*
X79872097Y-126963286D01*
X79877523Y-126951826D01*
X79881603Y-126935968D01*
X79884529Y-126912963D01*
X79886492Y-126880062D01*
X79887683Y-126834516D01*
X79888292Y-126773573D01*
X79888511Y-126694486D01*
X79888534Y-126635956D01*
X79888460Y-126544407D01*
X79888113Y-126472687D01*
X79887301Y-126418045D01*
X79885833Y-126377732D01*
X79883519Y-126348998D01*
X79880167Y-126329093D01*
X79875588Y-126315268D01*
X79869589Y-126304772D01*
X79865136Y-126298811D01*
X79853850Y-126284691D01*
X79843301Y-126274029D01*
X79831893Y-126267892D01*
X79818030Y-126267343D01*
X79800114Y-126273448D01*
X79800114Y-126273448D01*
G37*
X79800114Y-126273448D02*
X79776548Y-126287273D01*
X79745735Y-126309881D01*
X79706078Y-126342338D01*
X79655980Y-126385708D01*
X79593843Y-126441058D01*
X79518072Y-126509451D01*
X79431334Y-126588084D01*
X79250711Y-126751878D01*
X79245067Y-126532029D01*
X79243029Y-126456351D01*
X79241063Y-126399994D01*
X79238734Y-126359706D01*
X79235606Y-126332235D01*
X79231245Y-126314329D01*
X79225216Y-126302737D01*
X79217084Y-126294208D01*
X79212772Y-126290623D01*
X79178241Y-126271670D01*
X79145383Y-126274441D01*
X79119318Y-126290633D01*
X79092667Y-126312199D01*
X79089352Y-126627151D01*
X79088435Y-126719779D01*
X79087968Y-126792544D01*
X79088113Y-126848161D01*
X79089032Y-126889342D01*
X79090887Y-126918803D01*
X79093839Y-126939255D01*
X79098050Y-126953413D01*
X79103682Y-126963991D01*
X79109927Y-126972474D01*
X79123439Y-126988207D01*
X79136883Y-126998636D01*
X79152124Y-127002639D01*
X79171026Y-126999094D01*
X79195455Y-126986879D01*
X79227273Y-126964871D01*
X79268348Y-126931949D01*
X79320542Y-126886991D01*
X79385722Y-126828875D01*
X79459556Y-126762099D01*
X79724845Y-126521458D01*
X79730489Y-126740589D01*
X79732531Y-126816128D01*
X79734502Y-126872354D01*
X79736839Y-126912524D01*
X79739981Y-126939896D01*
X79744364Y-126957728D01*
X79750424Y-126969279D01*
X79758600Y-126977807D01*
X79762784Y-126981282D01*
X79799765Y-127000372D01*
X79834708Y-126997493D01*
X79865136Y-126973100D01*
X79872097Y-126963286D01*
X79877523Y-126951826D01*
X79881603Y-126935968D01*
X79884529Y-126912963D01*
X79886492Y-126880062D01*
X79887683Y-126834516D01*
X79888292Y-126773573D01*
X79888511Y-126694486D01*
X79888534Y-126635956D01*
X79888460Y-126544407D01*
X79888113Y-126472687D01*
X79887301Y-126418045D01*
X79885833Y-126377732D01*
X79883519Y-126348998D01*
X79880167Y-126329093D01*
X79875588Y-126315268D01*
X79869589Y-126304772D01*
X79865136Y-126298811D01*
X79853850Y-126284691D01*
X79843301Y-126274029D01*
X79831893Y-126267892D01*
X79818030Y-126267343D01*
X79800114Y-126273448D01*
G36*
X78269657Y-126269260D02*
X78193299Y-126270174D01*
X78134783Y-126272311D01*
X78091745Y-126276175D01*
X78061817Y-126282267D01*
X78042632Y-126291090D01*
X78031824Y-126303146D01*
X78027027Y-126318939D01*
X78025873Y-126338970D01*
X78025867Y-126341335D01*
X78026869Y-126363992D01*
X78031604Y-126381503D01*
X78042667Y-126394574D01*
X78062652Y-126403913D01*
X78094154Y-126410227D01*
X78139768Y-126414222D01*
X78202087Y-126416606D01*
X78283707Y-126418086D01*
X78308723Y-126418414D01*
X78550800Y-126421467D01*
X78554186Y-126486378D01*
X78557571Y-126551289D01*
X78389424Y-126551289D01*
X78323734Y-126551531D01*
X78276828Y-126552556D01*
X78244917Y-126554811D01*
X78224209Y-126558742D01*
X78210916Y-126564798D01*
X78201245Y-126573424D01*
X78201183Y-126573493D01*
X78183644Y-126607112D01*
X78184278Y-126643448D01*
X78202686Y-126674423D01*
X78206329Y-126677607D01*
X78219259Y-126685812D01*
X78236976Y-126691521D01*
X78263430Y-126695162D01*
X78302568Y-126697167D01*
X78358338Y-126697964D01*
X78394006Y-126698045D01*
X78556445Y-126698045D01*
X78556445Y-126856089D01*
X78309839Y-126856089D01*
X78228420Y-126856231D01*
X78166590Y-126856814D01*
X78121363Y-126858068D01*
X78089752Y-126860227D01*
X78068769Y-126863523D01*
X78055427Y-126868189D01*
X78046739Y-126874457D01*
X78044550Y-126876733D01*
X78028386Y-126908280D01*
X78027203Y-126944168D01*
X78040464Y-126975285D01*
X78050957Y-126985271D01*
X78061871Y-126990769D01*
X78078783Y-126995022D01*
X78104367Y-126998180D01*
X78141299Y-127000392D01*
X78192254Y-127001806D01*
X78259906Y-127002572D01*
X78346931Y-127002838D01*
X78366606Y-127002845D01*
X78455089Y-127002787D01*
X78523773Y-127002467D01*
X78575436Y-127001667D01*
X78612855Y-127000167D01*
X78638810Y-126997749D01*
X78656078Y-126994194D01*
X78667438Y-126989282D01*
X78675668Y-126982795D01*
X78680183Y-126978138D01*
X78686979Y-126969889D01*
X78692288Y-126959669D01*
X78696294Y-126944800D01*
X78699179Y-126922602D01*
X78701126Y-126890393D01*
X78702319Y-126845496D01*
X78702939Y-126785228D01*
X78703171Y-126706911D01*
X78703200Y-126640994D01*
X78703129Y-126548628D01*
X78702792Y-126476117D01*
X78702002Y-126420737D01*
X78700574Y-126379765D01*
X78698321Y-126350478D01*
X78695057Y-126330153D01*
X78690596Y-126316066D01*
X78684752Y-126305495D01*
X78679803Y-126298811D01*
X78656406Y-126269067D01*
X78366226Y-126269067D01*
X78269657Y-126269260D01*
X78269657Y-126269260D01*
G37*
X78269657Y-126269260D02*
X78193299Y-126270174D01*
X78134783Y-126272311D01*
X78091745Y-126276175D01*
X78061817Y-126282267D01*
X78042632Y-126291090D01*
X78031824Y-126303146D01*
X78027027Y-126318939D01*
X78025873Y-126338970D01*
X78025867Y-126341335D01*
X78026869Y-126363992D01*
X78031604Y-126381503D01*
X78042667Y-126394574D01*
X78062652Y-126403913D01*
X78094154Y-126410227D01*
X78139768Y-126414222D01*
X78202087Y-126416606D01*
X78283707Y-126418086D01*
X78308723Y-126418414D01*
X78550800Y-126421467D01*
X78554186Y-126486378D01*
X78557571Y-126551289D01*
X78389424Y-126551289D01*
X78323734Y-126551531D01*
X78276828Y-126552556D01*
X78244917Y-126554811D01*
X78224209Y-126558742D01*
X78210916Y-126564798D01*
X78201245Y-126573424D01*
X78201183Y-126573493D01*
X78183644Y-126607112D01*
X78184278Y-126643448D01*
X78202686Y-126674423D01*
X78206329Y-126677607D01*
X78219259Y-126685812D01*
X78236976Y-126691521D01*
X78263430Y-126695162D01*
X78302568Y-126697167D01*
X78358338Y-126697964D01*
X78394006Y-126698045D01*
X78556445Y-126698045D01*
X78556445Y-126856089D01*
X78309839Y-126856089D01*
X78228420Y-126856231D01*
X78166590Y-126856814D01*
X78121363Y-126858068D01*
X78089752Y-126860227D01*
X78068769Y-126863523D01*
X78055427Y-126868189D01*
X78046739Y-126874457D01*
X78044550Y-126876733D01*
X78028386Y-126908280D01*
X78027203Y-126944168D01*
X78040464Y-126975285D01*
X78050957Y-126985271D01*
X78061871Y-126990769D01*
X78078783Y-126995022D01*
X78104367Y-126998180D01*
X78141299Y-127000392D01*
X78192254Y-127001806D01*
X78259906Y-127002572D01*
X78346931Y-127002838D01*
X78366606Y-127002845D01*
X78455089Y-127002787D01*
X78523773Y-127002467D01*
X78575436Y-127001667D01*
X78612855Y-127000167D01*
X78638810Y-126997749D01*
X78656078Y-126994194D01*
X78667438Y-126989282D01*
X78675668Y-126982795D01*
X78680183Y-126978138D01*
X78686979Y-126969889D01*
X78692288Y-126959669D01*
X78696294Y-126944800D01*
X78699179Y-126922602D01*
X78701126Y-126890393D01*
X78702319Y-126845496D01*
X78702939Y-126785228D01*
X78703171Y-126706911D01*
X78703200Y-126640994D01*
X78703129Y-126548628D01*
X78702792Y-126476117D01*
X78702002Y-126420737D01*
X78700574Y-126379765D01*
X78698321Y-126350478D01*
X78695057Y-126330153D01*
X78690596Y-126316066D01*
X78684752Y-126305495D01*
X78679803Y-126298811D01*
X78656406Y-126269067D01*
X78366226Y-126269067D01*
X78269657Y-126269260D01*
G36*
X77481691Y-126269275D02*
X77352712Y-126273636D01*
X77243009Y-126286861D01*
X77150774Y-126309741D01*
X77074198Y-126343070D01*
X77011473Y-126387638D01*
X76960788Y-126444236D01*
X76920337Y-126513658D01*
X76919541Y-126515351D01*
X76895399Y-126577483D01*
X76886797Y-126632509D01*
X76893769Y-126687887D01*
X76916346Y-126751073D01*
X76920628Y-126760689D01*
X76949828Y-126816966D01*
X76982644Y-126860451D01*
X77024998Y-126897417D01*
X77082810Y-126934135D01*
X77086169Y-126936052D01*
X77136496Y-126960227D01*
X77193379Y-126978282D01*
X77260473Y-126990839D01*
X77341435Y-126998522D01*
X77439918Y-127001953D01*
X77474714Y-127002251D01*
X77640406Y-127002845D01*
X77663803Y-126973100D01*
X77670743Y-126963319D01*
X77676158Y-126951897D01*
X77680235Y-126936095D01*
X77683163Y-126913175D01*
X77685133Y-126880396D01*
X77685775Y-126856089D01*
X77529156Y-126856089D01*
X77435274Y-126856089D01*
X77380336Y-126854483D01*
X77323940Y-126850255D01*
X77277655Y-126844292D01*
X77274861Y-126843790D01*
X77192652Y-126821736D01*
X77128886Y-126788600D01*
X77081548Y-126742847D01*
X77048618Y-126682939D01*
X77042892Y-126667061D01*
X77037279Y-126642333D01*
X77039709Y-126617902D01*
X77051533Y-126585400D01*
X77058660Y-126569434D01*
X77082000Y-126527006D01*
X77110120Y-126497240D01*
X77141060Y-126476511D01*
X77203034Y-126449537D01*
X77282349Y-126429998D01*
X77374747Y-126418746D01*
X77441667Y-126416270D01*
X77529156Y-126415822D01*
X77529156Y-126856089D01*
X77685775Y-126856089D01*
X77686332Y-126835021D01*
X77686950Y-126774311D01*
X77687175Y-126695526D01*
X77687200Y-126633920D01*
X77687200Y-126324485D01*
X77659491Y-126296776D01*
X77647194Y-126285544D01*
X77633897Y-126277853D01*
X77615328Y-126273040D01*
X77587214Y-126270446D01*
X77545283Y-126269410D01*
X77485263Y-126269270D01*
X77481691Y-126269275D01*
X77481691Y-126269275D01*
G37*
X77481691Y-126269275D02*
X77352712Y-126273636D01*
X77243009Y-126286861D01*
X77150774Y-126309741D01*
X77074198Y-126343070D01*
X77011473Y-126387638D01*
X76960788Y-126444236D01*
X76920337Y-126513658D01*
X76919541Y-126515351D01*
X76895399Y-126577483D01*
X76886797Y-126632509D01*
X76893769Y-126687887D01*
X76916346Y-126751073D01*
X76920628Y-126760689D01*
X76949828Y-126816966D01*
X76982644Y-126860451D01*
X77024998Y-126897417D01*
X77082810Y-126934135D01*
X77086169Y-126936052D01*
X77136496Y-126960227D01*
X77193379Y-126978282D01*
X77260473Y-126990839D01*
X77341435Y-126998522D01*
X77439918Y-127001953D01*
X77474714Y-127002251D01*
X77640406Y-127002845D01*
X77663803Y-126973100D01*
X77670743Y-126963319D01*
X77676158Y-126951897D01*
X77680235Y-126936095D01*
X77683163Y-126913175D01*
X77685133Y-126880396D01*
X77685775Y-126856089D01*
X77529156Y-126856089D01*
X77435274Y-126856089D01*
X77380336Y-126854483D01*
X77323940Y-126850255D01*
X77277655Y-126844292D01*
X77274861Y-126843790D01*
X77192652Y-126821736D01*
X77128886Y-126788600D01*
X77081548Y-126742847D01*
X77048618Y-126682939D01*
X77042892Y-126667061D01*
X77037279Y-126642333D01*
X77039709Y-126617902D01*
X77051533Y-126585400D01*
X77058660Y-126569434D01*
X77082000Y-126527006D01*
X77110120Y-126497240D01*
X77141060Y-126476511D01*
X77203034Y-126449537D01*
X77282349Y-126429998D01*
X77374747Y-126418746D01*
X77441667Y-126416270D01*
X77529156Y-126415822D01*
X77529156Y-126856089D01*
X77685775Y-126856089D01*
X77686332Y-126835021D01*
X77686950Y-126774311D01*
X77687175Y-126695526D01*
X77687200Y-126633920D01*
X77687200Y-126324485D01*
X77659491Y-126296776D01*
X77647194Y-126285544D01*
X77633897Y-126277853D01*
X77615328Y-126273040D01*
X77587214Y-126270446D01*
X77545283Y-126269410D01*
X77485263Y-126269270D01*
X77481691Y-126269275D01*
G36*
X74755335Y-126271034D02*
X74735745Y-126278035D01*
X74734990Y-126278377D01*
X74708387Y-126298678D01*
X74693730Y-126319561D01*
X74690862Y-126329352D01*
X74691004Y-126342361D01*
X74695039Y-126360895D01*
X74703854Y-126387257D01*
X74718331Y-126423752D01*
X74739355Y-126472687D01*
X74767812Y-126536365D01*
X74804585Y-126617093D01*
X74824825Y-126661216D01*
X74861375Y-126739985D01*
X74895685Y-126812423D01*
X74926448Y-126875880D01*
X74952352Y-126927708D01*
X74972090Y-126965259D01*
X74984350Y-126985884D01*
X74986776Y-126988733D01*
X75017817Y-127001302D01*
X75052879Y-126999619D01*
X75081000Y-126984332D01*
X75082146Y-126983089D01*
X75093332Y-126966154D01*
X75112096Y-126933170D01*
X75136125Y-126888380D01*
X75163103Y-126836032D01*
X75172799Y-126816742D01*
X75245986Y-126670150D01*
X75325760Y-126829393D01*
X75354233Y-126884415D01*
X75380650Y-126932132D01*
X75402852Y-126968893D01*
X75418681Y-126991044D01*
X75424046Y-126995741D01*
X75465743Y-127002102D01*
X75500151Y-126988733D01*
X75510272Y-126974446D01*
X75527786Y-126942692D01*
X75551265Y-126896597D01*
X75579280Y-126839285D01*
X75610401Y-126773880D01*
X75643201Y-126703507D01*
X75676250Y-126631291D01*
X75708119Y-126560355D01*
X75737381Y-126493825D01*
X75762605Y-126434826D01*
X75782364Y-126386481D01*
X75795228Y-126351915D01*
X75799769Y-126334253D01*
X75799723Y-126333613D01*
X75788674Y-126311388D01*
X75766590Y-126288753D01*
X75765290Y-126287768D01*
X75738147Y-126272425D01*
X75713042Y-126272574D01*
X75703632Y-126275466D01*
X75692166Y-126281718D01*
X75679990Y-126294014D01*
X75665643Y-126314908D01*
X75647664Y-126346949D01*
X75624593Y-126392688D01*
X75594970Y-126454677D01*
X75568255Y-126511898D01*
X75537520Y-126578226D01*
X75509979Y-126637874D01*
X75487062Y-126687725D01*
X75470202Y-126724664D01*
X75460827Y-126745573D01*
X75459460Y-126748845D01*
X75453311Y-126743497D01*
X75439178Y-126721109D01*
X75418943Y-126684946D01*
X75394485Y-126638277D01*
X75384752Y-126619022D01*
X75351783Y-126554004D01*
X75326357Y-126506654D01*
X75306388Y-126474219D01*
X75289790Y-126453946D01*
X75274476Y-126443082D01*
X75258360Y-126438875D01*
X75247857Y-126438400D01*
X75229330Y-126440042D01*
X75213096Y-126446831D01*
X75196965Y-126461566D01*
X75178749Y-126487044D01*
X75156261Y-126526061D01*
X75127311Y-126581414D01*
X75111338Y-126612903D01*
X75085430Y-126663087D01*
X75062833Y-126704704D01*
X75045542Y-126734242D01*
X75035550Y-126748189D01*
X75034191Y-126748770D01*
X75027739Y-126737793D01*
X75013292Y-126709290D01*
X74992297Y-126666244D01*
X74966203Y-126611638D01*
X74936454Y-126548454D01*
X74921820Y-126517071D01*
X74883750Y-126436078D01*
X74853095Y-126373756D01*
X74828263Y-126328071D01*
X74807663Y-126296989D01*
X74789702Y-126278478D01*
X74772790Y-126270504D01*
X74755335Y-126271034D01*
X74755335Y-126271034D01*
G37*
X74755335Y-126271034D02*
X74735745Y-126278035D01*
X74734990Y-126278377D01*
X74708387Y-126298678D01*
X74693730Y-126319561D01*
X74690862Y-126329352D01*
X74691004Y-126342361D01*
X74695039Y-126360895D01*
X74703854Y-126387257D01*
X74718331Y-126423752D01*
X74739355Y-126472687D01*
X74767812Y-126536365D01*
X74804585Y-126617093D01*
X74824825Y-126661216D01*
X74861375Y-126739985D01*
X74895685Y-126812423D01*
X74926448Y-126875880D01*
X74952352Y-126927708D01*
X74972090Y-126965259D01*
X74984350Y-126985884D01*
X74986776Y-126988733D01*
X75017817Y-127001302D01*
X75052879Y-126999619D01*
X75081000Y-126984332D01*
X75082146Y-126983089D01*
X75093332Y-126966154D01*
X75112096Y-126933170D01*
X75136125Y-126888380D01*
X75163103Y-126836032D01*
X75172799Y-126816742D01*
X75245986Y-126670150D01*
X75325760Y-126829393D01*
X75354233Y-126884415D01*
X75380650Y-126932132D01*
X75402852Y-126968893D01*
X75418681Y-126991044D01*
X75424046Y-126995741D01*
X75465743Y-127002102D01*
X75500151Y-126988733D01*
X75510272Y-126974446D01*
X75527786Y-126942692D01*
X75551265Y-126896597D01*
X75579280Y-126839285D01*
X75610401Y-126773880D01*
X75643201Y-126703507D01*
X75676250Y-126631291D01*
X75708119Y-126560355D01*
X75737381Y-126493825D01*
X75762605Y-126434826D01*
X75782364Y-126386481D01*
X75795228Y-126351915D01*
X75799769Y-126334253D01*
X75799723Y-126333613D01*
X75788674Y-126311388D01*
X75766590Y-126288753D01*
X75765290Y-126287768D01*
X75738147Y-126272425D01*
X75713042Y-126272574D01*
X75703632Y-126275466D01*
X75692166Y-126281718D01*
X75679990Y-126294014D01*
X75665643Y-126314908D01*
X75647664Y-126346949D01*
X75624593Y-126392688D01*
X75594970Y-126454677D01*
X75568255Y-126511898D01*
X75537520Y-126578226D01*
X75509979Y-126637874D01*
X75487062Y-126687725D01*
X75470202Y-126724664D01*
X75460827Y-126745573D01*
X75459460Y-126748845D01*
X75453311Y-126743497D01*
X75439178Y-126721109D01*
X75418943Y-126684946D01*
X75394485Y-126638277D01*
X75384752Y-126619022D01*
X75351783Y-126554004D01*
X75326357Y-126506654D01*
X75306388Y-126474219D01*
X75289790Y-126453946D01*
X75274476Y-126443082D01*
X75258360Y-126438875D01*
X75247857Y-126438400D01*
X75229330Y-126440042D01*
X75213096Y-126446831D01*
X75196965Y-126461566D01*
X75178749Y-126487044D01*
X75156261Y-126526061D01*
X75127311Y-126581414D01*
X75111338Y-126612903D01*
X75085430Y-126663087D01*
X75062833Y-126704704D01*
X75045542Y-126734242D01*
X75035550Y-126748189D01*
X75034191Y-126748770D01*
X75027739Y-126737793D01*
X75013292Y-126709290D01*
X74992297Y-126666244D01*
X74966203Y-126611638D01*
X74936454Y-126548454D01*
X74921820Y-126517071D01*
X74883750Y-126436078D01*
X74853095Y-126373756D01*
X74828263Y-126328071D01*
X74807663Y-126296989D01*
X74789702Y-126278478D01*
X74772790Y-126270504D01*
X74755335Y-126271034D01*
G36*
X74311386Y-126275877D02*
X74287673Y-126290647D01*
X74261022Y-126312227D01*
X74261022Y-126633773D01*
X74261107Y-126727830D01*
X74261471Y-126801932D01*
X74262276Y-126858704D01*
X74263687Y-126900768D01*
X74265867Y-126930748D01*
X74268979Y-126951267D01*
X74273186Y-126964949D01*
X74278652Y-126974416D01*
X74282528Y-126979082D01*
X74313966Y-126999575D01*
X74349767Y-126998739D01*
X74381127Y-126981264D01*
X74407778Y-126959684D01*
X74407778Y-126312227D01*
X74381127Y-126290647D01*
X74355406Y-126274949D01*
X74334400Y-126269067D01*
X74311386Y-126275877D01*
X74311386Y-126275877D01*
G37*
X74311386Y-126275877D02*
X74287673Y-126290647D01*
X74261022Y-126312227D01*
X74261022Y-126633773D01*
X74261107Y-126727830D01*
X74261471Y-126801932D01*
X74262276Y-126858704D01*
X74263687Y-126900768D01*
X74265867Y-126930748D01*
X74268979Y-126951267D01*
X74273186Y-126964949D01*
X74278652Y-126974416D01*
X74282528Y-126979082D01*
X74313966Y-126999575D01*
X74349767Y-126998739D01*
X74381127Y-126981264D01*
X74407778Y-126959684D01*
X74407778Y-126312227D01*
X74381127Y-126290647D01*
X74355406Y-126274949D01*
X74334400Y-126269067D01*
X74311386Y-126275877D01*
G36*
X73536935Y-126269163D02*
X73458228Y-126269542D01*
X73397137Y-126270333D01*
X73351183Y-126271670D01*
X73317886Y-126273683D01*
X73294764Y-126276506D01*
X73279338Y-126280269D01*
X73269129Y-126285105D01*
X73264187Y-126288822D01*
X73238543Y-126321358D01*
X73235441Y-126355138D01*
X73251289Y-126385826D01*
X73261652Y-126398089D01*
X73272804Y-126406450D01*
X73288965Y-126411657D01*
X73314358Y-126414457D01*
X73353202Y-126415596D01*
X73409720Y-126415821D01*
X73420820Y-126415822D01*
X73566756Y-126415822D01*
X73566756Y-126686756D01*
X73566852Y-126772154D01*
X73567289Y-126837864D01*
X73568288Y-126886774D01*
X73570072Y-126921773D01*
X73572863Y-126945749D01*
X73576883Y-126961593D01*
X73582355Y-126972191D01*
X73589334Y-126980267D01*
X73622266Y-127000112D01*
X73656646Y-126998548D01*
X73687824Y-126975906D01*
X73690114Y-126973100D01*
X73697571Y-126962492D01*
X73703253Y-126950081D01*
X73707399Y-126932850D01*
X73710250Y-126907784D01*
X73712046Y-126871867D01*
X73713028Y-126822083D01*
X73713436Y-126755417D01*
X73713511Y-126679589D01*
X73713511Y-126415822D01*
X73852873Y-126415822D01*
X73912678Y-126415418D01*
X73954082Y-126413840D01*
X73981252Y-126410547D01*
X73998354Y-126404992D01*
X74009557Y-126396631D01*
X74010917Y-126395178D01*
X74027275Y-126361939D01*
X74025828Y-126324362D01*
X74007022Y-126291645D01*
X73999750Y-126285298D01*
X73990373Y-126280266D01*
X73976391Y-126276396D01*
X73955304Y-126273537D01*
X73924611Y-126271535D01*
X73881811Y-126270239D01*
X73824405Y-126269498D01*
X73749890Y-126269158D01*
X73655767Y-126269068D01*
X73635740Y-126269067D01*
X73536935Y-126269163D01*
X73536935Y-126269163D01*
G37*
X73536935Y-126269163D02*
X73458228Y-126269542D01*
X73397137Y-126270333D01*
X73351183Y-126271670D01*
X73317886Y-126273683D01*
X73294764Y-126276506D01*
X73279338Y-126280269D01*
X73269129Y-126285105D01*
X73264187Y-126288822D01*
X73238543Y-126321358D01*
X73235441Y-126355138D01*
X73251289Y-126385826D01*
X73261652Y-126398089D01*
X73272804Y-126406450D01*
X73288965Y-126411657D01*
X73314358Y-126414457D01*
X73353202Y-126415596D01*
X73409720Y-126415821D01*
X73420820Y-126415822D01*
X73566756Y-126415822D01*
X73566756Y-126686756D01*
X73566852Y-126772154D01*
X73567289Y-126837864D01*
X73568288Y-126886774D01*
X73570072Y-126921773D01*
X73572863Y-126945749D01*
X73576883Y-126961593D01*
X73582355Y-126972191D01*
X73589334Y-126980267D01*
X73622266Y-127000112D01*
X73656646Y-126998548D01*
X73687824Y-126975906D01*
X73690114Y-126973100D01*
X73697571Y-126962492D01*
X73703253Y-126950081D01*
X73707399Y-126932850D01*
X73710250Y-126907784D01*
X73712046Y-126871867D01*
X73713028Y-126822083D01*
X73713436Y-126755417D01*
X73713511Y-126679589D01*
X73713511Y-126415822D01*
X73852873Y-126415822D01*
X73912678Y-126415418D01*
X73954082Y-126413840D01*
X73981252Y-126410547D01*
X73998354Y-126404992D01*
X74009557Y-126396631D01*
X74010917Y-126395178D01*
X74027275Y-126361939D01*
X74025828Y-126324362D01*
X74007022Y-126291645D01*
X73999750Y-126285298D01*
X73990373Y-126280266D01*
X73976391Y-126276396D01*
X73955304Y-126273537D01*
X73924611Y-126271535D01*
X73881811Y-126270239D01*
X73824405Y-126269498D01*
X73749890Y-126269158D01*
X73655767Y-126269068D01*
X73635740Y-126269067D01*
X73536935Y-126269163D01*
G36*
X72271177Y-126274533D02*
X72239798Y-126296776D01*
X72212089Y-126324485D01*
X72212089Y-126633920D01*
X72212162Y-126725799D01*
X72212505Y-126797840D01*
X72213308Y-126852780D01*
X72214759Y-126893360D01*
X72217048Y-126922317D01*
X72220364Y-126942391D01*
X72224895Y-126956321D01*
X72230831Y-126966845D01*
X72235486Y-126973100D01*
X72266217Y-126997673D01*
X72301504Y-127000341D01*
X72333755Y-126985271D01*
X72344412Y-126976374D01*
X72351536Y-126964557D01*
X72355833Y-126945526D01*
X72358009Y-126914992D01*
X72358772Y-126868662D01*
X72358845Y-126832871D01*
X72358845Y-126698045D01*
X72855556Y-126698045D01*
X72855556Y-126820700D01*
X72856069Y-126876787D01*
X72858124Y-126915333D01*
X72862492Y-126941361D01*
X72869944Y-126959897D01*
X72878953Y-126973100D01*
X72909856Y-126997604D01*
X72944804Y-127000506D01*
X72978262Y-126983089D01*
X72987396Y-126973959D01*
X72993848Y-126961855D01*
X72998103Y-126943001D01*
X73000648Y-126913620D01*
X73001971Y-126869937D01*
X73002557Y-126808175D01*
X73002625Y-126794000D01*
X73003109Y-126677631D01*
X73003359Y-126581727D01*
X73003277Y-126504177D01*
X73002769Y-126442869D01*
X73001738Y-126395690D01*
X73000087Y-126360530D01*
X72997721Y-126335276D01*
X72994543Y-126317817D01*
X72990456Y-126306041D01*
X72985366Y-126297835D01*
X72979734Y-126291645D01*
X72947872Y-126271844D01*
X72914643Y-126274533D01*
X72883265Y-126296776D01*
X72870567Y-126311126D01*
X72862474Y-126326978D01*
X72857958Y-126349554D01*
X72855994Y-126384078D01*
X72855556Y-126435776D01*
X72855556Y-126551289D01*
X72358845Y-126551289D01*
X72358845Y-126432756D01*
X72358338Y-126378148D01*
X72356302Y-126341275D01*
X72351965Y-126317307D01*
X72344553Y-126301415D01*
X72336267Y-126291645D01*
X72304406Y-126271844D01*
X72271177Y-126274533D01*
X72271177Y-126274533D01*
G37*
X72271177Y-126274533D02*
X72239798Y-126296776D01*
X72212089Y-126324485D01*
X72212089Y-126633920D01*
X72212162Y-126725799D01*
X72212505Y-126797840D01*
X72213308Y-126852780D01*
X72214759Y-126893360D01*
X72217048Y-126922317D01*
X72220364Y-126942391D01*
X72224895Y-126956321D01*
X72230831Y-126966845D01*
X72235486Y-126973100D01*
X72266217Y-126997673D01*
X72301504Y-127000341D01*
X72333755Y-126985271D01*
X72344412Y-126976374D01*
X72351536Y-126964557D01*
X72355833Y-126945526D01*
X72358009Y-126914992D01*
X72358772Y-126868662D01*
X72358845Y-126832871D01*
X72358845Y-126698045D01*
X72855556Y-126698045D01*
X72855556Y-126820700D01*
X72856069Y-126876787D01*
X72858124Y-126915333D01*
X72862492Y-126941361D01*
X72869944Y-126959897D01*
X72878953Y-126973100D01*
X72909856Y-126997604D01*
X72944804Y-127000506D01*
X72978262Y-126983089D01*
X72987396Y-126973959D01*
X72993848Y-126961855D01*
X72998103Y-126943001D01*
X73000648Y-126913620D01*
X73001971Y-126869937D01*
X73002557Y-126808175D01*
X73002625Y-126794000D01*
X73003109Y-126677631D01*
X73003359Y-126581727D01*
X73003277Y-126504177D01*
X73002769Y-126442869D01*
X73001738Y-126395690D01*
X73000087Y-126360530D01*
X72997721Y-126335276D01*
X72994543Y-126317817D01*
X72990456Y-126306041D01*
X72985366Y-126297835D01*
X72979734Y-126291645D01*
X72947872Y-126271844D01*
X72914643Y-126274533D01*
X72883265Y-126296776D01*
X72870567Y-126311126D01*
X72862474Y-126326978D01*
X72857958Y-126349554D01*
X72855994Y-126384078D01*
X72855556Y-126435776D01*
X72855556Y-126551289D01*
X72358845Y-126551289D01*
X72358845Y-126432756D01*
X72358338Y-126378148D01*
X72356302Y-126341275D01*
X72351965Y-126317307D01*
X72344553Y-126301415D01*
X72336267Y-126291645D01*
X72304406Y-126271844D01*
X72271177Y-126274533D01*
G36*
X81446400Y-121489054D02*
X81435535Y-121602993D01*
X81403918Y-121710616D01*
X81353015Y-121809615D01*
X81284293Y-121897684D01*
X81199219Y-121972516D01*
X81102232Y-122030384D01*
X80995964Y-122070005D01*
X80888950Y-122088573D01*
X80783300Y-122087434D01*
X80681125Y-122067930D01*
X80584534Y-122031406D01*
X80495638Y-121979205D01*
X80416546Y-121912673D01*
X80349369Y-121833152D01*
X80296217Y-121741987D01*
X80259199Y-121640523D01*
X80240427Y-121530102D01*
X80238489Y-121480206D01*
X80238489Y-121392267D01*
X80186560Y-121392267D01*
X80150253Y-121395111D01*
X80123355Y-121406911D01*
X80096249Y-121430649D01*
X80057867Y-121469031D01*
X80057867Y-123660602D01*
X80057876Y-123922739D01*
X80057908Y-124163241D01*
X80057972Y-124383048D01*
X80058076Y-124583101D01*
X80058227Y-124764344D01*
X80058434Y-124927716D01*
X80058706Y-125074160D01*
X80059050Y-125204617D01*
X80059474Y-125320029D01*
X80059987Y-125421338D01*
X80060597Y-125509484D01*
X80061312Y-125585410D01*
X80062140Y-125650057D01*
X80063089Y-125704367D01*
X80064167Y-125749280D01*
X80065383Y-125785740D01*
X80066745Y-125814687D01*
X80068261Y-125837063D01*
X80069938Y-125853809D01*
X80071786Y-125865868D01*
X80073813Y-125874180D01*
X80076025Y-125879687D01*
X80077108Y-125881537D01*
X80081271Y-125888549D01*
X80084805Y-125894996D01*
X80088635Y-125900900D01*
X80093682Y-125906286D01*
X80100871Y-125911178D01*
X80111123Y-125915598D01*
X80125364Y-125919572D01*
X80144514Y-125923121D01*
X80169499Y-125926270D01*
X80201240Y-125929042D01*
X80240662Y-125931461D01*
X80288686Y-125933551D01*
X80346237Y-125935335D01*
X80414237Y-125936837D01*
X80493610Y-125938080D01*
X80585279Y-125939089D01*
X80690166Y-125939885D01*
X80809196Y-125940494D01*
X80943290Y-125940939D01*
X81093373Y-125941243D01*
X81260367Y-125941430D01*
X81445196Y-125941524D01*
X81648783Y-125941548D01*
X81872050Y-125941525D01*
X82115922Y-125941480D01*
X82381321Y-125941437D01*
X82419704Y-125941432D01*
X82686682Y-125941389D01*
X82932002Y-125941318D01*
X83156583Y-125941213D01*
X83361345Y-125941066D01*
X83547206Y-125940869D01*
X83715088Y-125940616D01*
X83865908Y-125940300D01*
X84000587Y-125939913D01*
X84120044Y-125939447D01*
X84225199Y-125938897D01*
X84316971Y-125938253D01*
X84396279Y-125937511D01*
X84464043Y-125936661D01*
X84521182Y-125935697D01*
X84568617Y-125934611D01*
X84607266Y-125933397D01*
X84638049Y-125932047D01*
X84661885Y-125930555D01*
X84679694Y-125928911D01*
X84692395Y-125927111D01*
X84700908Y-125925145D01*
X84705266Y-125923477D01*
X84713728Y-125919906D01*
X84721497Y-125917270D01*
X84728602Y-125914634D01*
X84735073Y-125911062D01*
X84740939Y-125905621D01*
X84746229Y-125897375D01*
X84750974Y-125885390D01*
X84755202Y-125868731D01*
X84758943Y-125846463D01*
X84762227Y-125817652D01*
X84765083Y-125781363D01*
X84767540Y-125736661D01*
X84769629Y-125682611D01*
X84771378Y-125618279D01*
X84772817Y-125542730D01*
X84773976Y-125455030D01*
X84774883Y-125354243D01*
X84775569Y-125239434D01*
X84776063Y-125109670D01*
X84776395Y-124964015D01*
X84776593Y-124801535D01*
X84776687Y-124621295D01*
X84776708Y-124422360D01*
X84776685Y-124203796D01*
X84776646Y-123964668D01*
X84776622Y-123704040D01*
X84776622Y-123661889D01*
X84776636Y-123398992D01*
X84776661Y-123157732D01*
X84776671Y-122937165D01*
X84776642Y-122736352D01*
X84776548Y-122554349D01*
X84776362Y-122390216D01*
X84776059Y-122243011D01*
X84775614Y-122111792D01*
X84775034Y-122001867D01*
X84472197Y-122001867D01*
X84432407Y-122059711D01*
X84421236Y-122075479D01*
X84411166Y-122089441D01*
X84402138Y-122102784D01*
X84394097Y-122116693D01*
X84386986Y-122132356D01*
X84380747Y-122150958D01*
X84375325Y-122173686D01*
X84370662Y-122201727D01*
X84366701Y-122236267D01*
X84363385Y-122278492D01*
X84360659Y-122329589D01*
X84358464Y-122390744D01*
X84356745Y-122463144D01*
X84355444Y-122547975D01*
X84354505Y-122646422D01*
X84353870Y-122759674D01*
X84353484Y-122888916D01*
X84353288Y-123035334D01*
X84353227Y-123200116D01*
X84353243Y-123384447D01*
X84353280Y-123589513D01*
X84353289Y-123712133D01*
X84353265Y-123929082D01*
X84353231Y-124124642D01*
X84353243Y-124299999D01*
X84353358Y-124456341D01*
X84353630Y-124594857D01*
X84354118Y-124716734D01*
X84354876Y-124823160D01*
X84355962Y-124915322D01*
X84357431Y-124994409D01*
X84359340Y-125061608D01*
X84361744Y-125118107D01*
X84364701Y-125165093D01*
X84368266Y-125203755D01*
X84372495Y-125235280D01*
X84377446Y-125260855D01*
X84383173Y-125281670D01*
X84389733Y-125298911D01*
X84397183Y-125313765D01*
X84405579Y-125327422D01*
X84414976Y-125341069D01*
X84425432Y-125355893D01*
X84431523Y-125364783D01*
X84470296Y-125422400D01*
X83938732Y-125422400D01*
X83815483Y-125422365D01*
X83712987Y-125422215D01*
X83629420Y-125421878D01*
X83562956Y-125421286D01*
X83511771Y-125420367D01*
X83474041Y-125419051D01*
X83447940Y-125417269D01*
X83431644Y-125414951D01*
X83423328Y-125412026D01*
X83421168Y-125408424D01*
X83423339Y-125404075D01*
X83424535Y-125402645D01*
X83449685Y-125365573D01*
X83475583Y-125312772D01*
X83499192Y-125250770D01*
X83507461Y-125224357D01*
X83512078Y-125206416D01*
X83515979Y-125185355D01*
X83519248Y-125159089D01*
X83521966Y-125125532D01*
X83524215Y-125082599D01*
X83526077Y-125028204D01*
X83527636Y-124960262D01*
X83528972Y-124876688D01*
X83530169Y-124775395D01*
X83531308Y-124654300D01*
X83531685Y-124609600D01*
X83532702Y-124484449D01*
X83533460Y-124380082D01*
X83533903Y-124294707D01*
X83533970Y-124226533D01*
X83533605Y-124173765D01*
X83532748Y-124134614D01*
X83531341Y-124107285D01*
X83529325Y-124089986D01*
X83526643Y-124080926D01*
X83523236Y-124078312D01*
X83519044Y-124080351D01*
X83514571Y-124084667D01*
X83504216Y-124097602D01*
X83482158Y-124126676D01*
X83449957Y-124169759D01*
X83409174Y-124224718D01*
X83361370Y-124289423D01*
X83308105Y-124361742D01*
X83250940Y-124439544D01*
X83191437Y-124520698D01*
X83131155Y-124603072D01*
X83071655Y-124684536D01*
X83014498Y-124762957D01*
X82961245Y-124836204D01*
X82913457Y-124902147D01*
X82872693Y-124958654D01*
X82840516Y-125003593D01*
X82818485Y-125034834D01*
X82813917Y-125041466D01*
X82790996Y-125078369D01*
X82764188Y-125126359D01*
X82738789Y-125175897D01*
X82735568Y-125182577D01*
X82713890Y-125230772D01*
X82701304Y-125268334D01*
X82695574Y-125304160D01*
X82694456Y-125346200D01*
X82695090Y-125422400D01*
X81540651Y-125422400D01*
X81631815Y-125328669D01*
X81678612Y-125278775D01*
X81728899Y-125222295D01*
X81774944Y-125168026D01*
X81795369Y-125142673D01*
X81825807Y-125103128D01*
X81865862Y-125049916D01*
X81914361Y-124984667D01*
X81970135Y-124909011D01*
X82032011Y-124824577D01*
X82098819Y-124732994D01*
X82169387Y-124635892D01*
X82242545Y-124534901D01*
X82317121Y-124431650D01*
X82391944Y-124327768D01*
X82465843Y-124224885D01*
X82537646Y-124124631D01*
X82606184Y-124028636D01*
X82670284Y-123938527D01*
X82728775Y-123855936D01*
X82780486Y-123782492D01*
X82824247Y-123719824D01*
X82858885Y-123669561D01*
X82883230Y-123633334D01*
X82896111Y-123612771D01*
X82897869Y-123608668D01*
X82889910Y-123597342D01*
X82869115Y-123570162D01*
X82836847Y-123528829D01*
X82794470Y-123475044D01*
X82743347Y-123410506D01*
X82684841Y-123336918D01*
X82620314Y-123255978D01*
X82551131Y-123169388D01*
X82478653Y-123078848D01*
X82404246Y-122986060D01*
X82344517Y-122911702D01*
X81333511Y-122911702D01*
X81327602Y-122924659D01*
X81313272Y-122946908D01*
X81312225Y-122948391D01*
X81293438Y-122978544D01*
X81273791Y-123015375D01*
X81269892Y-123023511D01*
X81266356Y-123031940D01*
X81263230Y-123042059D01*
X81260486Y-123055260D01*
X81258092Y-123072938D01*
X81256019Y-123096484D01*
X81254235Y-123127293D01*
X81252712Y-123166757D01*
X81251419Y-123216269D01*
X81250326Y-123277223D01*
X81249403Y-123351011D01*
X81248619Y-123439028D01*
X81247945Y-123542665D01*
X81247350Y-123663316D01*
X81246805Y-123802374D01*
X81246279Y-123961232D01*
X81245745Y-124140089D01*
X81245206Y-124325207D01*
X81244772Y-124489145D01*
X81244509Y-124633303D01*
X81244484Y-124759079D01*
X81244765Y-124867871D01*
X81245419Y-124961077D01*
X81246514Y-125040097D01*
X81248118Y-125106328D01*
X81250297Y-125161170D01*
X81253119Y-125206021D01*
X81256651Y-125242278D01*
X81260961Y-125271341D01*
X81266117Y-125294609D01*
X81272185Y-125313479D01*
X81279233Y-125329351D01*
X81287329Y-125343622D01*
X81296540Y-125357691D01*
X81305040Y-125370158D01*
X81322176Y-125396452D01*
X81332322Y-125414037D01*
X81333511Y-125417257D01*
X81322604Y-125418334D01*
X81291411Y-125419335D01*
X81242223Y-125420235D01*
X81177333Y-125421010D01*
X81099030Y-125421637D01*
X81009607Y-125422091D01*
X80911356Y-125422349D01*
X80842445Y-125422400D01*
X80737452Y-125422180D01*
X80640610Y-125421548D01*
X80554107Y-125420549D01*
X80480132Y-125419227D01*
X80420874Y-125417626D01*
X80378520Y-125415791D01*
X80355260Y-125413765D01*
X80351378Y-125412493D01*
X80359076Y-125397591D01*
X80367074Y-125389560D01*
X80380246Y-125372434D01*
X80397485Y-125342183D01*
X80409407Y-125317622D01*
X80436045Y-125258711D01*
X80439120Y-124081845D01*
X80442195Y-122904978D01*
X80887853Y-122904978D01*
X80985670Y-122905142D01*
X81076064Y-122905611D01*
X81156630Y-122906347D01*
X81224962Y-122907316D01*
X81278656Y-122908480D01*
X81315305Y-122909803D01*
X81332504Y-122911249D01*
X81333511Y-122911702D01*
X82344517Y-122911702D01*
X82329270Y-122892722D01*
X82255090Y-122800537D01*
X82183069Y-122711204D01*
X82114569Y-122626424D01*
X82050955Y-122547898D01*
X81993588Y-122477326D01*
X81943833Y-122416409D01*
X81903052Y-122366847D01*
X81885888Y-122346178D01*
X81799596Y-122245516D01*
X81722997Y-122162259D01*
X81654183Y-122094438D01*
X81591248Y-122040089D01*
X81581867Y-122032722D01*
X81542356Y-122002117D01*
X82674116Y-122001867D01*
X82668827Y-122049844D01*
X82672130Y-122107188D01*
X82693661Y-122175463D01*
X82733635Y-122255212D01*
X82778943Y-122327495D01*
X82795161Y-122350140D01*
X82823214Y-122387696D01*
X82861430Y-122438021D01*
X82908137Y-122498973D01*
X82961661Y-122568411D01*
X83020331Y-122644194D01*
X83082475Y-122724180D01*
X83146421Y-122806228D01*
X83210495Y-122888196D01*
X83273027Y-122967943D01*
X83332343Y-123043327D01*
X83386771Y-123112207D01*
X83434639Y-123172442D01*
X83474275Y-123221889D01*
X83504006Y-123258408D01*
X83522161Y-123279858D01*
X83525220Y-123283156D01*
X83528079Y-123275149D01*
X83530293Y-123244855D01*
X83531857Y-123192556D01*
X83532767Y-123118531D01*
X83533020Y-123023063D01*
X83532613Y-122906434D01*
X83531704Y-122786445D01*
X83530382Y-122654333D01*
X83528857Y-122542594D01*
X83526881Y-122449025D01*
X83524206Y-122371419D01*
X83520582Y-122307574D01*
X83515761Y-122255283D01*
X83509494Y-122212344D01*
X83501532Y-122176551D01*
X83491627Y-122145700D01*
X83479531Y-122117586D01*
X83464993Y-122090005D01*
X83450311Y-122064966D01*
X83412314Y-122001867D01*
X84472197Y-122001867D01*
X84775034Y-122001867D01*
X84775001Y-121995617D01*
X84774195Y-121893544D01*
X84773170Y-121804633D01*
X84771900Y-121727941D01*
X84770360Y-121662527D01*
X84768524Y-121607449D01*
X84766367Y-121561765D01*
X84763863Y-121524534D01*
X84760987Y-121494813D01*
X84757713Y-121471662D01*
X84754015Y-121454139D01*
X84749869Y-121441301D01*
X84745247Y-121432208D01*
X84740126Y-121425918D01*
X84734478Y-121421488D01*
X84728279Y-121417978D01*
X84721504Y-121414445D01*
X84715508Y-121410876D01*
X84710275Y-121408300D01*
X84702099Y-121405972D01*
X84689886Y-121403878D01*
X84672541Y-121402007D01*
X84648969Y-121400347D01*
X84618077Y-121398884D01*
X84578768Y-121397608D01*
X84529950Y-121396504D01*
X84470527Y-121395561D01*
X84399404Y-121394767D01*
X84315488Y-121394109D01*
X84217683Y-121393575D01*
X84104894Y-121393153D01*
X83976029Y-121392829D01*
X83829991Y-121392592D01*
X83665686Y-121392430D01*
X83482020Y-121392330D01*
X83277897Y-121392280D01*
X83066753Y-121392267D01*
X81446400Y-121392267D01*
X81446400Y-121489054D01*
X81446400Y-121489054D01*
G37*
X81446400Y-121489054D02*
X81435535Y-121602993D01*
X81403918Y-121710616D01*
X81353015Y-121809615D01*
X81284293Y-121897684D01*
X81199219Y-121972516D01*
X81102232Y-122030384D01*
X80995964Y-122070005D01*
X80888950Y-122088573D01*
X80783300Y-122087434D01*
X80681125Y-122067930D01*
X80584534Y-122031406D01*
X80495638Y-121979205D01*
X80416546Y-121912673D01*
X80349369Y-121833152D01*
X80296217Y-121741987D01*
X80259199Y-121640523D01*
X80240427Y-121530102D01*
X80238489Y-121480206D01*
X80238489Y-121392267D01*
X80186560Y-121392267D01*
X80150253Y-121395111D01*
X80123355Y-121406911D01*
X80096249Y-121430649D01*
X80057867Y-121469031D01*
X80057867Y-123660602D01*
X80057876Y-123922739D01*
X80057908Y-124163241D01*
X80057972Y-124383048D01*
X80058076Y-124583101D01*
X80058227Y-124764344D01*
X80058434Y-124927716D01*
X80058706Y-125074160D01*
X80059050Y-125204617D01*
X80059474Y-125320029D01*
X80059987Y-125421338D01*
X80060597Y-125509484D01*
X80061312Y-125585410D01*
X80062140Y-125650057D01*
X80063089Y-125704367D01*
X80064167Y-125749280D01*
X80065383Y-125785740D01*
X80066745Y-125814687D01*
X80068261Y-125837063D01*
X80069938Y-125853809D01*
X80071786Y-125865868D01*
X80073813Y-125874180D01*
X80076025Y-125879687D01*
X80077108Y-125881537D01*
X80081271Y-125888549D01*
X80084805Y-125894996D01*
X80088635Y-125900900D01*
X80093682Y-125906286D01*
X80100871Y-125911178D01*
X80111123Y-125915598D01*
X80125364Y-125919572D01*
X80144514Y-125923121D01*
X80169499Y-125926270D01*
X80201240Y-125929042D01*
X80240662Y-125931461D01*
X80288686Y-125933551D01*
X80346237Y-125935335D01*
X80414237Y-125936837D01*
X80493610Y-125938080D01*
X80585279Y-125939089D01*
X80690166Y-125939885D01*
X80809196Y-125940494D01*
X80943290Y-125940939D01*
X81093373Y-125941243D01*
X81260367Y-125941430D01*
X81445196Y-125941524D01*
X81648783Y-125941548D01*
X81872050Y-125941525D01*
X82115922Y-125941480D01*
X82381321Y-125941437D01*
X82419704Y-125941432D01*
X82686682Y-125941389D01*
X82932002Y-125941318D01*
X83156583Y-125941213D01*
X83361345Y-125941066D01*
X83547206Y-125940869D01*
X83715088Y-125940616D01*
X83865908Y-125940300D01*
X84000587Y-125939913D01*
X84120044Y-125939447D01*
X84225199Y-125938897D01*
X84316971Y-125938253D01*
X84396279Y-125937511D01*
X84464043Y-125936661D01*
X84521182Y-125935697D01*
X84568617Y-125934611D01*
X84607266Y-125933397D01*
X84638049Y-125932047D01*
X84661885Y-125930555D01*
X84679694Y-125928911D01*
X84692395Y-125927111D01*
X84700908Y-125925145D01*
X84705266Y-125923477D01*
X84713728Y-125919906D01*
X84721497Y-125917270D01*
X84728602Y-125914634D01*
X84735073Y-125911062D01*
X84740939Y-125905621D01*
X84746229Y-125897375D01*
X84750974Y-125885390D01*
X84755202Y-125868731D01*
X84758943Y-125846463D01*
X84762227Y-125817652D01*
X84765083Y-125781363D01*
X84767540Y-125736661D01*
X84769629Y-125682611D01*
X84771378Y-125618279D01*
X84772817Y-125542730D01*
X84773976Y-125455030D01*
X84774883Y-125354243D01*
X84775569Y-125239434D01*
X84776063Y-125109670D01*
X84776395Y-124964015D01*
X84776593Y-124801535D01*
X84776687Y-124621295D01*
X84776708Y-124422360D01*
X84776685Y-124203796D01*
X84776646Y-123964668D01*
X84776622Y-123704040D01*
X84776622Y-123661889D01*
X84776636Y-123398992D01*
X84776661Y-123157732D01*
X84776671Y-122937165D01*
X84776642Y-122736352D01*
X84776548Y-122554349D01*
X84776362Y-122390216D01*
X84776059Y-122243011D01*
X84775614Y-122111792D01*
X84775034Y-122001867D01*
X84472197Y-122001867D01*
X84432407Y-122059711D01*
X84421236Y-122075479D01*
X84411166Y-122089441D01*
X84402138Y-122102784D01*
X84394097Y-122116693D01*
X84386986Y-122132356D01*
X84380747Y-122150958D01*
X84375325Y-122173686D01*
X84370662Y-122201727D01*
X84366701Y-122236267D01*
X84363385Y-122278492D01*
X84360659Y-122329589D01*
X84358464Y-122390744D01*
X84356745Y-122463144D01*
X84355444Y-122547975D01*
X84354505Y-122646422D01*
X84353870Y-122759674D01*
X84353484Y-122888916D01*
X84353288Y-123035334D01*
X84353227Y-123200116D01*
X84353243Y-123384447D01*
X84353280Y-123589513D01*
X84353289Y-123712133D01*
X84353265Y-123929082D01*
X84353231Y-124124642D01*
X84353243Y-124299999D01*
X84353358Y-124456341D01*
X84353630Y-124594857D01*
X84354118Y-124716734D01*
X84354876Y-124823160D01*
X84355962Y-124915322D01*
X84357431Y-124994409D01*
X84359340Y-125061608D01*
X84361744Y-125118107D01*
X84364701Y-125165093D01*
X84368266Y-125203755D01*
X84372495Y-125235280D01*
X84377446Y-125260855D01*
X84383173Y-125281670D01*
X84389733Y-125298911D01*
X84397183Y-125313765D01*
X84405579Y-125327422D01*
X84414976Y-125341069D01*
X84425432Y-125355893D01*
X84431523Y-125364783D01*
X84470296Y-125422400D01*
X83938732Y-125422400D01*
X83815483Y-125422365D01*
X83712987Y-125422215D01*
X83629420Y-125421878D01*
X83562956Y-125421286D01*
X83511771Y-125420367D01*
X83474041Y-125419051D01*
X83447940Y-125417269D01*
X83431644Y-125414951D01*
X83423328Y-125412026D01*
X83421168Y-125408424D01*
X83423339Y-125404075D01*
X83424535Y-125402645D01*
X83449685Y-125365573D01*
X83475583Y-125312772D01*
X83499192Y-125250770D01*
X83507461Y-125224357D01*
X83512078Y-125206416D01*
X83515979Y-125185355D01*
X83519248Y-125159089D01*
X83521966Y-125125532D01*
X83524215Y-125082599D01*
X83526077Y-125028204D01*
X83527636Y-124960262D01*
X83528972Y-124876688D01*
X83530169Y-124775395D01*
X83531308Y-124654300D01*
X83531685Y-124609600D01*
X83532702Y-124484449D01*
X83533460Y-124380082D01*
X83533903Y-124294707D01*
X83533970Y-124226533D01*
X83533605Y-124173765D01*
X83532748Y-124134614D01*
X83531341Y-124107285D01*
X83529325Y-124089986D01*
X83526643Y-124080926D01*
X83523236Y-124078312D01*
X83519044Y-124080351D01*
X83514571Y-124084667D01*
X83504216Y-124097602D01*
X83482158Y-124126676D01*
X83449957Y-124169759D01*
X83409174Y-124224718D01*
X83361370Y-124289423D01*
X83308105Y-124361742D01*
X83250940Y-124439544D01*
X83191437Y-124520698D01*
X83131155Y-124603072D01*
X83071655Y-124684536D01*
X83014498Y-124762957D01*
X82961245Y-124836204D01*
X82913457Y-124902147D01*
X82872693Y-124958654D01*
X82840516Y-125003593D01*
X82818485Y-125034834D01*
X82813917Y-125041466D01*
X82790996Y-125078369D01*
X82764188Y-125126359D01*
X82738789Y-125175897D01*
X82735568Y-125182577D01*
X82713890Y-125230772D01*
X82701304Y-125268334D01*
X82695574Y-125304160D01*
X82694456Y-125346200D01*
X82695090Y-125422400D01*
X81540651Y-125422400D01*
X81631815Y-125328669D01*
X81678612Y-125278775D01*
X81728899Y-125222295D01*
X81774944Y-125168026D01*
X81795369Y-125142673D01*
X81825807Y-125103128D01*
X81865862Y-125049916D01*
X81914361Y-124984667D01*
X81970135Y-124909011D01*
X82032011Y-124824577D01*
X82098819Y-124732994D01*
X82169387Y-124635892D01*
X82242545Y-124534901D01*
X82317121Y-124431650D01*
X82391944Y-124327768D01*
X82465843Y-124224885D01*
X82537646Y-124124631D01*
X82606184Y-124028636D01*
X82670284Y-123938527D01*
X82728775Y-123855936D01*
X82780486Y-123782492D01*
X82824247Y-123719824D01*
X82858885Y-123669561D01*
X82883230Y-123633334D01*
X82896111Y-123612771D01*
X82897869Y-123608668D01*
X82889910Y-123597342D01*
X82869115Y-123570162D01*
X82836847Y-123528829D01*
X82794470Y-123475044D01*
X82743347Y-123410506D01*
X82684841Y-123336918D01*
X82620314Y-123255978D01*
X82551131Y-123169388D01*
X82478653Y-123078848D01*
X82404246Y-122986060D01*
X82344517Y-122911702D01*
X81333511Y-122911702D01*
X81327602Y-122924659D01*
X81313272Y-122946908D01*
X81312225Y-122948391D01*
X81293438Y-122978544D01*
X81273791Y-123015375D01*
X81269892Y-123023511D01*
X81266356Y-123031940D01*
X81263230Y-123042059D01*
X81260486Y-123055260D01*
X81258092Y-123072938D01*
X81256019Y-123096484D01*
X81254235Y-123127293D01*
X81252712Y-123166757D01*
X81251419Y-123216269D01*
X81250326Y-123277223D01*
X81249403Y-123351011D01*
X81248619Y-123439028D01*
X81247945Y-123542665D01*
X81247350Y-123663316D01*
X81246805Y-123802374D01*
X81246279Y-123961232D01*
X81245745Y-124140089D01*
X81245206Y-124325207D01*
X81244772Y-124489145D01*
X81244509Y-124633303D01*
X81244484Y-124759079D01*
X81244765Y-124867871D01*
X81245419Y-124961077D01*
X81246514Y-125040097D01*
X81248118Y-125106328D01*
X81250297Y-125161170D01*
X81253119Y-125206021D01*
X81256651Y-125242278D01*
X81260961Y-125271341D01*
X81266117Y-125294609D01*
X81272185Y-125313479D01*
X81279233Y-125329351D01*
X81287329Y-125343622D01*
X81296540Y-125357691D01*
X81305040Y-125370158D01*
X81322176Y-125396452D01*
X81332322Y-125414037D01*
X81333511Y-125417257D01*
X81322604Y-125418334D01*
X81291411Y-125419335D01*
X81242223Y-125420235D01*
X81177333Y-125421010D01*
X81099030Y-125421637D01*
X81009607Y-125422091D01*
X80911356Y-125422349D01*
X80842445Y-125422400D01*
X80737452Y-125422180D01*
X80640610Y-125421548D01*
X80554107Y-125420549D01*
X80480132Y-125419227D01*
X80420874Y-125417626D01*
X80378520Y-125415791D01*
X80355260Y-125413765D01*
X80351378Y-125412493D01*
X80359076Y-125397591D01*
X80367074Y-125389560D01*
X80380246Y-125372434D01*
X80397485Y-125342183D01*
X80409407Y-125317622D01*
X80436045Y-125258711D01*
X80439120Y-124081845D01*
X80442195Y-122904978D01*
X80887853Y-122904978D01*
X80985670Y-122905142D01*
X81076064Y-122905611D01*
X81156630Y-122906347D01*
X81224962Y-122907316D01*
X81278656Y-122908480D01*
X81315305Y-122909803D01*
X81332504Y-122911249D01*
X81333511Y-122911702D01*
X82344517Y-122911702D01*
X82329270Y-122892722D01*
X82255090Y-122800537D01*
X82183069Y-122711204D01*
X82114569Y-122626424D01*
X82050955Y-122547898D01*
X81993588Y-122477326D01*
X81943833Y-122416409D01*
X81903052Y-122366847D01*
X81885888Y-122346178D01*
X81799596Y-122245516D01*
X81722997Y-122162259D01*
X81654183Y-122094438D01*
X81591248Y-122040089D01*
X81581867Y-122032722D01*
X81542356Y-122002117D01*
X82674116Y-122001867D01*
X82668827Y-122049844D01*
X82672130Y-122107188D01*
X82693661Y-122175463D01*
X82733635Y-122255212D01*
X82778943Y-122327495D01*
X82795161Y-122350140D01*
X82823214Y-122387696D01*
X82861430Y-122438021D01*
X82908137Y-122498973D01*
X82961661Y-122568411D01*
X83020331Y-122644194D01*
X83082475Y-122724180D01*
X83146421Y-122806228D01*
X83210495Y-122888196D01*
X83273027Y-122967943D01*
X83332343Y-123043327D01*
X83386771Y-123112207D01*
X83434639Y-123172442D01*
X83474275Y-123221889D01*
X83504006Y-123258408D01*
X83522161Y-123279858D01*
X83525220Y-123283156D01*
X83528079Y-123275149D01*
X83530293Y-123244855D01*
X83531857Y-123192556D01*
X83532767Y-123118531D01*
X83533020Y-123023063D01*
X83532613Y-122906434D01*
X83531704Y-122786445D01*
X83530382Y-122654333D01*
X83528857Y-122542594D01*
X83526881Y-122449025D01*
X83524206Y-122371419D01*
X83520582Y-122307574D01*
X83515761Y-122255283D01*
X83509494Y-122212344D01*
X83501532Y-122176551D01*
X83491627Y-122145700D01*
X83479531Y-122117586D01*
X83464993Y-122090005D01*
X83450311Y-122064966D01*
X83412314Y-122001867D01*
X84472197Y-122001867D01*
X84775034Y-122001867D01*
X84775001Y-121995617D01*
X84774195Y-121893544D01*
X84773170Y-121804633D01*
X84771900Y-121727941D01*
X84770360Y-121662527D01*
X84768524Y-121607449D01*
X84766367Y-121561765D01*
X84763863Y-121524534D01*
X84760987Y-121494813D01*
X84757713Y-121471662D01*
X84754015Y-121454139D01*
X84749869Y-121441301D01*
X84745247Y-121432208D01*
X84740126Y-121425918D01*
X84734478Y-121421488D01*
X84728279Y-121417978D01*
X84721504Y-121414445D01*
X84715508Y-121410876D01*
X84710275Y-121408300D01*
X84702099Y-121405972D01*
X84689886Y-121403878D01*
X84672541Y-121402007D01*
X84648969Y-121400347D01*
X84618077Y-121398884D01*
X84578768Y-121397608D01*
X84529950Y-121396504D01*
X84470527Y-121395561D01*
X84399404Y-121394767D01*
X84315488Y-121394109D01*
X84217683Y-121393575D01*
X84104894Y-121393153D01*
X83976029Y-121392829D01*
X83829991Y-121392592D01*
X83665686Y-121392430D01*
X83482020Y-121392330D01*
X83277897Y-121392280D01*
X83066753Y-121392267D01*
X81446400Y-121392267D01*
X81446400Y-121489054D01*
G36*
X78171571Y-121949071D02*
X78011430Y-121970245D01*
X77847490Y-122010385D01*
X77677687Y-122069889D01*
X77499957Y-122149154D01*
X77488690Y-122154699D01*
X77430995Y-122182725D01*
X77379448Y-122206802D01*
X77337809Y-122225249D01*
X77309838Y-122236386D01*
X77300267Y-122238933D01*
X77281050Y-122243941D01*
X77276439Y-122248147D01*
X77281542Y-122258580D01*
X77297582Y-122284868D01*
X77322712Y-122324257D01*
X77355086Y-122373991D01*
X77392857Y-122431315D01*
X77434178Y-122493476D01*
X77477202Y-122557718D01*
X77520083Y-122621285D01*
X77560974Y-122681425D01*
X77598029Y-122735380D01*
X77629400Y-122780397D01*
X77653241Y-122813721D01*
X77667706Y-122832597D01*
X77669691Y-122834787D01*
X77679809Y-122830138D01*
X77702150Y-122812962D01*
X77732720Y-122786440D01*
X77748464Y-122771964D01*
X77844953Y-122696682D01*
X77951664Y-122641241D01*
X78067168Y-122606141D01*
X78190038Y-122591880D01*
X78259439Y-122593051D01*
X78380577Y-122610212D01*
X78489795Y-122646094D01*
X78587418Y-122700959D01*
X78673772Y-122775070D01*
X78749185Y-122868688D01*
X78813982Y-122982076D01*
X78851399Y-123068667D01*
X78895252Y-123204366D01*
X78927572Y-123351850D01*
X78948443Y-123507314D01*
X78957949Y-123666956D01*
X78956173Y-123826973D01*
X78943197Y-123983561D01*
X78919106Y-124132918D01*
X78883982Y-124271240D01*
X78837908Y-124394724D01*
X78821627Y-124428978D01*
X78753380Y-124543064D01*
X78672921Y-124639557D01*
X78581430Y-124717670D01*
X78480089Y-124776617D01*
X78370080Y-124815612D01*
X78252585Y-124833868D01*
X78211117Y-124835211D01*
X78089559Y-124824290D01*
X77969122Y-124791474D01*
X77851334Y-124737439D01*
X77737723Y-124662865D01*
X77646315Y-124584539D01*
X77599785Y-124540008D01*
X77418517Y-124837271D01*
X77373420Y-124911433D01*
X77332181Y-124979646D01*
X77296265Y-125039459D01*
X77267134Y-125088420D01*
X77246250Y-125124079D01*
X77235076Y-125143984D01*
X77233625Y-125147079D01*
X77241854Y-125156718D01*
X77267433Y-125173999D01*
X77307127Y-125197283D01*
X77357703Y-125224934D01*
X77415926Y-125255315D01*
X77478563Y-125286790D01*
X77542379Y-125317722D01*
X77604140Y-125346473D01*
X77660612Y-125371408D01*
X77708562Y-125390889D01*
X77732014Y-125399318D01*
X77865779Y-125437133D01*
X78003673Y-125462136D01*
X78151378Y-125475140D01*
X78278167Y-125477468D01*
X78346122Y-125476373D01*
X78411723Y-125474275D01*
X78469153Y-125471434D01*
X78512597Y-125468106D01*
X78526702Y-125466422D01*
X78665716Y-125437587D01*
X78807243Y-125392468D01*
X78944725Y-125333750D01*
X79071606Y-125264120D01*
X79149111Y-125211441D01*
X79276519Y-125103239D01*
X79394822Y-124976671D01*
X79501828Y-124834866D01*
X79595348Y-124680951D01*
X79673190Y-124518053D01*
X79717044Y-124400756D01*
X79767292Y-124217128D01*
X79800791Y-124022581D01*
X79817551Y-123821325D01*
X79817584Y-123617568D01*
X79800899Y-123415521D01*
X79767507Y-123219392D01*
X79717420Y-123033391D01*
X79713603Y-123021803D01*
X79650719Y-122859750D01*
X79573972Y-122711832D01*
X79480758Y-122573865D01*
X79368473Y-122441661D01*
X79324608Y-122396399D01*
X79188466Y-122272457D01*
X79048509Y-122169915D01*
X78902589Y-122087656D01*
X78748558Y-122024564D01*
X78584268Y-121979523D01*
X78488711Y-121962033D01*
X78329977Y-121946466D01*
X78171571Y-121949071D01*
X78171571Y-121949071D01*
G37*
X78171571Y-121949071D02*
X78011430Y-121970245D01*
X77847490Y-122010385D01*
X77677687Y-122069889D01*
X77499957Y-122149154D01*
X77488690Y-122154699D01*
X77430995Y-122182725D01*
X77379448Y-122206802D01*
X77337809Y-122225249D01*
X77309838Y-122236386D01*
X77300267Y-122238933D01*
X77281050Y-122243941D01*
X77276439Y-122248147D01*
X77281542Y-122258580D01*
X77297582Y-122284868D01*
X77322712Y-122324257D01*
X77355086Y-122373991D01*
X77392857Y-122431315D01*
X77434178Y-122493476D01*
X77477202Y-122557718D01*
X77520083Y-122621285D01*
X77560974Y-122681425D01*
X77598029Y-122735380D01*
X77629400Y-122780397D01*
X77653241Y-122813721D01*
X77667706Y-122832597D01*
X77669691Y-122834787D01*
X77679809Y-122830138D01*
X77702150Y-122812962D01*
X77732720Y-122786440D01*
X77748464Y-122771964D01*
X77844953Y-122696682D01*
X77951664Y-122641241D01*
X78067168Y-122606141D01*
X78190038Y-122591880D01*
X78259439Y-122593051D01*
X78380577Y-122610212D01*
X78489795Y-122646094D01*
X78587418Y-122700959D01*
X78673772Y-122775070D01*
X78749185Y-122868688D01*
X78813982Y-122982076D01*
X78851399Y-123068667D01*
X78895252Y-123204366D01*
X78927572Y-123351850D01*
X78948443Y-123507314D01*
X78957949Y-123666956D01*
X78956173Y-123826973D01*
X78943197Y-123983561D01*
X78919106Y-124132918D01*
X78883982Y-124271240D01*
X78837908Y-124394724D01*
X78821627Y-124428978D01*
X78753380Y-124543064D01*
X78672921Y-124639557D01*
X78581430Y-124717670D01*
X78480089Y-124776617D01*
X78370080Y-124815612D01*
X78252585Y-124833868D01*
X78211117Y-124835211D01*
X78089559Y-124824290D01*
X77969122Y-124791474D01*
X77851334Y-124737439D01*
X77737723Y-124662865D01*
X77646315Y-124584539D01*
X77599785Y-124540008D01*
X77418517Y-124837271D01*
X77373420Y-124911433D01*
X77332181Y-124979646D01*
X77296265Y-125039459D01*
X77267134Y-125088420D01*
X77246250Y-125124079D01*
X77235076Y-125143984D01*
X77233625Y-125147079D01*
X77241854Y-125156718D01*
X77267433Y-125173999D01*
X77307127Y-125197283D01*
X77357703Y-125224934D01*
X77415926Y-125255315D01*
X77478563Y-125286790D01*
X77542379Y-125317722D01*
X77604140Y-125346473D01*
X77660612Y-125371408D01*
X77708562Y-125390889D01*
X77732014Y-125399318D01*
X77865779Y-125437133D01*
X78003673Y-125462136D01*
X78151378Y-125475140D01*
X78278167Y-125477468D01*
X78346122Y-125476373D01*
X78411723Y-125474275D01*
X78469153Y-125471434D01*
X78512597Y-125468106D01*
X78526702Y-125466422D01*
X78665716Y-125437587D01*
X78807243Y-125392468D01*
X78944725Y-125333750D01*
X79071606Y-125264120D01*
X79149111Y-125211441D01*
X79276519Y-125103239D01*
X79394822Y-124976671D01*
X79501828Y-124834866D01*
X79595348Y-124680951D01*
X79673190Y-124518053D01*
X79717044Y-124400756D01*
X79767292Y-124217128D01*
X79800791Y-124022581D01*
X79817551Y-123821325D01*
X79817584Y-123617568D01*
X79800899Y-123415521D01*
X79767507Y-123219392D01*
X79717420Y-123033391D01*
X79713603Y-123021803D01*
X79650719Y-122859750D01*
X79573972Y-122711832D01*
X79480758Y-122573865D01*
X79368473Y-122441661D01*
X79324608Y-122396399D01*
X79188466Y-122272457D01*
X79048509Y-122169915D01*
X78902589Y-122087656D01*
X78748558Y-122024564D01*
X78584268Y-121979523D01*
X78488711Y-121962033D01*
X78329977Y-121946466D01*
X78171571Y-121949071D01*
G36*
X75826426Y-122866552D02*
X75674508Y-122886567D01*
X75539244Y-122920202D01*
X75419761Y-122967725D01*
X75315185Y-123029405D01*
X75237576Y-123092965D01*
X75168735Y-123167099D01*
X75114994Y-123246871D01*
X75072090Y-123339091D01*
X75056616Y-123382161D01*
X75043756Y-123421142D01*
X75032554Y-123457289D01*
X75022880Y-123492434D01*
X75014604Y-123528410D01*
X75007597Y-123567050D01*
X75001728Y-123610185D01*
X74996869Y-123659649D01*
X74992890Y-123717273D01*
X74989660Y-123784891D01*
X74987051Y-123864334D01*
X74984933Y-123957436D01*
X74983176Y-124066027D01*
X74981651Y-124191942D01*
X74980228Y-124337012D01*
X74978975Y-124479778D01*
X74977649Y-124635968D01*
X74976444Y-124771239D01*
X74975234Y-124887246D01*
X74973894Y-124985645D01*
X74972300Y-125068093D01*
X74970325Y-125136246D01*
X74967844Y-125191760D01*
X74964731Y-125236292D01*
X74960862Y-125271498D01*
X74956111Y-125299034D01*
X74950352Y-125320556D01*
X74943461Y-125337722D01*
X74935311Y-125352186D01*
X74925777Y-125365606D01*
X74914734Y-125379638D01*
X74910434Y-125385071D01*
X74894614Y-125407910D01*
X74887578Y-125423463D01*
X74887556Y-125423922D01*
X74898433Y-125426121D01*
X74929418Y-125428147D01*
X74978043Y-125429942D01*
X75041837Y-125431451D01*
X75118331Y-125432616D01*
X75205056Y-125433380D01*
X75299543Y-125433686D01*
X75310450Y-125433689D01*
X75733343Y-125433689D01*
X75736605Y-125337622D01*
X75739867Y-125241556D01*
X75801956Y-125292543D01*
X75899286Y-125360057D01*
X76009187Y-125414749D01*
X76095651Y-125444978D01*
X76164722Y-125459666D01*
X76248075Y-125469659D01*
X76337841Y-125474646D01*
X76426155Y-125474313D01*
X76505149Y-125468351D01*
X76541378Y-125462638D01*
X76681397Y-125424776D01*
X76807822Y-125369932D01*
X76919740Y-125298924D01*
X77016238Y-125212568D01*
X77096400Y-125111679D01*
X77159313Y-124997076D01*
X77203688Y-124870984D01*
X77216022Y-124814401D01*
X77223632Y-124752202D01*
X77227261Y-124677363D01*
X77227755Y-124643467D01*
X77227690Y-124640282D01*
X76467752Y-124640282D01*
X76458459Y-124715333D01*
X76430272Y-124779160D01*
X76381803Y-124834798D01*
X76376746Y-124839211D01*
X76328452Y-124874037D01*
X76276743Y-124896620D01*
X76216011Y-124908540D01*
X76140648Y-124911383D01*
X76122541Y-124910978D01*
X76068722Y-124908325D01*
X76028692Y-124902909D01*
X75993676Y-124892745D01*
X75954897Y-124875850D01*
X75944255Y-124870672D01*
X75883604Y-124834844D01*
X75836785Y-124792212D01*
X75824048Y-124776973D01*
X75779378Y-124720462D01*
X75779378Y-124524586D01*
X75779914Y-124445939D01*
X75781604Y-124387988D01*
X75784572Y-124348875D01*
X75788943Y-124326741D01*
X75793028Y-124320274D01*
X75808953Y-124317111D01*
X75842736Y-124314488D01*
X75889660Y-124312655D01*
X75945007Y-124311857D01*
X75953894Y-124311842D01*
X76074670Y-124317096D01*
X76177340Y-124333263D01*
X76263894Y-124360961D01*
X76336319Y-124400808D01*
X76391249Y-124447758D01*
X76435796Y-124505645D01*
X76460520Y-124568693D01*
X76467752Y-124640282D01*
X77227690Y-124640282D01*
X77225822Y-124549712D01*
X77217478Y-124470812D01*
X77201232Y-124399590D01*
X77175595Y-124328864D01*
X77151599Y-124276493D01*
X77092980Y-124181196D01*
X77014883Y-124093170D01*
X76919685Y-124014017D01*
X76809762Y-123945340D01*
X76687490Y-123888741D01*
X76555245Y-123845821D01*
X76490578Y-123830882D01*
X76354396Y-123808777D01*
X76205951Y-123794194D01*
X76054495Y-123787813D01*
X75927936Y-123789445D01*
X75766050Y-123796224D01*
X75773470Y-123737245D01*
X75792762Y-123638092D01*
X75823896Y-123557372D01*
X75867731Y-123494466D01*
X75925129Y-123448756D01*
X75996952Y-123419622D01*
X76084059Y-123406447D01*
X76187314Y-123408611D01*
X76225289Y-123412612D01*
X76366480Y-123437780D01*
X76503293Y-123478814D01*
X76597822Y-123516815D01*
X76642982Y-123536190D01*
X76681415Y-123551760D01*
X76707766Y-123561405D01*
X76715454Y-123563452D01*
X76725198Y-123554374D01*
X76741917Y-123525405D01*
X76765768Y-123476217D01*
X76796907Y-123406484D01*
X76835493Y-123315879D01*
X76842090Y-123300089D01*
X76872147Y-123227772D01*
X76899126Y-123162425D01*
X76921864Y-123106906D01*
X76939194Y-123064072D01*
X76949952Y-123036781D01*
X76953059Y-123027942D01*
X76943060Y-123023187D01*
X76916783Y-123017910D01*
X76888511Y-123014231D01*
X76858354Y-123009474D01*
X76810567Y-123000028D01*
X76749388Y-122986820D01*
X76679054Y-122970776D01*
X76603806Y-122952820D01*
X76575245Y-122945797D01*
X76470184Y-122920209D01*
X76382520Y-122900147D01*
X76307932Y-122884969D01*
X76242097Y-122874035D01*
X76180693Y-122866704D01*
X76119398Y-122862335D01*
X76053890Y-122860287D01*
X75995872Y-122859889D01*
X75826426Y-122866552D01*
X75826426Y-122866552D01*
G37*
X75826426Y-122866552D02*
X75674508Y-122886567D01*
X75539244Y-122920202D01*
X75419761Y-122967725D01*
X75315185Y-123029405D01*
X75237576Y-123092965D01*
X75168735Y-123167099D01*
X75114994Y-123246871D01*
X75072090Y-123339091D01*
X75056616Y-123382161D01*
X75043756Y-123421142D01*
X75032554Y-123457289D01*
X75022880Y-123492434D01*
X75014604Y-123528410D01*
X75007597Y-123567050D01*
X75001728Y-123610185D01*
X74996869Y-123659649D01*
X74992890Y-123717273D01*
X74989660Y-123784891D01*
X74987051Y-123864334D01*
X74984933Y-123957436D01*
X74983176Y-124066027D01*
X74981651Y-124191942D01*
X74980228Y-124337012D01*
X74978975Y-124479778D01*
X74977649Y-124635968D01*
X74976444Y-124771239D01*
X74975234Y-124887246D01*
X74973894Y-124985645D01*
X74972300Y-125068093D01*
X74970325Y-125136246D01*
X74967844Y-125191760D01*
X74964731Y-125236292D01*
X74960862Y-125271498D01*
X74956111Y-125299034D01*
X74950352Y-125320556D01*
X74943461Y-125337722D01*
X74935311Y-125352186D01*
X74925777Y-125365606D01*
X74914734Y-125379638D01*
X74910434Y-125385071D01*
X74894614Y-125407910D01*
X74887578Y-125423463D01*
X74887556Y-125423922D01*
X74898433Y-125426121D01*
X74929418Y-125428147D01*
X74978043Y-125429942D01*
X75041837Y-125431451D01*
X75118331Y-125432616D01*
X75205056Y-125433380D01*
X75299543Y-125433686D01*
X75310450Y-125433689D01*
X75733343Y-125433689D01*
X75736605Y-125337622D01*
X75739867Y-125241556D01*
X75801956Y-125292543D01*
X75899286Y-125360057D01*
X76009187Y-125414749D01*
X76095651Y-125444978D01*
X76164722Y-125459666D01*
X76248075Y-125469659D01*
X76337841Y-125474646D01*
X76426155Y-125474313D01*
X76505149Y-125468351D01*
X76541378Y-125462638D01*
X76681397Y-125424776D01*
X76807822Y-125369932D01*
X76919740Y-125298924D01*
X77016238Y-125212568D01*
X77096400Y-125111679D01*
X77159313Y-124997076D01*
X77203688Y-124870984D01*
X77216022Y-124814401D01*
X77223632Y-124752202D01*
X77227261Y-124677363D01*
X77227755Y-124643467D01*
X77227690Y-124640282D01*
X76467752Y-124640282D01*
X76458459Y-124715333D01*
X76430272Y-124779160D01*
X76381803Y-124834798D01*
X76376746Y-124839211D01*
X76328452Y-124874037D01*
X76276743Y-124896620D01*
X76216011Y-124908540D01*
X76140648Y-124911383D01*
X76122541Y-124910978D01*
X76068722Y-124908325D01*
X76028692Y-124902909D01*
X75993676Y-124892745D01*
X75954897Y-124875850D01*
X75944255Y-124870672D01*
X75883604Y-124834844D01*
X75836785Y-124792212D01*
X75824048Y-124776973D01*
X75779378Y-124720462D01*
X75779378Y-124524586D01*
X75779914Y-124445939D01*
X75781604Y-124387988D01*
X75784572Y-124348875D01*
X75788943Y-124326741D01*
X75793028Y-124320274D01*
X75808953Y-124317111D01*
X75842736Y-124314488D01*
X75889660Y-124312655D01*
X75945007Y-124311857D01*
X75953894Y-124311842D01*
X76074670Y-124317096D01*
X76177340Y-124333263D01*
X76263894Y-124360961D01*
X76336319Y-124400808D01*
X76391249Y-124447758D01*
X76435796Y-124505645D01*
X76460520Y-124568693D01*
X76467752Y-124640282D01*
X77227690Y-124640282D01*
X77225822Y-124549712D01*
X77217478Y-124470812D01*
X77201232Y-124399590D01*
X77175595Y-124328864D01*
X77151599Y-124276493D01*
X77092980Y-124181196D01*
X77014883Y-124093170D01*
X76919685Y-124014017D01*
X76809762Y-123945340D01*
X76687490Y-123888741D01*
X76555245Y-123845821D01*
X76490578Y-123830882D01*
X76354396Y-123808777D01*
X76205951Y-123794194D01*
X76054495Y-123787813D01*
X75927936Y-123789445D01*
X75766050Y-123796224D01*
X75773470Y-123737245D01*
X75792762Y-123638092D01*
X75823896Y-123557372D01*
X75867731Y-123494466D01*
X75925129Y-123448756D01*
X75996952Y-123419622D01*
X76084059Y-123406447D01*
X76187314Y-123408611D01*
X76225289Y-123412612D01*
X76366480Y-123437780D01*
X76503293Y-123478814D01*
X76597822Y-123516815D01*
X76642982Y-123536190D01*
X76681415Y-123551760D01*
X76707766Y-123561405D01*
X76715454Y-123563452D01*
X76725198Y-123554374D01*
X76741917Y-123525405D01*
X76765768Y-123476217D01*
X76796907Y-123406484D01*
X76835493Y-123315879D01*
X76842090Y-123300089D01*
X76872147Y-123227772D01*
X76899126Y-123162425D01*
X76921864Y-123106906D01*
X76939194Y-123064072D01*
X76949952Y-123036781D01*
X76953059Y-123027942D01*
X76943060Y-123023187D01*
X76916783Y-123017910D01*
X76888511Y-123014231D01*
X76858354Y-123009474D01*
X76810567Y-123000028D01*
X76749388Y-122986820D01*
X76679054Y-122970776D01*
X76603806Y-122952820D01*
X76575245Y-122945797D01*
X76470184Y-122920209D01*
X76382520Y-122900147D01*
X76307932Y-122884969D01*
X76242097Y-122874035D01*
X76180693Y-122866704D01*
X76119398Y-122862335D01*
X76053890Y-122860287D01*
X75995872Y-122859889D01*
X75826426Y-122866552D01*
G36*
X72313493Y-123472245D02*
X72313474Y-123706662D01*
X72313448Y-123919603D01*
X72313375Y-124112168D01*
X72313218Y-124285459D01*
X72312936Y-124440576D01*
X72312491Y-124578620D01*
X72311844Y-124700692D01*
X72310955Y-124807894D01*
X72309787Y-124901326D01*
X72308299Y-124982090D01*
X72306454Y-125051286D01*
X72304211Y-125110015D01*
X72301531Y-125159379D01*
X72298377Y-125200478D01*
X72294708Y-125234413D01*
X72290487Y-125262286D01*
X72285673Y-125285198D01*
X72280227Y-125304249D01*
X72274112Y-125320540D01*
X72267288Y-125335173D01*
X72259715Y-125349249D01*
X72251355Y-125363868D01*
X72246161Y-125372974D01*
X72211896Y-125433689D01*
X73070045Y-125433689D01*
X73070045Y-125337733D01*
X73070776Y-125294370D01*
X73072728Y-125261205D01*
X73075537Y-125243424D01*
X73076779Y-125241778D01*
X73088201Y-125248662D01*
X73110916Y-125266505D01*
X73133615Y-125285879D01*
X73188200Y-125326614D01*
X73257679Y-125367617D01*
X73334730Y-125405123D01*
X73412035Y-125435364D01*
X73442887Y-125445012D01*
X73511384Y-125459578D01*
X73594236Y-125469539D01*
X73683629Y-125474583D01*
X73771752Y-125474396D01*
X73850793Y-125468666D01*
X73888489Y-125462858D01*
X74026586Y-125424797D01*
X74153887Y-125367073D01*
X74269708Y-125290211D01*
X74373363Y-125194739D01*
X74464167Y-125081179D01*
X74530969Y-124970381D01*
X74585836Y-124853625D01*
X74627837Y-124734276D01*
X74657833Y-124608283D01*
X74676689Y-124471594D01*
X74685268Y-124320158D01*
X74685994Y-124242711D01*
X74683900Y-124185934D01*
X73854783Y-124185934D01*
X73854576Y-124279002D01*
X73851663Y-124366692D01*
X73846000Y-124443772D01*
X73837545Y-124505009D01*
X73834962Y-124517350D01*
X73803160Y-124624633D01*
X73761502Y-124711658D01*
X73709637Y-124778642D01*
X73647219Y-124825805D01*
X73573900Y-124853365D01*
X73489331Y-124861541D01*
X73393165Y-124850551D01*
X73329689Y-124834829D01*
X73280546Y-124816639D01*
X73226417Y-124790791D01*
X73185756Y-124767089D01*
X73115200Y-124720721D01*
X73115200Y-123570530D01*
X73182608Y-123526962D01*
X73261133Y-123486040D01*
X73345319Y-123459389D01*
X73430443Y-123447465D01*
X73511784Y-123450722D01*
X73584620Y-123469615D01*
X73616574Y-123485184D01*
X73674499Y-123528181D01*
X73723456Y-123584953D01*
X73764610Y-123657575D01*
X73799126Y-123748121D01*
X73828167Y-123858666D01*
X73829448Y-123864533D01*
X73839619Y-123926788D01*
X73847261Y-124004594D01*
X73852330Y-124092720D01*
X73854783Y-124185934D01*
X74683900Y-124185934D01*
X74678143Y-124029895D01*
X74656198Y-123834059D01*
X74620214Y-123655332D01*
X74570241Y-123493845D01*
X74506332Y-123349726D01*
X74428538Y-123223106D01*
X74336911Y-123114115D01*
X74231503Y-123022883D01*
X74186338Y-122991932D01*
X74085389Y-122935785D01*
X73982099Y-122896174D01*
X73872011Y-122872014D01*
X73750670Y-122862219D01*
X73658164Y-122863265D01*
X73528510Y-122874231D01*
X73415916Y-122896046D01*
X73317125Y-122929714D01*
X73228879Y-122976236D01*
X73180014Y-123010448D01*
X73150647Y-123032362D01*
X73128957Y-123047333D01*
X73120747Y-123051733D01*
X73119132Y-123040904D01*
X73117841Y-123010251D01*
X73116862Y-122962526D01*
X73116183Y-122900479D01*
X73115790Y-122826862D01*
X73115670Y-122744427D01*
X73115812Y-122655925D01*
X73116203Y-122564107D01*
X73116829Y-122471724D01*
X73117680Y-122381528D01*
X73118740Y-122296271D01*
X73119999Y-122218703D01*
X73121444Y-122151576D01*
X73123062Y-122097641D01*
X73124839Y-122059650D01*
X73125331Y-122052667D01*
X73132908Y-121982251D01*
X73144469Y-121927102D01*
X73162208Y-121879981D01*
X73188318Y-121833647D01*
X73194585Y-121824067D01*
X73219017Y-121787378D01*
X72313689Y-121787378D01*
X72313493Y-123472245D01*
X72313493Y-123472245D01*
G37*
X72313493Y-123472245D02*
X72313474Y-123706662D01*
X72313448Y-123919603D01*
X72313375Y-124112168D01*
X72313218Y-124285459D01*
X72312936Y-124440576D01*
X72312491Y-124578620D01*
X72311844Y-124700692D01*
X72310955Y-124807894D01*
X72309787Y-124901326D01*
X72308299Y-124982090D01*
X72306454Y-125051286D01*
X72304211Y-125110015D01*
X72301531Y-125159379D01*
X72298377Y-125200478D01*
X72294708Y-125234413D01*
X72290487Y-125262286D01*
X72285673Y-125285198D01*
X72280227Y-125304249D01*
X72274112Y-125320540D01*
X72267288Y-125335173D01*
X72259715Y-125349249D01*
X72251355Y-125363868D01*
X72246161Y-125372974D01*
X72211896Y-125433689D01*
X73070045Y-125433689D01*
X73070045Y-125337733D01*
X73070776Y-125294370D01*
X73072728Y-125261205D01*
X73075537Y-125243424D01*
X73076779Y-125241778D01*
X73088201Y-125248662D01*
X73110916Y-125266505D01*
X73133615Y-125285879D01*
X73188200Y-125326614D01*
X73257679Y-125367617D01*
X73334730Y-125405123D01*
X73412035Y-125435364D01*
X73442887Y-125445012D01*
X73511384Y-125459578D01*
X73594236Y-125469539D01*
X73683629Y-125474583D01*
X73771752Y-125474396D01*
X73850793Y-125468666D01*
X73888489Y-125462858D01*
X74026586Y-125424797D01*
X74153887Y-125367073D01*
X74269708Y-125290211D01*
X74373363Y-125194739D01*
X74464167Y-125081179D01*
X74530969Y-124970381D01*
X74585836Y-124853625D01*
X74627837Y-124734276D01*
X74657833Y-124608283D01*
X74676689Y-124471594D01*
X74685268Y-124320158D01*
X74685994Y-124242711D01*
X74683900Y-124185934D01*
X73854783Y-124185934D01*
X73854576Y-124279002D01*
X73851663Y-124366692D01*
X73846000Y-124443772D01*
X73837545Y-124505009D01*
X73834962Y-124517350D01*
X73803160Y-124624633D01*
X73761502Y-124711658D01*
X73709637Y-124778642D01*
X73647219Y-124825805D01*
X73573900Y-124853365D01*
X73489331Y-124861541D01*
X73393165Y-124850551D01*
X73329689Y-124834829D01*
X73280546Y-124816639D01*
X73226417Y-124790791D01*
X73185756Y-124767089D01*
X73115200Y-124720721D01*
X73115200Y-123570530D01*
X73182608Y-123526962D01*
X73261133Y-123486040D01*
X73345319Y-123459389D01*
X73430443Y-123447465D01*
X73511784Y-123450722D01*
X73584620Y-123469615D01*
X73616574Y-123485184D01*
X73674499Y-123528181D01*
X73723456Y-123584953D01*
X73764610Y-123657575D01*
X73799126Y-123748121D01*
X73828167Y-123858666D01*
X73829448Y-123864533D01*
X73839619Y-123926788D01*
X73847261Y-124004594D01*
X73852330Y-124092720D01*
X73854783Y-124185934D01*
X74683900Y-124185934D01*
X74678143Y-124029895D01*
X74656198Y-123834059D01*
X74620214Y-123655332D01*
X74570241Y-123493845D01*
X74506332Y-123349726D01*
X74428538Y-123223106D01*
X74336911Y-123114115D01*
X74231503Y-123022883D01*
X74186338Y-122991932D01*
X74085389Y-122935785D01*
X73982099Y-122896174D01*
X73872011Y-122872014D01*
X73750670Y-122862219D01*
X73658164Y-122863265D01*
X73528510Y-122874231D01*
X73415916Y-122896046D01*
X73317125Y-122929714D01*
X73228879Y-122976236D01*
X73180014Y-123010448D01*
X73150647Y-123032362D01*
X73128957Y-123047333D01*
X73120747Y-123051733D01*
X73119132Y-123040904D01*
X73117841Y-123010251D01*
X73116862Y-122962526D01*
X73116183Y-122900479D01*
X73115790Y-122826862D01*
X73115670Y-122744427D01*
X73115812Y-122655925D01*
X73116203Y-122564107D01*
X73116829Y-122471724D01*
X73117680Y-122381528D01*
X73118740Y-122296271D01*
X73119999Y-122218703D01*
X73121444Y-122151576D01*
X73123062Y-122097641D01*
X73124839Y-122059650D01*
X73125331Y-122052667D01*
X73132908Y-121982251D01*
X73144469Y-121927102D01*
X73162208Y-121879981D01*
X73188318Y-121833647D01*
X73194585Y-121824067D01*
X73219017Y-121787378D01*
X72313689Y-121787378D01*
X72313493Y-123472245D01*
G36*
X80773043Y-121026571D02*
X80676768Y-121050809D01*
X80590184Y-121093641D01*
X80515373Y-121153419D01*
X80454418Y-121228494D01*
X80409399Y-121317220D01*
X80383136Y-121413530D01*
X80377286Y-121510795D01*
X80392140Y-121604654D01*
X80425840Y-121692511D01*
X80476528Y-121771770D01*
X80542345Y-121839836D01*
X80621434Y-121894112D01*
X80711934Y-121932002D01*
X80763200Y-121944426D01*
X80807698Y-121951947D01*
X80841999Y-121954919D01*
X80874960Y-121953094D01*
X80915434Y-121946225D01*
X80948531Y-121939250D01*
X81041947Y-121907741D01*
X81125619Y-121856617D01*
X81197665Y-121787429D01*
X81256200Y-121701728D01*
X81270148Y-121674489D01*
X81286586Y-121638122D01*
X81296894Y-121607582D01*
X81302460Y-121575450D01*
X81304669Y-121534307D01*
X81304948Y-121488222D01*
X81300861Y-121403865D01*
X81287446Y-121334586D01*
X81262256Y-121273961D01*
X81222846Y-121215567D01*
X81184298Y-121171302D01*
X81112406Y-121105484D01*
X81037313Y-121060053D01*
X80954562Y-121032850D01*
X80876928Y-121022576D01*
X80773043Y-121026571D01*
X80773043Y-121026571D01*
G37*
X80773043Y-121026571D02*
X80676768Y-121050809D01*
X80590184Y-121093641D01*
X80515373Y-121153419D01*
X80454418Y-121228494D01*
X80409399Y-121317220D01*
X80383136Y-121413530D01*
X80377286Y-121510795D01*
X80392140Y-121604654D01*
X80425840Y-121692511D01*
X80476528Y-121771770D01*
X80542345Y-121839836D01*
X80621434Y-121894112D01*
X80711934Y-121932002D01*
X80763200Y-121944426D01*
X80807698Y-121951947D01*
X80841999Y-121954919D01*
X80874960Y-121953094D01*
X80915434Y-121946225D01*
X80948531Y-121939250D01*
X81041947Y-121907741D01*
X81125619Y-121856617D01*
X81197665Y-121787429D01*
X81256200Y-121701728D01*
X81270148Y-121674489D01*
X81286586Y-121638122D01*
X81296894Y-121607582D01*
X81302460Y-121575450D01*
X81304669Y-121534307D01*
X81304948Y-121488222D01*
X81300861Y-121403865D01*
X81287446Y-121334586D01*
X81262256Y-121273961D01*
X81222846Y-121215567D01*
X81184298Y-121171302D01*
X81112406Y-121105484D01*
X81037313Y-121060053D01*
X80954562Y-121032850D01*
X80876928Y-121022576D01*
X80773043Y-121026571D01*
D13*
X50530000Y-118170000D02*
G75*
G03X48530000Y-118170000I-1000000J0D01*
G01*
X48530000Y-118170000D02*
X46880000Y-118170000D01*
X46880000Y-118170000D02*
X46880000Y-97730000D01*
X46880000Y-97730000D02*
X52180000Y-97730000D01*
X52180000Y-97730000D02*
X52180000Y-118170000D01*
X52180000Y-118170000D02*
X50530000Y-118170000D01*
X48530000Y-97730000D02*
G75*
G03X50530000Y-97730000I1000000J0D01*
G01*
X50530000Y-97730000D02*
X52180000Y-97730000D01*
X52180000Y-97730000D02*
X52180000Y-118170000D01*
X52180000Y-118170000D02*
X46880000Y-118170000D01*
X46880000Y-118170000D02*
X46880000Y-97730000D01*
X46880000Y-97730000D02*
X48530000Y-97730000D01*
X72025000Y-97730000D02*
G75*
G03X74025000Y-97730000I1000000J0D01*
G01*
X74025000Y-97730000D02*
X75675000Y-97730000D01*
X75675000Y-97730000D02*
X75675000Y-118170000D01*
X75675000Y-118170000D02*
X70375000Y-118170000D01*
X70375000Y-118170000D02*
X70375000Y-97730000D01*
X70375000Y-97730000D02*
X72025000Y-97730000D01*
X74025000Y-118170000D02*
G75*
G03X72025000Y-118170000I-1000000J0D01*
G01*
X72025000Y-118170000D02*
X70375000Y-118170000D01*
X70375000Y-118170000D02*
X70375000Y-97730000D01*
X70375000Y-97730000D02*
X75675000Y-97730000D01*
X75675000Y-97730000D02*
X75675000Y-118170000D01*
X75675000Y-118170000D02*
X74025000Y-118170000D01*
D14*
X47116905Y-118832381D02*
X47116905Y-119641905D01*
X47069286Y-119737143D01*
X47021667Y-119784762D01*
X46926429Y-119832381D01*
X46735952Y-119832381D01*
X46640714Y-119784762D01*
X46593095Y-119737143D01*
X46545476Y-119641905D01*
X46545476Y-118832381D01*
X45545476Y-119832381D02*
X46116905Y-119832381D01*
X45831191Y-119832381D02*
X45831191Y-118832381D01*
X45926429Y-118975238D01*
X46021667Y-119070476D01*
X46116905Y-119118095D01*
X56641905Y-95972381D02*
X56641905Y-96781905D01*
X56594286Y-96877143D01*
X56546667Y-96924762D01*
X56451429Y-96972381D01*
X56260952Y-96972381D01*
X56165714Y-96924762D01*
X56118095Y-96877143D01*
X56070476Y-96781905D01*
X56070476Y-95972381D01*
X55689524Y-95972381D02*
X55070476Y-95972381D01*
X55403810Y-96353333D01*
X55260952Y-96353333D01*
X55165714Y-96400952D01*
X55118095Y-96448571D01*
X55070476Y-96543810D01*
X55070476Y-96781905D01*
X55118095Y-96877143D01*
X55165714Y-96924762D01*
X55260952Y-96972381D01*
X55546667Y-96972381D01*
X55641905Y-96924762D01*
X55689524Y-96877143D01*
X76326905Y-95972381D02*
X76326905Y-96781905D01*
X76279286Y-96877143D01*
X76231667Y-96924762D01*
X76136429Y-96972381D01*
X75945952Y-96972381D01*
X75850714Y-96924762D01*
X75803095Y-96877143D01*
X75755476Y-96781905D01*
X75755476Y-95972381D01*
X74803095Y-95972381D02*
X75279286Y-95972381D01*
X75326905Y-96448571D01*
X75279286Y-96400952D01*
X75184048Y-96353333D01*
X74945952Y-96353333D01*
X74850714Y-96400952D01*
X74803095Y-96448571D01*
X74755476Y-96543810D01*
X74755476Y-96781905D01*
X74803095Y-96877143D01*
X74850714Y-96924762D01*
X74945952Y-96972381D01*
X75184048Y-96972381D01*
X75279286Y-96924762D01*
X75326905Y-96877143D01*
X69976905Y-118832381D02*
X69976905Y-119641905D01*
X69929286Y-119737143D01*
X69881667Y-119784762D01*
X69786429Y-119832381D01*
X69595952Y-119832381D01*
X69500714Y-119784762D01*
X69453095Y-119737143D01*
X69405476Y-119641905D01*
X69405476Y-118832381D01*
X69024524Y-118832381D02*
X68357857Y-118832381D01*
X68786429Y-119832381D01*
M02*
